<svg xmlns="http://www.w3.org/2000/svg" width="24" height="22" viewBox="0 0 24 22" fill="none">
<path d="M7.30927 21.1766C7.04434 21.1766 6.982 21.0986 6.71707 20.8025C6.76382 20.8493 6.93525 20.9272 7.12226 20.9272C7.30927 20.9272 23.3611 20.2883 23.5948 20.2727L23.5931 20.2756C23.5311 20.3843 23.4523 20.5222 23.2052 20.5376C22.9559 20.5532 7.57421 21.1766 7.30927 21.1766Z" fill="#00376B"/>
<path d="M23.5951 20.2415L22.5353 19.2285C17.3925 19.6752 7.06642 20.5687 6.90435 20.5687C6.74227 20.5687 6.67058 20.5064 6.655 20.4752C6.66019 20.6259 6.74539 20.9303 7.0446 20.9428C7.34382 20.9552 18.2029 20.4804 23.5951 20.2415Z" fill="#0055A5"/>
<path d="M7.12217 20.5688C7.30918 20.5688 22.6285 19.9922 22.8623 19.9766C22.2545 17.9818 22.4571 16.2052 23.1428 14.3818L6.34296 15.4416L6.51438 20.1636L6.5923 20.3974C6.5923 20.3974 6.5923 20.4441 6.71698 20.5064C6.84165 20.5688 6.93516 20.5688 7.12217 20.5688Z" fill="#D9D9D9"/>
<path d="M7.38736 15.4415C7.11307 15.454 6.76399 15.774 6.68607 15.8935C6.68607 15.8935 6.82632 15.1298 6.90425 14.8026C6.98217 14.4753 23.8755 13.9298 23.8755 13.9298C23.9846 14.1636 23.9347 14.3787 23.6106 14.4909C23.2054 14.6311 7.73021 15.4259 7.38736 15.4415Z" fill="#00376B"/>
<path d="M6.73271 20.8336C6.44596 19.8986 6.51456 16.9687 6.91973 15.1454L0.234067 1.22864C-0.249045 2.3507 0.140598 7.29091 0.29644 7.6026C0.452283 7.91428 6.73271 20.8336 6.73271 20.8336Z" fill="#00376B"/>
<path d="M15.2419 0.838443L0.234009 1.22865L6.91968 15.1454L24 14.148L16.12 1.31484C15.9333 1.01072 15.5986 0.829167 15.2419 0.838443Z" fill="#0055A5"/>
<path d="M12.578 7.4639C13.4028 7.49937 14.1275 7.60932 14.7522 7.79376C15.3851 7.97819 15.9014 8.20874 16.3011 8.48539C16.6967 8.75495 16.9836 9.04224 17.162 9.34727C17.5686 10.0424 17.5515 10.5603 17.1107 10.9008C16.6699 11.2413 15.8589 11.4115 14.6775 11.4115C14.4396 11.4115 14.2365 11.408 14.0683 11.4009C13.5021 11.3867 12.9524 11.3796 12.4192 11.3796C11.4593 11.3796 10.7518 11.3902 10.2966 11.4115L10.1721 11.1987C10.4264 11.1845 10.5985 11.1562 10.6884 11.1136C10.7866 11.071 10.8209 10.9895 10.7914 10.8689C10.7619 10.7483 10.6683 10.5532 10.5107 10.2836L7.4242 5.00594C7.26656 4.73638 7.12786 4.54131 7.00811 4.42072C6.89657 4.30012 6.77092 4.21855 6.63118 4.17599C6.49143 4.13342 6.28615 4.10505 6.01532 4.09086L5.89087 3.87805C6.37094 3.89933 7.0827 3.90997 8.02615 3.90997L9.4351 3.89933C9.59503 3.89224 9.78164 3.88869 9.99494 3.88869C11.0779 3.88869 11.9915 4.04121 12.736 4.34623C13.4845 4.64417 14.0081 5.04851 14.3068 5.55925C14.4603 5.82172 14.5092 6.08773 14.4536 6.35729C14.3938 6.61975 14.2086 6.8503 13.8982 7.04892C13.5877 7.24754 13.1435 7.37878 12.5656 7.44262L12.578 7.4639ZM10.0516 4.09086C9.86296 4.09086 9.73391 4.11569 9.6645 4.16534C9.6033 4.215 9.59363 4.30367 9.63548 4.43136C9.67734 4.55904 9.77294 4.75057 9.92229 5.00594L11.3286 7.4107H11.6609C12.1039 7.4107 12.3203 7.25464 12.31 6.94252C12.3038 6.6233 12.1472 6.20123 11.8403 5.6763C11.525 5.13718 11.2229 4.73993 10.9341 4.48456C10.6493 4.22209 10.3552 4.09086 10.0516 4.09086ZM14.3252 11.1668C15.203 11.1668 15.2789 10.5461 14.5529 9.30471C14.2252 8.74431 13.8204 8.31869 13.3385 8.02785C12.8567 7.73701 12.2794 7.59159 11.6067 7.59159H11.4344L13.0088 10.2836C13.1581 10.539 13.2886 10.727 13.4001 10.8476C13.5117 10.9682 13.6353 11.0533 13.771 11.103C13.9107 11.1455 14.0955 11.1668 14.3252 11.1668Z" fill="white"/>
</svg>