<?xml version="1.0" encoding="UTF-8" standalone="no"?>
<!DOCTYPE svg PUBLIC "-//W3C//DTD SVG 1.1//EN" "http://www.w3.org/Graphics/SVG/1.1/DTD/svg11.dtd">
<svg width="100%" height="100%" viewBox="0 0 5386 7322" version="1.1" xmlns="http://www.w3.org/2000/svg" xmlns:xlink="http://www.w3.org/1999/xlink" xml:space="preserve" xmlns:serif="http://www.serif.com/" style="fill-rule:evenodd;clip-rule:evenodd;stroke-miterlimit:10;">
    <rect id="Page-1" serif:id="Page 1" x="-1307.13" y="-350.845" width="8000" height="8000" style="fill:none;"/>
    <g>
        <path d="M1059.63,111.742L1059.63,7216.37L2709.71,6393.99L4326.11,7216.37L4326.11,111.742C4326.11,111.742 2881.58,104.688 1913.74,104.688C1429.73,104.684 1065.06,106.451 1059.63,111.742Z" style="fill:url(#_Linear1);fill-rule:nonzero;"/>
        <path d="M1059.63,111.742L1059.63,7216.37L2709.71,6393.99L4326.11,7216.37L4326.11,111.742C4326.11,111.742 1075.93,95.867 1059.63,111.742Z" style="fill:none;fill-rule:nonzero;stroke:#fff;stroke-width:20.83px;"/>
        <path d="M4336.53,1966.51C4446.3,2200.34 4507.68,2461.48 4507.68,2736.9C4507.68,3739.19 3695.16,4551.7 2692.87,4551.7C1690.58,4551.7 878.056,3739.19 878.056,2736.9C878.056,2461.48 939.435,2200.34 1049.21,1966.51L1049.21,737.53C472.485,1212.22 104.685,1931.63 104.685,2736.9C104.685,4166.31 1263.45,5325.08 2692.87,5325.08C4122.28,5325.08 5281.05,4166.31 5281.05,2736.9C5281.05,1931.63 4913.25,1212.22 4336.53,737.526L4336.53,1966.51Z" style="fill:url(#_Linear2);fill-rule:nonzero;"/>
        <clipPath id="_clip3">
            <path d="M85.935,5343.83L5299.81,5343.83L5299.81,129.963L85.935,129.963L85.935,5343.83ZM1049.21,718.613C1240.13,562.755 1452.04,434.988 1679.75,338.676C2000.64,202.946 2341.5,134.134 2692.87,134.134C3044.24,134.134 3385.1,202.946 3705.99,338.676C3933.69,434.988 4145.61,562.755 4336.53,718.617L4336.53,2001.61C4246.76,1801.09 4122.21,1620.33 3965.82,1463.95C3800.49,1298.61 3607.96,1168.81 3393.59,1078.14C3171.66,984.267 2935.9,936.676 2692.87,936.676C2449.84,936.676 2214.08,984.267 1992.14,1078.14C1777.78,1168.81 1585.25,1298.61 1419.92,1463.95C1263.52,1620.34 1138.97,1801.09 1049.21,2001.62L1049.21,718.613Z" clip-rule="nonzero"/>
        </clipPath>
        <g clip-path="url(#_clip3)">
            <path d="M2692.87,4551.7C1690.58,4551.7 878.057,3739.19 878.057,2736.9C878.057,1734.61 1690.58,922.088 2692.87,922.088C3695.16,922.088 4507.68,1734.61 4507.68,2736.9C4507.68,3739.19 3695.16,4551.7 2692.87,4551.7ZM2692.87,148.713C1263.45,148.713 104.686,1307.48 104.686,2736.9C104.686,4166.31 1263.45,5325.08 2692.87,5325.08C4122.28,5325.08 5281.05,4166.31 5281.05,2736.9C5281.05,1307.48 4122.28,148.713 2692.87,148.713Z" style="fill:none;fill-rule:nonzero;stroke:#fff;stroke-width:20.83px;"/>
        </g>
        <g>
            <path d="M2132.6,1834.08C2132.6,1859.01 2127.28,1883.2 2116.66,1906.67C2110.4,1920.23 2101.06,1934.35 2088.61,1949.01C2055.61,1983.47 2016.74,2000.7 1972.03,2000.7C1950.04,2000.7 1927.84,1995.57 1905.51,1985.3C1897.05,1981.27 1886.97,1974.85 1875.26,1966.06L1865.34,1957.26C1856.54,1948.46 1849.77,1940.76 1845.01,1934.16C1823.38,1903.74 1812.55,1870.56 1812.55,1834.63L1812.55,1831.89C1812.55,1792.29 1824.84,1756.92 1849.4,1725.76C1851.97,1722.1 1858.37,1715.31 1868.65,1705.41C1879.65,1695.52 1890.65,1687.81 1901.65,1682.32C1926.18,1670.59 1949.12,1664.73 1970.38,1664.73C2018.02,1664.73 2058.36,1683.05 2091.35,1719.71C2118.86,1753.07 2132.6,1790.46 2132.6,1831.89L2132.6,1834.08ZM2220.03,1730.7C2209.04,1701.38 2190.87,1672.24 2165.59,1643.27C2152.73,1630.45 2143.05,1621.47 2136.45,1616.33C2086.95,1577.84 2032.51,1558.6 1973.12,1558.6L1972.58,1558.6C1921.24,1558.6 1875.6,1574.54 1835.66,1606.44C1826.12,1614.14 1818.61,1621.65 1813.13,1628.98L1812.55,1628.98L1812.55,1289.16L1812.01,1288.61L1706.98,1288.61L1706.43,1289.16L1706.43,2093.63L1812.55,2093.63L1812.55,2038.64C1818.78,2045.23 1824.84,2051.28 1830.72,2056.78C1841.72,2065.95 1851.4,2073.1 1859.86,2078.23C1870.86,2084.83 1883.31,2090.51 1897.25,2095.27C1925.1,2102.97 1948.75,2106.82 1968.18,2106.82L1975.32,2106.82C2022.62,2106.82 2067.9,2093.45 2111.14,2066.68C2119.94,2061.55 2129.48,2054.96 2139.74,2046.89C2148.53,2039.92 2160.08,2028.38 2174.39,2012.25C2187.58,1995.75 2197.84,1980.54 2205.18,1966.6C2227.89,1924.08 2239.26,1879.54 2239.26,1832.98C2239.26,1797.79 2232.86,1763.7 2220.03,1730.7" style="fill:#fff;fill-rule:nonzero;"/>
            <path d="M2346.59,1288.6L2451.62,1288.6L2452.16,1289.15L2452.16,2093.07L2451.62,2093.62L2346.59,2093.62L2346.05,2093.07L2346.05,1289.15L2346.59,1288.6Z" style="fill:#fff;fill-rule:nonzero;"/>
            <path d="M2787.02,2093.63L2782.05,2093.63C2687.47,2093.63 2619.65,2057.88 2578.6,1986.4C2564.3,1958.18 2557.15,1925 2557.15,1886.87L2557.15,1568.49L2558.81,1566.84L2661.64,1566.84L2663.27,1568.49L2663.27,1887.97C2663.27,1933.06 2681.98,1962.76 2719.37,1977.05C2735.14,1984.02 2755.31,1987.5 2779.85,1987.5L2788.64,1987.5C2833.38,1987.5 2865.08,1980.54 2883.8,1966.61C2908.33,1951.94 2920.62,1924.81 2920.62,1885.22L2920.62,1568.49L2921.73,1566.84L3025.11,1566.84L3026.19,1568.49L3026.19,2089.23L3025.11,2090.88L2921.73,2090.88L2920.62,2089.23L2920.62,2054.03L2919.53,2054.03C2900.82,2067.97 2876.45,2079.33 2846.4,2088.13C2830.26,2091.8 2810.47,2093.63 2787.02,2093.63" style="fill:#fff;fill-rule:nonzero;"/>
            <path d="M3516.28,1764.8L3249.59,1764.8L3258.39,1744.46C3290.64,1691.31 3331.86,1664.72 3382.11,1664.72C3415.1,1664.72 3445.53,1676.63 3473.38,1700.47C3495.74,1724.29 3510.03,1745.56 3516.28,1764.25L3516.28,1764.8ZM3595.46,1684.51C3586.29,1667.29 3569.61,1646.76 3545.41,1622.93C3495.94,1580.04 3444.41,1558.6 3390.91,1558.6L3374.97,1558.6C3326.2,1558.6 3277.62,1577.11 3229.23,1614.13C3163.62,1673.52 3130.82,1746.1 3130.82,1831.88L3130.82,1834.08C3130.82,1896.4 3149.5,1953.77 3186.89,2006.19C3241.14,2073.28 3306.04,2106.82 3381.56,2106.82L3383.77,2106.82C3457.06,2106.82 3520.68,2075.11 3574.55,2011.69C3592.52,1986.04 3604.06,1966.79 3609.2,1953.96C3608.46,1953.23 3576.58,1938.56 3513.53,1909.96C3512.42,1910.34 3508.76,1916.57 3502.54,1928.66C3470.26,1976.69 3430.3,2000.7 3382.65,2000.7C3344.89,2000.7 3311.18,1984.75 3281.47,1952.86C3262.05,1933.43 3248.11,1904.1 3239.68,1864.87L3633.39,1864.87C3634.85,1864.87 3635.59,1859.74 3635.59,1849.48L3635.59,1832.98C3635.59,1781.3 3622.2,1731.81 3595.46,1684.51" style="fill:#fff;fill-rule:nonzero;"/>
            <path d="M2109.72,2895.17C2066.47,2949.79 2014.6,2977.1 1954.1,2977.1C1898.36,2977.1 1849.8,2954.55 1808.38,2909.47C1770.62,2864.02 1751.74,2812.69 1751.74,2755.5C1751.74,2702.71 1767.14,2655.24 1797.93,2613.09C1841.18,2558.83 1892.88,2531.7 1953.01,2531.7C1994.05,2531.7 2033.11,2545.27 2070.12,2572.39C2126.57,2621.16 2154.79,2681.64 2154.79,2753.86C2154.79,2805.91 2139.77,2853.02 2109.72,2895.17M2133.91,2574.6C2082.95,2517.04 2023.02,2488.26 1954.1,2488.26C1928.81,2488.26 1904.05,2492.3 1879.85,2500.36C1823.41,2521.63 1780.88,2555.71 1752.28,2602.64L1751.74,2602.64L1751.74,2212.77L1750.08,2211.13L1709.94,2211.13L1708.29,2212.77L1708.29,3015.05L1709.94,3016.15L1750.08,3016.15L1751.74,3015.05L1751.74,2906.17L1752.28,2906.17L1763.85,2924.31C1816.64,2988.48 1878.94,3020.54 1950.81,3020.54L1957.41,3020.54C2013.85,3020.54 2067.01,2998.18 2116.86,2953.45C2171.1,2896.27 2198.24,2831.2 2198.24,2758.25L2198.24,2750.55C2198.24,2686.41 2176.79,2627.76 2133.91,2574.6" style="fill:#fff;fill-rule:nonzero;"/>
            <path d="M2652.48,2904.51C2611.43,2950.71 2563.41,2973.81 2508.43,2973.81C2468.09,2973.81 2429.96,2960.42 2394.05,2933.66C2338.32,2886.01 2310.47,2826.26 2310.47,2754.4C2310.47,2708.21 2323.67,2664.41 2350.06,2622.98C2393.68,2565.06 2446.27,2536.1 2507.86,2536.1C2562.1,2536.1 2609.6,2558.28 2650.28,2602.64C2687.68,2647 2706.38,2697.59 2706.38,2754.4C2706.38,2811.22 2688.42,2861.26 2652.48,2904.51M2694.27,2588.34C2642.94,2525.29 2581.55,2493.76 2510.05,2493.76L2507.31,2493.76C2446.1,2493.76 2391.28,2517.59 2342.89,2565.25C2293.05,2619.13 2268.11,2682.01 2268.11,2753.85L2268.11,2756.05C2268.11,2815.44 2285.7,2869.87 2320.89,2919.37C2372.94,2983.89 2435.1,3016.15 2507.31,3016.15C2570.01,3016.15 2625,2992.87 2672.28,2946.31C2723.24,2891.32 2748.72,2828.82 2748.72,2758.81L2748.72,2751.11C2748.72,2693.55 2730.58,2639.3 2694.27,2588.34" style="fill:#fff;fill-rule:nonzero;"/>
            <path d="M3208.12,2904.51C3167.08,2950.71 3119.06,2973.81 3064.07,2973.81C3023.73,2973.81 2985.63,2960.42 2949.69,2933.66C2893.96,2886.01 2866.11,2826.26 2866.11,2754.4C2866.11,2708.21 2879.31,2664.41 2905.7,2622.98C2949.32,2565.06 3001.94,2536.1 3063.53,2536.1C3117.77,2536.1 3165.25,2558.28 3205.93,2602.64C3243.31,2647 3262.03,2697.59 3262.03,2754.4C3262.03,2811.22 3244.06,2861.26 3208.12,2904.51M3249.91,2588.34C3198.61,2525.29 3137.2,2493.76 3065.73,2493.76L3062.95,2493.76C3001.74,2493.76 2946.95,2517.59 2898.56,2565.25C2848.69,2619.13 2823.78,2682.01 2823.78,2753.85L2823.78,2756.05C2823.78,2815.44 2841.38,2869.87 2876.57,2919.37C2928.61,2983.89 2990.74,3016.15 3062.95,3016.15C3125.66,3016.15 3180.64,2992.87 3227.92,2946.31C3278.88,2891.32 3304.36,2828.82 3304.36,2758.81L3304.36,2751.11C3304.36,2693.55 3286.22,2639.3 3249.91,2588.34" style="fill:#fff;fill-rule:nonzero;"/>
            <path d="M3379.5,2211.12L3419.64,2211.12L3421.29,2212.77L3421.29,2754.95L3697.32,2493.21L3760.02,2493.21L3760.02,2494.31L3527.41,2715.36L3527.41,2715.91L3763.3,3014.49L3763.3,3016.14L3707.77,3016.14C3705.2,3014.31 3678.81,2980.77 3628.59,2915.51C3547.95,2813.61 3503.76,2756.97 3496.08,2745.61L3494.96,2745.61L3421.29,2815.99L3421.29,3014.49L3419.64,3016.14L3379.5,3016.14L3377.84,3014.49L3377.84,2212.77L3379.5,2211.12Z" style="fill:#fff;fill-rule:nonzero;"/>
        </g>
        <g>
            <path d="M715.707,3428.02L688.787,3350.03L728.32,3336.39L797.791,3537.64L758.257,3551.29L731.341,3473.3L516.42,3547.49L500.795,3502.2L715.707,3428.02Z" style="fill:#fff;fill-rule:nonzero;"/>
            <path d="M746.473,3701.38C758.177,3725.71 777.348,3750.66 806.819,3736.49C833.202,3723.8 827.185,3694.63 816.473,3672.36L797.69,3633.3L729.498,3666.09L746.473,3701.38ZM813.24,3572.65L853.781,3656.94C875.702,3702.51 878.635,3755.11 827.24,3779.83C792.294,3796.64 758.952,3786.09 735.094,3755.8L658.656,3872.31L633.602,3820.23L709.369,3714.59L694.206,3683.06L591.41,3732.51L570.648,3689.33L813.24,3572.65Z" style="fill:#fff;fill-rule:nonzero;"/>
            <path d="M861.786,4004.47L931.036,3910.07L816.219,3934.33L861.786,4004.47ZM968.298,3862.74L990.873,3897.49L828.307,4141.38L798.482,4095.47L836.465,4040.87L772.882,3942.99L707.969,3956.13L678.765,3911.18L968.298,3862.74Z" style="fill:#fff;fill-rule:nonzero;"/>
            <path d="M1074,4019.02L1115.7,4066.91L1045.85,4293.57L1046.35,4294.15L1198.34,4161.83L1229.8,4197.96L1026.77,4374.72L986.821,4328.84L1059.79,4095.92L1059.3,4095.34L902.433,4231.91L870.975,4195.78L1074,4019.02Z" style="fill:#fff;fill-rule:nonzero;"/>
            <path d="M1342.69,4375.66C1343.85,4358.89 1335.35,4338.12 1321.13,4325.5C1304.64,4310.86 1278.53,4301.91 1261.1,4321.53C1244.7,4340.01 1255.54,4359.29 1271.98,4386.59C1290.78,4417.53 1313.66,4458.18 1278.58,4497.7C1240.21,4540.91 1187.69,4531.91 1148.17,4496.83C1122.02,4473.61 1103.84,4439.67 1104.58,4406.77L1151.37,4405.61C1149.2,4428.09 1159.83,4452.78 1175.75,4466.91C1192.53,4481.81 1219.46,4490.98 1238.65,4469.37C1257.33,4448.33 1241.59,4423.68 1223.35,4393.25C1205.72,4363.87 1189.88,4328.45 1223.2,4290.92C1259.55,4249.98 1312.95,4264.85 1349.34,4297.16C1369.53,4315.09 1386.25,4342.64 1388.73,4370.77L1342.69,4375.66Z" style="fill:#fff;fill-rule:nonzero;"/>
            <path d="M1447.23,4532.47C1472.74,4550.39 1500.44,4560.56 1518.8,4534.44C1537.16,4508.31 1517.11,4487.25 1492.85,4470.2L1464.23,4450.09L1419.86,4513.24L1447.23,4532.47ZM1448.19,4389.58L1520.06,4440.06C1570.45,4475.47 1590.66,4516.15 1558.31,4562.19C1524.22,4610.72 1473.53,4600.2 1426.86,4567.41L1396.69,4546.21L1332.65,4637.36L1293.45,4609.82L1448.19,4389.58Z" style="fill:#fff;fill-rule:nonzero;"/>
            <path d="M1653.36,4792.12C1702.41,4817.29 1754.99,4797.27 1781.2,4746.19C1806.54,4696.81 1793.35,4641.75 1743.63,4616.23C1694.24,4590.89 1641.81,4612.28 1616.47,4661.66C1590.26,4712.73 1604.65,4767.13 1653.36,4792.12M1762.55,4578.51C1837.31,4616.87 1866.94,4693.19 1827.54,4769.97C1789.18,4844.73 1708.16,4868.53 1633.41,4830.17C1559.67,4792.33 1531.77,4712.63 1570.13,4637.88C1609.53,4561.1 1688.81,4540.67 1762.55,4578.51" style="fill:#fff;fill-rule:nonzero;"/>
            <path d="M1981.4,4805.41C2006.91,4814.23 2038.13,4818.19 2048.82,4787.29C2058.39,4759.63 2033.44,4743.35 2010.08,4735.27L1969.12,4721.1L1944.39,4792.61L1981.4,4805.41ZM1937.03,4667.36L2025.41,4697.93C2073.2,4714.46 2112.61,4749.41 2093.97,4803.31C2081.28,4839.96 2050.32,4856.2 2012.02,4851.8L2040.9,4988.11L1986.28,4969.22L1964.64,4841.05L1931.59,4829.61L1894.3,4937.4L1849.03,4921.74L1937.03,4667.36Z" style="fill:#fff;fill-rule:nonzero;"/>
            <path d="M2210.87,4795.06L2130.34,4777.13L2139.42,4736.31L2347.24,4782.57L2338.15,4823.39L2257.62,4805.46L2208.22,5027.38L2161.47,5016.97L2210.87,4795.06Z" style="fill:#fff;fill-rule:nonzero;"/>
            <path d="M2489.44,4966.09L2459.96,4852.79L2406.28,4957.14L2489.44,4966.09ZM2446.78,4794.02L2487.99,4798.45L2574.47,5078.48L2520.04,5072.62L2501.68,5008.7L2385.64,4996.22L2354.85,5054.85L2301.56,5049.12L2446.78,4794.02Z" style="fill:#fff;fill-rule:nonzero;"/>
            <path d="M2668.34,4850.3L2585.85,4851.94L2585.02,4810.13L2797.88,4805.88L2798.72,4847.69L2716.23,4849.34L2720.77,5076.65L2672.87,5077.6L2668.34,4850.3Z" style="fill:#fff;fill-rule:nonzero;"/>
            <path d="M2912,5066.46L2888.84,4798.26L2841.12,4802.38L2864.28,5070.58L2912,5066.46Z" style="fill:#fff;"/>
            <path d="M3130.32,4997.83C3184.4,4987.13 3213.2,4938.79 3202.06,4882.47C3191.29,4828.01 3146.76,4793.02 3091.93,4803.87C3037.48,4814.65 3009.64,4863.96 3020.41,4918.41C3031.56,4974.73 3076.61,5008.46 3130.32,4997.83M3083.37,4762.54C3165.8,4746.23 3236.41,4787.69 3253.16,4872.36C3269.48,4954.79 3220.71,5023.74 3138.28,5040.05C3056.97,5056.14 2985.63,5010.96 2969.31,4928.53C2952.56,4843.86 3002.05,4778.64 3083.37,4762.54" style="fill:#fff;fill-rule:nonzero;"/>
            <path d="M3274.44,4725.75L3334.09,4703.96L3520.73,4850.33L3521.44,4850.06L3452.3,4660.78L3497.3,4644.34L3589.66,4897.2L3532.52,4918.07L3341.16,4766.55L3340.45,4766.81L3411.81,4962.17L3366.81,4978.61L3274.44,4725.75Z" style="fill:#fff;fill-rule:nonzero;"/>
            <path d="M3651.68,4571.48L3714.97,4531.41L3876.38,4655.58L3877.34,4654.98L3833.51,4456.36L3897.12,4416.09L4041.12,4643.55L4000.96,4668.97L3885.24,4486.17L3884.59,4486.58L3931.24,4713.11L3902.97,4731.01L3719.14,4591.32L3718.5,4591.73L3834.22,4774.53L3795.67,4798.93L3651.68,4571.48Z" style="fill:#fff;fill-rule:nonzero;"/>
            <path d="M3945.71,4374.9L4081.1,4258.85L4108.32,4290.61L4009.3,4375.48L4053.84,4427.44L4147.66,4347.02L4173.89,4377.62L4080.07,4458.04L4129.56,4515.78L4233.77,4426.45L4261.49,4458.78L4120.9,4579.28L3945.71,4374.9Z" style="fill:#fff;fill-rule:nonzero;"/>
            <path d="M4124.94,4220.84L4174.23,4164.45L4364.26,4237.62L4365.01,4236.76L4266.55,4058.81L4316.09,4002.12L4518.77,4179.26L4487.5,4215.05L4324.61,4072.69L4324.11,4073.26L4433.2,4277.17L4411.18,4302.36L4195.26,4220.69L4194.75,4221.27L4357.64,4363.62L4327.62,4397.98L4124.94,4220.84Z" style="fill:#fff;fill-rule:nonzero;"/>
            <path d="M4569.62,4032.55L4592.84,3996.4C4606.19,3975.6 4621.14,3943.18 4591.38,3924.07C4567.71,3908.87 4548.91,3919.85 4527.96,3952.48L4503.72,3990.23L4569.62,4032.55ZM4469.16,3968.04L4492.17,3932.21C4509.43,3905.34 4507.48,3883.75 4487.96,3871.22C4467.8,3858.28 4450.56,3867.53 4431.05,3897.93L4410.3,3930.24L4469.16,3968.04ZM4351.14,3949.19L4407.84,3860.89C4429.82,3826.66 4468.1,3801.53 4509.36,3828.03C4534.96,3844.46 4541.65,3871.35 4533.69,3899.23L4534.33,3899.63C4556.45,3873.63 4588.8,3865.48 4619.19,3884.99C4668.46,3916.63 4657.57,3970.18 4630.04,4013.06L4577.65,4094.64L4351.14,3949.19Z" style="fill:#fff;fill-rule:nonzero;"/>
            <path d="M4483.8,3734.47L4561.35,3573.91L4599.01,3592.1L4542.29,3709.53L4603.92,3739.29L4657.66,3628.03L4693.95,3645.56L4640.2,3756.82L4708.68,3789.89L4768.37,3666.3L4806.72,3684.82L4726.19,3851.55L4483.8,3734.47Z" style="fill:#fff;fill-rule:nonzero;"/>
            <path d="M4722.12,3473.34C4730.88,3447.8 4734.75,3416.57 4703.82,3405.96C4676.12,3396.47 4659.92,3421.46 4651.9,3444.84L4637.84,3485.84L4709.41,3510.38L4722.12,3473.34ZM4584.17,3518.09L4614.51,3429.61C4630.92,3381.77 4665.77,3342.27 4719.72,3360.77C4756.41,3373.35 4772.73,3404.27 4768.44,3442.59L4904.69,3413.34L4885.94,3468.01L4757.81,3490L4746.46,3523.09L4854.37,3560.09L4838.83,3605.41L4584.17,3518.09Z" style="fill:#fff;fill-rule:nonzero;"/>
        </g>
    </g>
    <defs>
        <linearGradient id="_Linear1" x1="0" y1="0" x2="1" y2="0" gradientUnits="userSpaceOnUse" gradientTransform="matrix(0,-7111.69,7111.69,-0,2692.87,7216.37)"><stop offset="0" style="stop-color:#0F64AE;stop-opacity:1"/><stop offset="1" style="stop-color:#1A3D6C;stop-opacity:1"/></linearGradient>
        <linearGradient id="_Linear2" x1="0" y1="0" x2="1" y2="0" gradientUnits="userSpaceOnUse" gradientTransform="matrix(0,-5176.37,5176.37,-0,2692.87,5325.08)"><stop offset="0" style="stop-color:#0F64AE;stop-opacity:1"/><stop offset="1" style="stop-color:#1A3D6C;stop-opacity:1"/></linearGradient>
    </defs>
</svg>
