<svg width="1458" height="1458" viewBox="0 0 1458 1458" fill="none" xmlns="http://www.w3.org/2000/svg">
<g clip-path="url(#clip0_380_5129)">
<path d="M729 4.70996L780.39 76.0499L842.3 13.63L881.9 92.1199L952.82 40.16L979.65 123.88L1057.82 83.66L1071.22 170.54L1154.72 143.04L1154.37 230.95L1241.15 216.85L1227.05 303.63L1314.96 303.28L1287.46 386.78L1374.34 400.18L1334.12 478.35L1417.84 505.18L1365.88 576.1L1444.37 615.7L1381.95 677.61L1453.29 729L1381.95 780.39L1444.37 842.3L1365.88 881.9L1417.84 952.82L1334.12 979.65L1374.34 1057.82L1287.46 1071.22L1314.96 1154.72L1227.05 1154.37L1241.15 1241.15L1154.37 1227.05L1154.72 1314.96L1071.22 1287.46L1057.82 1374.34L979.65 1334.12L952.82 1417.84L881.9 1365.88L842.3 1444.37L780.39 1381.95L729 1453.29L677.61 1381.95L615.7 1444.37L576.1 1365.88L505.18 1417.84L478.35 1334.12L400.18 1374.34L386.78 1287.46L303.28 1314.96L303.63 1227.05L216.85 1241.15L230.95 1154.37L143.04 1154.72L170.54 1071.22L83.66 1057.82L123.88 979.65L40.16 952.82L92.1199 881.9L13.63 842.3L76.0499 780.39L4.70996 729L76.0499 677.61L13.63 615.7L92.1199 576.1L40.16 505.18L123.88 478.35L83.66 400.18L170.54 386.78L143.04 303.28L230.95 303.63L216.85 216.85L303.63 230.95L303.28 143.04L386.78 170.54L400.18 83.66L478.35 123.88L505.18 40.16L576.1 92.1199L615.7 13.63L677.61 76.0499L729 4.70996Z" fill="white" stroke="#0F60AB" stroke-width="5" stroke-miterlimit="10"/>
<path d="M729 1035.12C896.453 1035.12 1032.2 899.372 1032.2 731.92C1032.2 564.467 896.453 428.72 729 428.72C561.547 428.72 425.8 564.467 425.8 731.92C425.8 899.372 561.547 1035.12 729 1035.12Z" fill="#0F60AB"/>
<path d="M729 1083.75C923.885 1083.75 1081.87 925.764 1081.87 730.88C1081.87 535.995 923.885 378.01 729 378.01C534.115 378.01 376.13 535.995 376.13 730.88C376.13 925.764 534.115 1083.75 729 1083.75Z" stroke="#0F60AB" stroke-width="10" stroke-miterlimit="10"/>
<g filter="url(#filter0_d_380_5129)">
<path d="M598.49 974.25C598.41 972.86 1017.67 959.31 1017.67 959.31L1026.31 965.59L1024.74 976.59L598.96 988.3L598.49 974.26V974.25ZM434.88 499.01V662.93L598.97 988.36C598.97 988.36 593.37 873.81 610.98 839.94L1030.95 828.21L1031 824.68L823.68 484.11L434.88 499.01Z" fill="white"/>
<path d="M449 529.84L472.49 576.92C472.49 576.92 465.95 716.67 472.08 737L446.96 686.06L449 529.84Z" fill="#2271B8"/>
<path d="M559.31 746.38C559.88 741.82 582.8 791.02 582.8 795.48C582.8 799.94 570.91 891.92 573.97 938.79L548.96 889.59C548.96 889.59 556.24 770.93 559.31 746.38Z" fill="#2271B8"/>
<path d="M1015.84 827.561C1015.84 827.561 986.219 893.95 1008.69 962.38L599.159 974.01C598.799 974.02 598.499 973.741 598.489 973.391C598.179 964.811 595.199 872.671 609.629 839.401L1015.84 827.57V827.561Z" fill="url(#paint0_linear_380_5129)"/>
<path d="M786.24 485.49C793.16 487.8 843.81 516.25 843.81 516.25L823.82 483.95L786.25 485.49H786.24Z" fill="#2271B8"/>
<path d="M996.09 825.671L1031.12 824.931L1011.58 792.48L996.09 825.671Z" fill="#2271B8"/>
<path d="M608.359 839.02L1030.95 828.21" stroke="#E0E0E0" stroke-width="7" stroke-miterlimit="10"/>
<path d="M437.95 502.45L611.31 840.76" stroke="#E0E0E0" stroke-width="7" stroke-miterlimit="10"/>
</g>
<path d="M705.56 856.08L974.23 848.95" stroke="#0C66AC" stroke-width="0.75" stroke-miterlimit="10"/>
<path d="M659.2 875.1L832.76 869.16" stroke="#0F66AC" stroke-width="0.75" stroke-miterlimit="10"/>
<path d="M817.33 889.74L948.06 886.63" stroke="#0F66AC" stroke-width="0.75" stroke-miterlimit="10"/>
<path d="M712.69 916.71L842.28 914.33" stroke="#0F66AC" stroke-width="0.75" stroke-miterlimit="10"/>
<path d="M668.71 925.03C673.47 926.22 995.63 916.71 995.63 916.71" stroke="#0F66AC" stroke-width="0.75" stroke-miterlimit="10"/>
<path d="M674.65 958.319C684.16 958.319 915.98 951.189 915.98 951.189" stroke="#0F66AC" stroke-width="0.75" stroke-miterlimit="10"/>
<path d="M647.62 608.97C645.41 606.39 642.5 603.87 638.88 601.4C637.11 600.32 635.81 599.56 634.95 599.14C628.55 595.95 622.39 594.51 616.46 594.84H616.41C611.28 595.12 607.33 596.8 604.54 599.89C603.88 600.63 603.41 601.35 603.14 602.04H603.08L590.25 571.48L590.17 571.43L579.68 572L579.65 572.05L610.03 644.41L620.63 643.83L618.55 638.88C619.42 639.44 620.25 639.95 621.05 640.41C622.49 641.18 623.73 641.77 624.77 642.18C626.12 642.71 627.58 643.16 629.15 643.51C632.22 644.05 634.73 644.27 636.67 644.16L637.38 644.12C642.1 643.86 646.12 642.41 649.43 639.77C650.11 639.26 650.82 638.62 651.54 637.83C652.16 637.16 652.87 636.05 653.69 634.53C654.39 632.97 654.84 631.55 655.04 630.26C655.7 626.31 655.16 622.24 653.4 618.06C652.07 614.89 650.14 611.86 647.62 608.96V608.97ZM642.79 618.74C643.73 620.98 644.11 623.19 643.94 625.36C643.83 626.61 643.43 627.93 642.74 629.32C640.75 632.6 637.51 634.36 633.05 634.6C630.85 634.72 628.44 634.38 625.82 633.58C624.82 633.26 623.57 632.74 622.07 632.01L620.75 631.27C619.54 630.53 618.57 629.87 617.85 629.3C614.54 626.68 612.21 623.76 610.85 620.52L610.75 620.27C609.26 616.71 609.15 613.46 610.42 610.52C610.54 610.18 610.92 609.53 611.57 608.58C612.29 607.63 613.1 606.88 613.99 606.32C616 605.13 618.07 604.48 620.19 604.36C624.95 604.1 629.67 605.53 634.35 608.65C638.36 611.5 641.14 614.79 642.71 618.52L642.79 618.72V618.74Z" fill="#055FAB"/>
<path d="M643.57 568.52L654.06 567.95L654.13 567.99L684.49 640.3L684.45 640.36L673.96 640.93L673.89 640.88L643.53 568.57L643.57 568.52Z" fill="#055FAB"/>
<path d="M717.95 638.53L717.45 638.56C708 639.07 699.88 636.23 693.08 630.02C690.59 627.56 688.62 624.61 687.18 621.18L675.16 592.54L675.26 592.38L685.53 591.82L685.75 591.96L697.81 620.7C699.51 624.76 702.5 627.32 706.78 628.41C708.62 628.95 710.76 629.15 713.21 629.02L714.09 628.97C718.56 628.73 721.46 627.93 722.8 626.57C724.7 625.12 724.9 622.61 723.4 619.05L711.44 590.56L711.49 590.41L721.81 589.85L721.98 589.99L741.64 636.83L741.59 636.98L731.27 637.54L731.1 637.4L729.77 634.23H729.66C728.32 635.59 726.31 636.75 723.64 637.7C722.17 638.12 720.26 638.39 717.92 638.52L717.95 638.53Z" fill="#055FAB"/>
<path d="M783.25 597.34C781.68 595.84 779.24 594.08 775.93 592.07C769.37 588.48 763.41 586.83 758.07 587.12L756.48 587.21C751.61 587.48 747.46 589.4 744.02 593C739.71 598.7 739.17 605.41 742.41 613.12L742.49 613.32C744.84 618.93 748.88 623.98 754.59 628.5C762.54 634.24 770.29 636.9 777.83 636.49H778.05C785.37 636.08 790.53 632.88 793.51 626.88C794.34 624.47 794.76 622.68 794.79 621.5C794.69 621.44 790.95 620.29 783.57 618.06C783.47 618.1 783.34 618.68 783.18 619.8C781.77 624.3 778.68 626.67 773.93 626.93C770.16 627.14 766.19 625.88 762.02 623.18C759.35 621.54 756.85 618.98 754.52 615.49L793.84 613.35C793.99 613.35 793.87 612.88 793.48 611.95L792.86 610.47C790.91 605.82 787.7 601.44 783.25 597.33V597.34ZM778.37 604.99L751.73 606.44L751.84 604.56C753.05 599.6 756.17 596.99 761.19 596.72C764.49 596.54 767.97 597.45 771.65 599.44C774.78 601.46 777.01 603.3 778.34 604.94L778.36 604.99H778.37Z" fill="#055FAB"/>
<path d="M675.151 684.53C667.891 679.63 660.82 677.37 653.93 677.74C651.4 677.88 649.08 678.38 646.97 679.23C642.14 681.45 639.171 684.75 638.091 689.12H638.04L623.32 654.06L623.091 653.92L619.081 654.14L618.98 654.3L649.271 726.46L649.48 726.55L653.49 726.33L653.61 726.22L649.5 716.43H649.55L651.391 718C659.091 723.48 666.521 726.03 673.701 725.64L674.36 725.6C680 725.29 684.46 722.99 687.75 718.7C691.01 713.26 691.26 707.26 688.51 700.7L688.22 700.01C685.8 694.24 681.441 689.08 675.151 684.53ZM684.841 713.5C682.581 718.65 678.431 721.39 672.391 721.72C666.821 722.02 661.121 720.26 655.281 716.43C649.791 712.55 645.97 708.03 643.81 702.89C641.82 698.14 641.56 693.79 643.05 689.83C645.32 684.71 649.46 681.99 655.47 681.67C659.57 681.45 663.981 682.45 668.701 684.69C676.181 688.77 681.28 694.06 684.01 700.55C685.98 705.23 686.251 709.55 684.841 713.51V713.5Z" fill="#055FAB"/>
<path d="M731.64 682.47C724.13 677.08 716.81 674.58 709.67 674.96H709.4C703.29 675.31 698.71 677.75 695.68 682.3C692.74 687.42 692.62 693.21 695.33 699.67L695.41 699.87C697.65 705.21 701.47 710.01 706.85 714.27C714.48 719.79 721.91 722.35 729.12 721.96C735.38 721.62 740 719.23 742.96 714.78C745.97 709.56 746.16 703.8 743.51 697.5L743.22 696.81C741.05 691.63 737.19 686.85 731.64 682.47ZM739.4 711.14C737.04 715.52 733.12 717.86 727.63 718.16C723.6 718.38 719.29 717.38 714.69 715.17C707.32 711.19 702.29 705.96 699.57 699.5C697.83 695.35 697.49 691.33 698.56 687.46C700.73 682.01 704.89 679.12 711.04 678.79C716.46 678.5 722.04 680.23 727.78 684C733.19 687.79 736.97 692.24 739.11 697.35C741.26 702.46 741.35 707.06 739.39 711.15L739.4 711.14Z" fill="#055FAB"/>
<path d="M785.761 679.57C778.261 674.18 770.93 671.68 763.79 672.06L763.511 672.08C757.401 672.41 752.82 674.85 749.79 679.4C746.84 684.52 746.731 690.31 749.441 696.77L749.521 696.97C751.761 702.31 755.581 707.11 760.961 711.37C768.591 716.89 776.02 719.45 783.23 719.06C789.49 718.72 794.11 716.33 797.07 711.88C800.08 706.66 800.271 700.9 797.621 694.6L797.33 693.91C795.16 688.73 791.301 683.95 785.751 679.57H785.761ZM793.521 708.24C791.161 712.62 787.241 714.96 781.751 715.26C777.721 715.48 773.411 714.48 768.811 712.27C761.441 708.29 756.411 703.06 753.691 696.6C751.951 692.45 751.611 688.43 752.681 684.56C754.851 679.11 759.01 676.22 765.16 675.89C770.58 675.6 776.161 677.33 781.891 681.1C787.301 684.89 791.08 689.34 793.22 694.45C795.37 699.56 795.461 704.16 793.501 708.25L793.521 708.24Z" fill="#055FAB"/>
<path d="M785.86 646.32L789.87 646.1L790.1 646.24L810.57 695.01L828.26 669.97L834.521 669.63L834.561 669.73L819.671 690.88L819.69 690.93L854.521 716.5L854.58 716.65L849.031 716.95C848.701 716.8 844.8 713.93 837.32 708.33C825.42 699.6 818.871 694.75 817.671 693.77H817.561L812.86 700.51L820.36 718.37L820.26 718.53L816.25 718.75L816.021 718.61L785.75 646.5L785.85 646.34L785.86 646.32Z" fill="#055FAB"/>
<path d="M430.88 499.01L435.53 498.83L437.05 500.84L430.88 504.09V499.01Z" fill="#E0E0E0"/>
<path fill-rule="evenodd" clip-rule="evenodd" d="M270.547 807.176L203.053 817.705L206.874 842.197L194.473 844.132L184.615 780.941L197.016 779.006L200.837 803.498L268.331 792.969L270.547 807.176ZM264.134 753.506L183.276 754.109L183.066 726.016C182.953 710.816 188.891 696.164 206.025 696.037C217.683 695.95 225.381 703.082 227.975 714.367L263.68 692.523L263.809 709.871L229.68 728.869L229.759 739.383L264.027 739.127L264.134 753.506ZM218.008 739.47L217.92 727.699C217.86 719.585 215.847 710.343 206.018 710.416C197.217 710.481 195.11 719.183 195.166 726.611L195.262 739.64L218.008 739.47ZM263.907 687.33L190.531 638.424L192.729 626.17L278.471 606.166L275.567 622.353L256.021 626.504L249.829 661.015L266.752 671.479L263.907 687.33ZM238.567 654.006L243.004 629.274L208.425 635.717L238.567 654.006ZM282.196 594.934L206.85 565.584L213.769 547.82L283.827 534.765L283.911 534.552L227.498 512.577L232.717 499.179L308.063 528.53L301.434 545.548L229.275 558.643L229.192 558.856L287.415 581.536L282.196 594.934ZM281.987 427.181L285.863 440.53C280.844 441.068 275.147 444.679 272.161 449.552C268.698 455.205 267.426 463.406 274.149 467.524C280.482 471.404 285.617 467.178 292.829 460.873C300.989 453.677 311.802 444.776 325.343 453.073C340.148 462.142 340.253 478.133 331.955 491.679C326.463 500.644 317.395 507.802 307.633 509.321L304.817 495.547C311.58 495.006 318.321 490.565 321.664 485.106C325.187 479.356 326.482 470.901 319.077 466.364C311.867 461.947 305.403 467.906 297.361 474.909C289.599 481.674 279.963 488.217 267.103 480.338C253.078 471.746 254.662 455.184 262.304 442.709C266.543 435.789 273.806 429.395 281.987 427.181ZM357.174 449.732L295.698 397.203L312.835 377.148C324.86 363.075 337.588 358.19 350.441 369.173C363.989 380.749 359.407 395.596 348.27 408.63L341.069 417.058L366.514 438.8L357.174 449.732ZM331.874 409.201L338.407 401.555C344.495 394.43 348.325 386.428 341.027 380.191C333.727 373.954 326.855 379.357 321.064 386.135L314.234 394.128L331.874 409.201ZM377.16 364.933C360.943 344.69 365.082 320.463 384.522 304.89C404.23 289.102 428.777 290.352 444.993 310.594C460.78 330.301 457.356 355.421 437.648 371.208C418.208 386.781 392.946 384.641 377.16 364.933ZM389.362 355.158C400.148 368.623 416.834 371.361 429.676 361.073C442.606 350.715 443.577 333.834 432.79 320.369C422.361 307.35 405.639 304.202 392.531 314.703C379.511 325.132 378.932 342.139 389.362 355.158ZM486.19 333.859L448.556 262.289L473.422 249.214C486.875 242.14 502.618 240.694 510.592 255.859C516.019 266.178 513.213 276.29 504.377 283.773L540.167 305.475L524.812 313.55L492.273 291.941L482.967 296.835L498.916 327.166L486.19 333.859ZM477.498 286.434L487.917 280.955C495.098 277.179 502.388 271.15 497.812 262.45C493.717 254.66 485.018 256.78 478.443 260.238L466.912 266.302L477.498 286.434ZM569.424 295.208L547.515 230.507L524.037 238.457L520.011 226.569L580.587 206.057L584.613 217.945L561.134 225.895L583.043 290.595L569.424 295.208ZM604.39 282.444L625.31 196.781L637.577 194.665L685.65 268.427L669.443 271.223L658.869 254.268L624.317 260.228L620.26 279.707L604.39 282.444ZM627.062 247.25L651.823 242.979L633.962 212.676L627.062 247.25ZM708.6 268.919L707.447 200.619L682.662 201.037L682.451 188.488L746.396 187.408L746.608 199.958L721.824 200.376L722.976 268.676L708.6 268.919ZM763.726 270.384L771.901 189.937L786.206 191.392L778.031 271.837L763.726 270.384ZM807.726 233.16C814.234 208.052 836.119 196.865 860.231 203.115C884.675 209.452 898.368 229.862 891.86 254.97C885.523 279.413 863.352 291.706 838.908 285.37C814.796 279.119 801.39 257.603 807.726 233.16ZM822.861 237.083C818.532 253.783 826.328 268.788 842.255 272.917C858.292 277.075 872.396 267.747 876.724 251.046C880.911 234.898 873.423 219.619 857.164 215.404C841.015 211.218 827.047 220.935 822.861 237.083ZM897.403 301.126L933.588 228.813L950.637 237.344L957.164 308.309L957.369 308.412L984.461 254.269L997.319 260.703L961.135 333.016L944.802 324.843L938.427 251.783L938.223 251.682L910.262 307.56L897.403 301.126ZM1008.95 365.186L1064.67 306.582L1080.97 322.08L1056.63 378.197L1056.87 378.432L1111.52 351.13L1127.91 366.705L1072.19 425.307L1061.86 415.479L1106.64 368.373L1106.47 368.216L1043.89 398.396L1036.6 391.468L1063.83 327.672L1063.66 327.514L1018.88 374.621L1008.95 365.186ZM1084.93 442.722L1151.02 396.126L1181.88 439.899L1171.63 447.131L1149.05 415.11L1132.23 426.966L1153.62 457.308L1143.74 464.277L1122.35 433.936L1103.66 447.109L1127.43 480.811L1116.98 488.175L1084.93 442.722ZM1126.92 502.904L1200.88 470.199L1209.97 490.769L1165.94 533.23L1166.08 533.543L1227.02 529.328L1236.17 550.002L1162.22 582.706L1156.45 569.661L1215.89 543.373L1215.8 543.163L1146.42 546.985L1142.35 537.789L1192 489.349L1191.9 489.14L1132.46 515.428L1126.92 502.904ZM1167.3 603.409L1246.33 586.298L1253 617.106C1255.59 629.054 1252.78 642.506 1238.38 645.624C1229.44 647.56 1222.32 643.264 1218.1 635.653L1217.88 635.701C1218.69 645.922 1213.54 654.509 1202.93 656.806C1185.74 660.529 1176.7 646.838 1173.46 631.87L1167.3 603.409ZM1237.77 602.861L1217.22 607.312L1219.93 619.823C1221.96 629.206 1226.96 633.386 1233.77 631.911C1240.81 630.386 1242.51 624.755 1240.22 614.144L1237.77 602.861ZM1205.17 609.921L1182.16 614.902L1184.9 627.524C1186.47 634.784 1190.17 644.857 1200.56 642.608C1208.82 640.819 1210.5 634.493 1208.03 623.101L1205.17 609.921ZM1181.9 680.676L1262.68 676.885L1265.19 730.386L1252.65 730.974L1250.81 691.837L1230.26 692.802L1232 729.885L1219.92 730.452L1218.18 693.368L1195.34 694.44L1197.28 735.633L1184.51 736.231L1181.9 680.676ZM1183.67 755.279L1263.99 764.577L1260.76 792.484C1259.01 807.583 1251.33 821.398 1234.3 819.429C1222.72 818.088 1215.96 810.067 1214.76 798.549L1176.65 815.859L1178.65 798.626L1214.84 783.948L1216.05 773.503L1182.01 769.563L1183.67 755.279ZM1227.73 774.854L1226.37 786.548C1225.44 794.608 1226.31 804.027 1236.07 805.158C1244.81 806.17 1247.97 797.791 1248.82 790.413L1250.32 777.47L1227.73 774.854Z" fill="#055FAB"/>
<path fill-rule="evenodd" clip-rule="evenodd" d="M421.102 1159.2L448.775 1117.25L453.035 1120.06L441.034 1138.25L463.919 1153.35L475.92 1135.15L480.181 1137.96L452.509 1179.92L448.248 1177.11L461.343 1157.25L438.459 1142.16L425.363 1162.01L421.102 1159.2ZM528.556 1191.34C521.812 1205.04 506.833 1210.08 493.39 1203.46C479.948 1196.84 474.811 1181.9 481.556 1168.2C488.301 1154.5 503.28 1149.46 516.722 1156.08C530.165 1162.7 535.301 1177.65 528.556 1191.34ZM523.723 1188.96C528.9 1178.45 526.346 1165.79 514.75 1160.08C503.155 1154.37 491.566 1160.07 486.389 1170.58C481.213 1181.09 483.799 1193.68 495.394 1199.39C506.989 1205.1 518.547 1199.47 523.723 1188.96ZM559.267 1176.09L573.164 1226.05L573.298 1226.09L587.1 1185.57L591.93 1187.21L575.728 1234.79L569.687 1232.73L555.929 1182.37L555.794 1182.32L541.855 1223.25L537.024 1221.61L553.227 1174.03L559.267 1176.09ZM652.327 1226.34C649.315 1241.31 636.128 1250.02 621.438 1247.06C606.747 1244.11 597.955 1230.97 600.967 1216.01C603.979 1201.04 617.166 1192.33 631.856 1195.29C646.546 1198.24 655.339 1211.37 652.327 1226.34ZM647.046 1225.28C649.358 1213.79 643.647 1202.21 630.976 1199.66C618.305 1197.11 608.56 1205.58 606.249 1217.07C603.937 1228.56 609.661 1240.07 622.333 1242.62C635.004 1245.17 644.734 1236.77 647.046 1225.28ZM674.955 1230.18L673.046 1253.6L667.96 1253.19L672.04 1203.09L686.755 1204.29C696.667 1205.1 703.583 1209.29 702.787 1219.06C702.182 1226.49 696.29 1230.71 688.935 1230.89L701.635 1255.93L695.416 1255.42L683.449 1230.87L674.955 1230.18ZM676.77 1207.88L675.311 1225.8L684.161 1226.52C692.302 1227.18 697.216 1224.59 697.701 1218.64C698.237 1212.06 693.407 1209.24 685.832 1208.62L676.77 1207.88ZM771.473 1208.75L767.647 1212.26C765.329 1209.35 761.729 1207.59 756.979 1207.89C752.018 1208.2 746.464 1211.54 746.872 1217.99C747.276 1224.37 752.696 1225.66 758.413 1227.15C765.65 1229.04 773.58 1230.82 774.217 1240.88C774.854 1250.94 766.708 1255.86 758.768 1256.37C752.671 1256.75 746.425 1254.66 742.501 1249.93L746.682 1246.4C749.099 1249.8 753.316 1252.31 758.561 1251.98C763.736 1251.65 769.484 1248.01 769.076 1241.56C768.631 1234.55 762.636 1233.15 756.13 1231.57C749.336 1229.93 742.358 1227.46 741.784 1218.39C741.169 1208.68 749.546 1204.03 756.919 1203.56C763.653 1203.13 768.862 1205.64 771.473 1208.75ZM796.62 1227.29L799.688 1246.44L826.258 1242.18L826.976 1246.66L795.366 1251.72L787.415 1202.1L818.182 1197.17L818.901 1201.64L793.172 1205.77L795.914 1222.88L819.96 1219.03L820.666 1223.44L796.62 1227.29ZM845.075 1218.43L851.071 1241.15L846.137 1242.45L833.313 1193.86L847.588 1190.09C857.202 1187.55 865.118 1189.2 867.62 1198.68C869.523 1205.89 865.371 1211.83 858.496 1214.45L878.806 1233.83L872.772 1235.42L853.317 1216.25L845.075 1218.43ZM839.369 1196.8L843.954 1214.18L852.538 1211.91C860.437 1209.83 864.208 1205.75 862.686 1199.98C861 1193.59 855.507 1192.54 848.159 1194.48L839.369 1196.8ZM877.008 1181.58L907.6 1216.75L907.734 1216.7L907.724 1170.08L912.843 1168.17L912.438 1221.98L907.385 1223.87L871.823 1183.52L877.008 1181.58ZM928.276 1160.68L949.471 1206.25L944.843 1208.41L923.649 1162.83L928.276 1160.68ZM997.84 1168.22L1002.56 1168.47C1002.17 1174.5 998.704 1181.46 990.877 1185.94C977.687 1193.48 962.612 1189.27 955.033 1176.01C947.453 1162.76 951.654 1147.53 964.659 1140.09C971.069 1136.42 978.683 1135.58 984.134 1138.1L981.986 1142.93C978.516 1141.15 972.483 1140.76 966.936 1143.93C955.658 1150.38 953.892 1163.17 959.709 1173.34C965.525 1183.51 977.505 1188.44 988.723 1182.03C993.715 1179.17 997.394 1174.45 997.84 1168.22ZM1012.06 1142.61L1023.43 1158.32L1045.23 1142.54L1047.89 1146.21L1021.96 1164.98L992.483 1124.27L1017.72 1106L1020.38 1109.67L999.276 1124.95L1009.44 1138.99L1029.17 1124.71L1031.78 1128.33L1012.06 1142.61Z" fill="#055FAB"/>
</g>
<defs>
<filter id="filter0_d_380_5129" x="427.835" y="476.95" width="624.285" height="532.41" filterUnits="userSpaceOnUse" color-interpolation-filters="sRGB">
<feFlood flood-opacity="0" result="BackgroundImageFix"/>
<feColorMatrix in="SourceAlpha" type="matrix" values="0 0 0 0 0 0 0 0 0 0 0 0 0 0 0 0 0 0 127 0" result="hardAlpha"/>
<feOffset dx="7" dy="7"/>
<feGaussianBlur stdDeviation="7"/>
<feColorMatrix type="matrix" values="0 0 0 0 0.113725 0 0 0 0 0.2 0 0 0 0 0.376471 0 0 0 0.32 0"/>
<feBlend mode="normal" in2="BackgroundImageFix" result="effect1_dropShadow_380_5129"/>
<feBlend mode="normal" in="SourceGraphic" in2="effect1_dropShadow_380_5129" result="shape"/>
</filter>
<linearGradient id="paint0_linear_380_5129" x1="598.029" y1="900.781" x2="1015.84" y2="900.781" gradientUnits="userSpaceOnUse">
<stop stop-color="#0F60AB"/>
<stop offset="0.02" stop-color="#397BB9"/>
<stop offset="0.04" stop-color="#6297C8"/>
<stop offset="0.06" stop-color="#87B0D5"/>
<stop offset="0.08" stop-color="#A8C5E0"/>
<stop offset="0.11" stop-color="#C3D7EA"/>
<stop offset="0.14" stop-color="#D9E6F1"/>
<stop offset="0.18" stop-color="#EAF1F7"/>
<stop offset="0.22" stop-color="#F6F9FB"/>
<stop offset="0.28" stop-color="#FDFDFE"/>
<stop offset="0.46" stop-color="white"/>
</linearGradient>
<clipPath id="clip0_380_5129">
<rect width="1458" height="1458" fill="white"/>
</clipPath>
</defs>
</svg>
