<svg width="1450" height="1450" viewBox="0 0 1450 1450" fill="none" xmlns="http://www.w3.org/2000/svg">
<g clip-path="url(#clip0_380_5066)">
<path d="M725 0.709961L776.39 72.0499L838.3 9.62996L877.9 88.1199L948.82 36.16L975.65 119.88L1053.82 79.66L1067.22 166.54L1150.72 139.04L1150.37 226.95L1237.15 212.85L1223.05 299.63L1310.96 299.28L1283.46 382.78L1370.34 396.18L1330.12 474.35L1413.84 501.18L1361.88 572.1L1440.37 611.7L1377.95 673.61L1449.29 725L1377.95 776.39L1440.37 838.3L1361.88 877.9L1413.84 948.82L1330.12 975.65L1370.34 1053.82L1283.46 1067.22L1310.96 1150.72L1223.05 1150.37L1237.15 1237.15L1150.37 1223.05L1150.72 1310.96L1067.22 1283.46L1053.82 1370.34L975.65 1330.12L948.82 1413.84L877.9 1361.88L838.3 1440.37L776.39 1377.95L725 1449.29L673.61 1377.95L611.7 1440.37L572.1 1361.88L501.18 1413.84L474.35 1330.12L396.18 1370.34L382.78 1283.46L299.28 1310.96L299.63 1223.05L212.85 1237.15L226.95 1150.37L139.04 1150.72L166.54 1067.22L79.66 1053.82L119.88 975.65L36.16 948.82L88.1199 877.9L9.62996 838.3L72.0499 776.39L0.709961 725L72.0499 673.61L9.62996 611.7L88.1199 572.1L36.16 501.18L119.88 474.35L79.66 396.18L166.54 382.78L139.04 299.28L226.95 299.63L212.85 212.85L299.63 226.95L299.28 139.04L382.78 166.54L396.18 79.66L474.35 119.88L501.18 36.16L572.1 88.1199L611.7 9.62996L673.61 72.0499L725 0.709961Z" fill="url(#paint0_linear_380_5066)"/>
<path d="M725 1031.12C892.453 1031.12 1028.2 895.372 1028.2 727.92C1028.2 560.467 892.453 424.72 725 424.72C557.547 424.72 421.8 560.467 421.8 727.92C421.8 895.372 557.547 1031.12 725 1031.12Z" fill="white"/>
<path d="M725 1079.75C919.885 1079.75 1077.87 921.764 1077.87 726.88C1077.87 531.995 919.885 374.01 725 374.01C530.115 374.01 372.13 531.995 372.13 726.88C372.13 921.764 530.115 1079.75 725 1079.75Z" stroke="white" stroke-width="10" stroke-miterlimit="10"/>
<g filter="url(#filter0_d_380_5066)">
<path d="M590.49 970.25C590.41 968.86 1009.67 955.31 1009.67 955.31L1018.31 961.59L1016.74 972.59L590.96 984.3L590.49 970.26V970.25ZM426.88 495.01V658.93L590.97 984.36C590.97 984.36 585.37 869.81 602.98 835.94L1022.95 824.21L1023 820.68L815.68 480.11L426.88 495.01Z" fill="url(#paint1_linear_380_5066)"/>
<path d="M441 526.07L464.49 573.28C464.49 573.28 458.22 712.9 464.35 733.29L438.95 682.72L440.99 526.07H441Z" fill="#2271B8"/>
<path d="M551.31 740.94C551.88 736.41 574.8 783.87 574.8 788.35C574.8 792.83 562.76 887.83 565.83 934.43L540.97 885.1C540.97 885.1 548.25 765.34 551.32 740.93L551.31 740.94Z" fill="#2271B8"/>
<path d="M1007.84 823.561C1007.84 823.561 978.219 889.95 1000.69 958.38L591.159 970.01C590.799 970.02 590.499 969.741 590.489 969.391C590.179 960.811 587.199 868.671 601.629 835.401L1007.84 823.57V823.561Z" fill="url(#paint2_linear_380_5066)"/>
<path d="M778.24 481.49C785.16 483.8 835.81 512.25 835.81 512.25L815.82 479.95L778.25 481.49H778.24Z" fill="#2271B8"/>
<path d="M988.09 821.671L1023.12 820.931L1003.58 788.48L988.09 821.671Z" fill="#2271B8"/>
<path d="M600.359 835.02L1022.95 824.21" stroke="#325D84" stroke-width="7" stroke-miterlimit="10"/>
<path d="M429.93 498.47L603.31 836.76" stroke="#325D84" stroke-width="7" stroke-miterlimit="10"/>
</g>
<path d="M697.56 852.08L966.23 844.95" stroke="#0C66AC" stroke-width="0.75" stroke-miterlimit="10"/>
<path d="M651.2 871.1L824.76 865.16" stroke="#0F66AC" stroke-width="0.75" stroke-miterlimit="10"/>
<path d="M809.33 885.74L940.06 882.63" stroke="#0F66AC" stroke-width="0.75" stroke-miterlimit="10"/>
<path d="M704.69 912.71L834.28 910.33" stroke="#0F66AC" stroke-width="0.75" stroke-miterlimit="10"/>
<path d="M660.71 921.03C665.47 922.22 987.63 912.71 987.63 912.71" stroke="#0F66AC" stroke-width="0.75" stroke-miterlimit="10"/>
<path d="M666.65 954.319C676.16 954.319 907.98 947.189 907.98 947.189" stroke="#0F66AC" stroke-width="0.75" stroke-miterlimit="10"/>
<path d="M639.17 605.88C636.93 603.33 633.98 600.85 630.33 598.43C628.55 597.37 627.23 596.629 626.37 596.219C619.93 593.109 613.75 591.759 607.82 592.159H607.77C602.65 592.509 598.71 594.239 595.97 597.359C595.32 598.109 594.86 598.84 594.6 599.53H594.54L581.31 569.14L581.23 569.09L570.75 569.799L570.72 569.849L602.03 641.81L612.62 641.099L610.48 636.18C611.36 636.73 612.2 637.23 613 637.68C614.45 638.43 615.7 639 616.74 639.4C618.09 639.92 619.56 640.339 621.13 640.669C624.21 641.169 626.72 641.359 628.66 641.229L629.37 641.18C634.09 640.86 638.09 639.36 641.36 636.68C642.04 636.16 642.73 635.509 643.44 634.719C644.05 634.039 644.75 632.93 645.55 631.39C646.22 629.83 646.66 628.399 646.85 627.099C647.46 623.139 646.86 619.079 645.05 614.919C643.68 611.769 641.71 608.77 639.15 605.9L639.17 605.88ZM634.47 615.719C635.44 617.949 635.85 620.15 635.7 622.32C635.6 623.58 635.22 624.899 634.55 626.299C632.6 629.609 629.39 631.41 624.93 631.71C622.74 631.86 620.32 631.55 617.69 630.78C616.69 630.48 615.43 629.97 613.92 629.26L612.59 628.539C611.37 627.809 610.39 627.169 609.66 626.609C606.32 624.029 603.95 621.14 602.55 617.93L602.44 617.68C600.9 614.14 600.75 610.89 601.99 607.94C602.1 607.59 602.48 606.94 603.12 605.99C603.83 605.03 604.63 604.27 605.51 603.7C607.5 602.49 609.56 601.809 611.68 601.659C616.43 601.339 621.17 602.71 625.89 605.76C629.93 608.56 632.76 611.81 634.37 615.52L634.46 615.719H634.47Z" fill="white"/>
<path d="M634.59 565.479L645.07 564.77L645.15 564.82L676.44 636.729L676.4 636.78L665.92 637.49L665.85 637.44L634.56 565.53L634.59 565.479Z" fill="white"/>
<path d="M709.87 634.52L709.37 634.549C699.93 635.189 691.77 632.45 684.89 626.33C682.36 623.9 680.36 620.98 678.88 617.57L666.49 589.09L666.59 588.93L676.85 588.24L677.08 588.38L689.51 616.96C691.26 620.99 694.29 623.519 698.58 624.549C700.42 625.069 702.57 625.24 705.02 625.08L705.9 625.02C710.36 624.72 713.26 623.88 714.58 622.51C716.46 621.03 716.63 618.519 715.09 614.979L702.76 586.65L702.81 586.49L713.13 585.789L713.3 585.93L733.57 632.51L733.53 632.659L723.21 633.359L723.03 633.219L721.66 630.07H721.55C720.23 631.45 718.24 632.63 715.58 633.62C714.11 634.06 712.21 634.35 709.87 634.51V634.52Z" fill="white"/>
<path d="M774.63 592.49C773.04 591.01 770.58 589.29 767.24 587.32C760.63 583.82 754.66 582.25 749.32 582.61L747.73 582.719C742.86 583.049 738.74 585.03 735.35 588.67C731.11 594.42 730.67 601.14 734 608.81L734.09 609.01C736.52 614.58 740.61 619.59 746.39 624.03C754.41 629.67 762.2 632.229 769.73 631.719H769.95C777.26 631.209 782.38 627.949 785.29 621.909C786.08 619.489 786.49 617.69 786.5 616.51C786.4 616.45 782.65 615.349 775.24 613.219C775.14 613.259 775.02 613.839 774.87 614.969C773.52 619.479 770.46 621.899 765.71 622.219C761.94 622.469 757.96 621.27 753.75 618.62C751.06 617.01 748.52 614.48 746.15 611.03L785.44 608.38C785.59 608.38 785.46 607.91 785.06 606.99L784.42 605.51C782.41 600.89 779.15 596.55 774.64 592.5L774.63 592.49ZM769.85 600.2L743.24 602L743.33 600.12C744.48 595.15 747.56 592.489 752.57 592.159C755.86 591.939 759.36 592.8 763.07 594.74C766.23 596.72 768.48 598.529 769.83 600.159L769.85 600.21V600.2Z" fill="white"/>
<path d="M667.68 681.07C660.35 676.26 653.25 674.09 646.37 674.56C643.85 674.73 641.53 675.26 639.43 676.14C634.62 678.42 631.71 681.76 630.68 686.15H630.63L615.46 651.28L615.23 651.14L611.22 651.41L611.12 651.57L642.35 723.34L642.56 723.43L646.57 723.16L646.69 723.05L642.45 713.31H642.5L644.36 714.85C652.13 720.23 659.59 722.68 666.76 722.2L667.42 722.16C673.05 721.78 677.49 719.42 680.72 715.09C683.91 709.61 684.08 703.61 681.24 697.08L680.94 696.39C678.44 690.65 674.02 685.55 667.67 681.08L667.68 681.07ZM677.74 709.91C675.55 715.09 671.44 717.88 665.4 718.29C659.84 718.67 654.11 716.98 648.23 713.22C642.69 709.41 638.81 704.94 636.58 699.83C634.53 695.11 634.21 690.76 635.65 686.78C637.85 681.64 641.96 678.86 647.96 678.46C652.06 678.18 656.48 679.13 661.23 681.31C668.76 685.29 673.93 690.51 676.74 696.97C678.77 701.63 679.1 705.94 677.74 709.91Z" fill="white"/>
<path d="M724.13 678.27C716.55 672.98 709.2 670.57 702.06 671.05L701.79 671.07C695.68 671.48 691.14 673.98 688.16 678.57C685.28 683.73 685.24 689.52 688.04 695.94L688.13 696.14C690.44 701.45 694.32 706.2 699.76 710.39C707.47 715.81 714.92 718.28 722.13 717.79C728.39 717.37 732.97 714.92 735.87 710.43C738.82 705.17 738.93 699.41 736.2 693.14L735.9 692.45C733.66 687.3 729.74 682.57 724.13 678.26V678.27ZM732.27 706.83C729.97 711.24 726.08 713.63 720.59 714C716.56 714.27 712.24 713.33 707.61 711.18C700.19 707.29 695.09 702.14 692.29 695.71C690.49 691.58 690.1 687.57 691.13 683.69C693.23 678.22 697.35 675.27 703.5 674.86C708.91 674.49 714.52 676.16 720.3 679.85C725.76 683.57 729.59 687.97 731.81 693.05C734.02 698.13 734.18 702.73 732.27 706.84V706.83Z" fill="white"/>
<path d="M778.21 674.68C770.64 669.39 763.28 666.98 756.15 667.46L755.87 667.48C749.76 667.89 745.22 670.39 742.25 674.98C739.37 680.14 739.33 685.93 742.13 692.35L742.22 692.55C744.53 697.86 748.41 702.61 753.85 706.8C761.56 712.22 769.01 714.69 776.22 714.2C782.48 713.78 787.06 711.33 789.96 706.84C792.91 701.58 793.02 695.82 790.29 689.55L789.99 688.86C787.75 683.71 783.83 678.98 778.22 674.67L778.21 674.68ZM786.35 703.24C784.05 707.65 780.16 710.04 774.67 710.41C770.64 710.68 766.32 709.74 761.69 707.59C754.27 703.7 749.17 698.55 746.37 692.12C744.57 687.99 744.18 683.98 745.21 680.1C747.31 674.63 751.43 671.68 757.58 671.27C762.99 670.9 768.59 672.57 774.38 676.26C779.84 679.98 783.67 684.38 785.89 689.46C788.1 694.54 788.26 699.14 786.35 703.25V703.24Z" fill="white"/>
<path d="M777.88 641.43L781.89 641.16L782.12 641.3L803.22 689.8L820.58 664.53L826.84 664.11L826.88 664.21L812.27 685.55L812.29 685.6L847.45 710.72L847.51 710.87L841.97 711.24C841.64 711.09 837.7 708.27 830.15 702.77C818.14 694.2 811.52 689.43 810.31 688.46H810.2L805.59 695.26L813.32 713.02L813.22 713.18L809.21 713.45L808.98 713.31L777.78 641.59L777.88 641.43Z" fill="white"/>
<path d="M426.86 495.01L431.52 494.83L433.03 496.84L426.86 500.09V495.01Z" fill="#325D84"/>
<g clip-path="url(#clip1_380_5066)">
<path fill-rule="evenodd" clip-rule="evenodd" d="M294.884 548.95L232.66 520.763L222.432 543.342L210.999 538.163L237.389 479.907L248.821 485.086L238.593 507.665L300.817 535.852L294.884 548.95ZM318.41 500.798L251.005 456.132L266.523 432.713C274.919 420.043 288.028 411.207 302.312 420.671C312.03 427.111 314.431 437.327 310.28 448.136L352.096 449.961L342.514 464.423L303.593 461.118L297.786 469.882L326.352 488.811L318.41 500.798ZM287.99 463.391L294.492 453.578C298.974 446.814 302.468 438.024 294.273 432.594C286.937 427.733 280.328 433.773 276.226 439.966L269.029 450.826L287.99 463.391ZM355.09 445.197L320.693 364.001L329.267 354.976L411.883 385.413L400.557 397.336L381.948 390.055L357.8 415.477L366.182 433.522L355.09 445.197ZM352.249 403.429L369.553 385.212L337.127 371.58L352.249 403.429ZM421.326 377.996L374.243 312.257L397.546 295.568C414.732 283.259 439.7 277.728 457.394 302.434C473.894 325.471 461.815 348.998 444.628 361.307L421.326 377.996ZM425.708 359.42L435.462 352.434C447.539 343.785 457.576 329.147 444.869 311.405C431.364 292.547 414.94 298.267 402.863 306.917L393.108 313.903L425.708 359.42ZM498.86 326.926L461.573 255.176L474.331 248.546L511.618 320.296L498.86 326.926ZM532.351 309.123L505.826 232.736L523.835 226.483L579.209 271.342L579.425 271.267L559.564 214.076L573.148 209.358L599.673 285.744L582.42 291.736L525.654 245.305L525.438 245.379L545.935 304.406L532.351 309.123ZM684.473 225.739L690.032 267.283C682.515 272.203 673.214 275.865 660.642 277.547C634.82 281.001 614.515 266.097 611.167 241.071C607.728 215.364 624.345 196.672 649.035 193.37C661.72 191.673 673.581 194.23 680.829 199.362L672.414 211.323C667.735 207.336 659.435 204.756 650.828 205.908C633.953 208.166 624.679 222.437 626.891 238.967C629.178 256.062 641.718 267.07 659.386 264.706C665.389 263.903 670.59 262.284 674.976 259.737L672.248 239.346L655.373 241.603L653.8 229.843L684.473 225.739Z" fill="white"/>
<path fill-rule="evenodd" clip-rule="evenodd" d="M748.024 271.053L760.952 191.232L783.153 194.828L794.723 254.895L795.06 254.949L824.772 201.569L847.087 205.183L834.159 285.004L820.078 282.723L830.469 218.563L830.244 218.526L795.603 278.759L785.678 277.152L772.158 209.118L771.932 209.082L761.54 273.242L748.024 271.053ZM854.39 292.194L882.827 216.498L932.965 235.334L928.551 247.084L891.873 233.304L884.638 252.565L919.39 265.622L915.138 276.943L880.384 263.887L872.345 285.287L910.947 299.789L906.453 311.753L854.39 292.194ZM922.94 318.367L965.73 249.756L984.814 261.658L972.255 321.525L972.545 321.706L1020.59 283.968L1039.77 295.931L996.979 364.542L984.875 356.994L1019.27 301.842L1019.08 301.722L963.837 343.873L955.306 338.552L969.148 270.584L968.954 270.463L934.559 325.614L922.94 318.367ZM1012.88 378.823L1068.5 320.13L1091.38 341.812C1100.25 350.222 1105.52 362.915 1095.38 373.609C1089.09 380.247 1080.79 380.716 1073.01 376.807L1072.86 376.972C1079.29 384.956 1079.88 394.95 1072.41 402.832C1060.31 415.6 1045.13 409.387 1034.02 398.854L1012.88 378.823ZM1070.77 338.633L1056.31 353.899L1065.6 362.704C1072.57 369.308 1079.05 369.941 1083.85 364.88C1088.8 359.653 1087.03 354.041 1079.15 346.573L1070.77 338.633ZM1047.83 362.844L1031.63 379.935L1041.01 388.818C1046.4 393.927 1055.14 400.159 1062.45 392.443C1068.27 386.304 1066.08 380.137 1057.62 372.121L1047.83 362.844ZM1068.56 434.416L1133.09 385.685L1165.36 428.426L1155.35 435.99L1131.74 404.723L1115.32 417.123L1137.69 446.749L1128.04 454.037L1105.67 424.412L1087.42 438.189L1112.28 471.096L1102.08 478.798L1068.56 434.416ZM1112.04 494.93L1183.67 457.405L1196.71 482.29C1203.76 495.754 1205.18 511.5 1190.01 519.451C1179.68 524.862 1169.57 522.04 1162.1 513.192L1140.35 548.95L1132.29 533.582L1153.95 501.076L1149.07 491.764L1118.72 507.667L1112.04 494.93ZM1159.48 486.31L1164.95 496.737C1168.71 503.925 1174.73 511.223 1183.44 506.661C1191.23 502.577 1189.12 493.875 1185.68 487.294L1179.63 475.754L1159.48 486.31Z" fill="white"/>
<path fill-rule="evenodd" clip-rule="evenodd" d="M326.237 1012.65L321.324 1011.63C322.504 1006.7 321.635 1001.49 318.205 996.269C311.113 985.463 298.197 984.426 288.402 990.856C278.61 997.283 274.483 1009.51 281.576 1020.31C284.693 1025.06 288.549 1028.48 291.75 1029.86L304.517 1021.48L298.087 1011.68L301.82 1009.23L311.051 1023.29L292.116 1035.72C286.394 1032.95 281.486 1028.44 277.745 1022.74C269.405 1010.04 272.685 994.727 285.445 986.351C298.21 977.973 313.676 981.232 321.899 993.759C326.263 1000.41 327.404 1006.8 326.237 1012.65ZM354.55 1077.82C342.973 1087.77 327.218 1086.54 317.449 1075.18C307.68 1063.81 308.817 1048.05 320.394 1038.1C331.971 1028.14 347.727 1029.38 357.495 1040.74C367.265 1052.1 366.127 1067.87 354.55 1077.82ZM351.038 1073.74C359.923 1066.1 362.537 1053.45 354.11 1043.65C345.684 1033.85 332.791 1034.54 323.906 1042.18C315.022 1049.82 312.461 1062.42 320.887 1072.22C329.314 1082.02 342.153 1081.38 351.038 1073.74ZM388.337 1075.19L357.154 1108.63L374.289 1124.61L371.196 1127.93L350.328 1108.47L384.605 1071.71L388.337 1075.19ZM384.422 1139.25L414.718 1099.15L428.027 1109.2C438.056 1116.78 444.053 1131.8 433.951 1145.17C423.848 1158.54 407.761 1156.88 397.731 1149.3L384.422 1139.25ZM416.056 1105.84L391.228 1138.7L399.331 1144.83C411.401 1153.95 423.402 1150.19 429.652 1141.92C435.902 1133.65 436.229 1121.08 424.16 1111.96L416.056 1105.84Z" fill="white"/>
<path fill-rule="evenodd" clip-rule="evenodd" d="M504.862 1162.9L499.761 1163.88C499.317 1160.19 497.18 1156.8 492.98 1154.56C488.592 1152.22 482.112 1152.15 479.073 1157.85C476.068 1163.49 480.001 1167.44 484.085 1171.71C489.251 1177.11 495.069 1182.79 490.328 1191.69C485.586 1200.59 476.069 1200.49 469.048 1196.75C463.657 1193.88 459.437 1188.82 458.581 1182.74L463.997 1181.92C464.267 1186.09 466.538 1190.44 471.177 1192.91C475.753 1195.35 482.554 1195.27 485.593 1189.57C488.899 1183.36 484.531 1179.02 479.825 1174.26C474.9 1169.31 470.261 1163.53 474.535 1155.51C479.11 1146.93 488.681 1147.37 495.201 1150.84C501.156 1154.02 504.27 1158.89 504.862 1162.9ZM533.949 1175.5L516.267 1217.66L511.561 1215.69L529.243 1173.52L513.725 1167.02L515.478 1162.83L551.221 1177.82L549.467 1182L533.949 1175.5ZM552.672 1217.41L543.541 1228.4L538.185 1226.74L573.812 1185.17L578.559 1186.64L584.293 1241.03L578.868 1239.35L577.488 1225.1L552.672 1217.41ZM574.371 1191.28L555.887 1213.51L577.043 1220.06L574.371 1191.28ZM616.709 1196.73L637.751 1244.12L637.891 1244.15L645.626 1202.04L650.647 1202.96L641.565 1252.4L635.289 1251.24L614.322 1203.43L614.183 1203.4L606.37 1245.93L601.35 1245.01L610.432 1195.57L616.709 1196.73ZM664.968 1255.21L667.967 1205.04L684.616 1206.03C697.164 1206.78 710.479 1215.96 709.478 1232.69C708.479 1249.42 694.166 1256.95 681.617 1256.2L664.968 1255.21ZM672.79 1209.87L670.332 1250.99L680.471 1251.59C695.571 1252.49 703.482 1242.72 704.101 1232.37C704.719 1222.02 698.028 1211.38 682.927 1210.48L672.79 1209.87ZM731.29 1244.12L726.525 1257.6L720.924 1257.89L739.977 1206.56L744.939 1206.3L769.13 1255.36L763.458 1255.66L757.235 1242.76L731.29 1244.12ZM742.614 1212.1L732.959 1239.35L755.076 1238.19L742.614 1212.1ZM787.481 1229.03L791.194 1252.24L786.155 1253.04L778.215 1203.42L792.793 1201.08C802.612 1199.51 810.326 1201.94 811.875 1211.62C813.053 1218.98 808.332 1224.48 801.231 1226.4L819.518 1247.71L813.356 1248.69L795.898 1227.69L787.481 1229.03ZM783.948 1206.95L786.788 1224.7L795.554 1223.29C803.62 1222 807.778 1218.32 806.835 1212.42C805.791 1205.9 800.43 1204.31 792.926 1205.51L783.948 1206.95ZM837.757 1243.8L824.369 1195.36L840.445 1190.92C852.561 1187.57 868.13 1191.95 872.594 1208.1C877.059 1224.26 865.95 1236.01 853.834 1239.36L837.757 1243.8ZM830.495 1198.37L841.468 1238.07L851.257 1235.37C865.838 1231.34 870.163 1219.53 867.401 1209.54C864.639 1199.54 854.864 1191.64 840.284 1195.66L830.495 1198.37Z" fill="white"/>
<path fill-rule="evenodd" clip-rule="evenodd" d="M929.831 1162.53L927.511 1167.18C924.311 1165.29 920.311 1164.93 915.981 1166.9C911.461 1168.97 907.471 1174.07 910.151 1179.95C912.811 1185.77 918.331 1185.04 924.201 1184.39C931.641 1183.57 939.681 1182.39 943.871 1191.56C948.061 1200.74 942.211 1208.24 934.971 1211.55C929.411 1214.08 922.831 1214.36 917.481 1211.35L920.121 1206.55C923.591 1208.87 928.431 1209.7 933.211 1207.52C937.921 1205.37 942.001 1199.91 939.311 1194.04C936.391 1187.64 930.291 1188.48 923.651 1189.32C916.721 1190.22 909.321 1190.4 905.541 1182.14C901.501 1173.29 907.661 1165.95 914.381 1162.88C920.521 1160.08 926.281 1160.57 929.831 1162.53ZM959.941 1170.85L969.661 1187.63L992.951 1174.14L995.221 1178.06L967.521 1194.11L942.331 1150.62L969.291 1135L971.561 1138.92L949.021 1151.99L957.701 1166.98L978.781 1154.78L981.011 1158.64L959.941 1170.85ZM1002 1145.24L1015.72 1164.32L1011.58 1167.3L982.241 1126.49L994.221 1117.87C1002.3 1112.07 1010.28 1110.78 1016 1118.74C1020.36 1124.79 1018.6 1131.82 1013.11 1136.72L1039.01 1147.57L1033.94 1151.21L1008.92 1140.26L1002 1145.24ZM988.951 1127.08L999.441 1141.67L1006.65 1136.49C1013.28 1131.72 1015.34 1126.56 1011.86 1121.71C1008 1116.35 1002.5 1117.34 996.331 1121.77L988.951 1127.08ZM1018.65 1099.42L1059.77 1121.39L1059.87 1121.3L1043.26 1077.74L1047.36 1074.13L1066.15 1124.56L1062.1 1128.12L1014.5 1103.08L1018.65 1099.42ZM1059.17 1061.6L1095.18 1096.67L1091.62 1100.32L1055.61 1065.26L1059.17 1061.6ZM1126.88 1043.98L1131.38 1042.53C1133.15 1048.31 1132.38 1056.05 1126.65 1063.01C1116.99 1074.74 1101.4 1076.15 1089.62 1066.44C1077.83 1056.74 1076.36 1041 1085.88 1029.44C1090.58 1023.74 1097.39 1020.25 1103.39 1020.67L1103.09 1025.95C1099.22 1025.52 1093.43 1027.29 1089.37 1032.22C1081.11 1042.25 1084 1054.83 1093.04 1062.28C1102.09 1069.73 1115.04 1070.09 1123.25 1060.12C1126.91 1055.68 1128.67 1049.96 1126.88 1043.98ZM1131.12 1014.95L1147.32 1025.61L1162.11 1003.13L1165.9 1005.63L1148.31 1032.37L1106.32 1004.75L1123.45 978.705L1127.23 981.205L1112.91 1002.97L1127.39 1012.5L1140.78 992.155L1144.51 994.605L1131.12 1014.95Z" fill="white"/>
</g>
</g>
<defs>
<filter id="filter0_d_380_5066" x="419.815" y="472.95" width="624.305" height="532.41" filterUnits="userSpaceOnUse" color-interpolation-filters="sRGB">
<feFlood flood-opacity="0" result="BackgroundImageFix"/>
<feColorMatrix in="SourceAlpha" type="matrix" values="0 0 0 0 0 0 0 0 0 0 0 0 0 0 0 0 0 0 127 0" result="hardAlpha"/>
<feOffset dx="7" dy="7"/>
<feGaussianBlur stdDeviation="7"/>
<feColorMatrix type="matrix" values="0 0 0 0 0.113725 0 0 0 0 0.2 0 0 0 0 0.376471 0 0 0 0.32 0"/>
<feBlend mode="normal" in2="BackgroundImageFix" result="effect1_dropShadow_380_5066"/>
<feBlend mode="normal" in="SourceGraphic" in2="effect1_dropShadow_380_5066" result="shape"/>
</filter>
<linearGradient id="paint0_linear_380_5066" x1="0.709961" y1="725" x2="1449.29" y2="725" gradientUnits="userSpaceOnUse">
<stop stop-color="#0B65AB"/>
<stop offset="1" stop-color="#173F6D"/>
</linearGradient>
<linearGradient id="paint1_linear_380_5066" x1="426.88" y1="732.24" x2="1023" y2="732.24" gradientUnits="userSpaceOnUse">
<stop stop-color="#0B65AB"/>
<stop offset="1" stop-color="#173F6D"/>
</linearGradient>
<linearGradient id="paint2_linear_380_5066" x1="590.029" y1="896.781" x2="1007.84" y2="896.781" gradientUnits="userSpaceOnUse">
<stop stop-color="white"/>
<stop offset="1" stop-color="#E1E1DE"/>
</linearGradient>
<clipPath id="clip0_380_5066">
<rect width="1450" height="1450" fill="white"/>
</clipPath>
<clipPath id="clip1_380_5066">
<rect width="1029" height="1291" fill="white" transform="translate(211 80)"/>
</clipPath>
</defs>
</svg>
