<?xml version="1.0" encoding="UTF-8" standalone="no"?>
<!DOCTYPE svg PUBLIC "-//W3C//DTD SVG 1.1//EN" "http://www.w3.org/Graphics/SVG/1.1/DTD/svg11.dtd">
<svg width="100%" height="100%" viewBox="0 0 1838 598" version="1.1" xmlns="http://www.w3.org/2000/svg" xmlns:xlink="http://www.w3.org/1999/xlink" xml:space="preserve" xmlns:serif="http://www.serif.com/" style="fill-rule:evenodd;clip-rule:evenodd;stroke-linejoin:round;stroke-miterlimit:2;">
    <g transform="matrix(1,0,0,1,-2469.8,-104)">
        <g id="blue_book_logo_outline_black" transform="matrix(0.881493,0,0,0.713598,2469.8,104)">
            <rect x="0" y="0" width="2084.27" height="837.984" style="fill:none;"/>
            <g id="Layer-1" serif:id="Layer 1" transform="matrix(1.13444,0,0,1.40135,-139.027,-167.066)">
                <g transform="matrix(1,0,0,1,650.545,447.349)">
                    <path d="M0,-58.45C-4.993,-66.777 -6.819,-75.497 -4.719,-85.348C-0.381,-105.607 -5.617,-123.506 -21.523,-136.902C-31.326,-145.152 -36.912,-154.724 -39.134,-167.161C-42.681,-186.996 -54.615,-200.421 -73.489,-207.088C-84.631,-211.015 -92.318,-217.908 -98.224,-228.062C-108.787,-246.266 -125.166,-255.43 -146.278,-255.095C-156.476,-254.944 -165.213,-257.607 -172.931,-264.335C-189.948,-279.175 -209.112,-282.678 -230.193,-274.319C-239.068,-270.803 -247.865,-270.379 -256.724,-273.971C-278.43,-282.768 -297.472,-278.719 -315.738,-264.136C-316.392,-263.618 -317.062,-263.116 -317.777,-262.644L-317.779,-262.644L-317.564,-228.033L-316.94,-72.895L-316.681,-72.895C-314.185,-76.245 -310.775,-79.7 -306.437,-83.231C-288.248,-97.859 -267.44,-105.225 -244.015,-105.318L-243.756,-105.318C-216.646,-105.44 -191.759,-96.747 -169.08,-79.272C-166.065,-76.931 -161.621,-72.849 -155.73,-67.021C-144.132,-53.838 -135.79,-40.58 -130.706,-27.2C-124.8,-12.161 -121.802,3.38 -121.741,19.452C-121.65,40.718 -126.764,61.068 -137.054,80.52C-140.387,86.898 -145.03,93.855 -151.027,101.42C-157.527,108.801 -162.778,114.099 -166.781,117.296C-171.454,120.994 -175.792,124.024 -179.795,126.382C-199.492,138.681 -220.147,144.878 -241.731,144.968L-245.004,144.984C-253.863,145.014 -264.67,143.309 -277.395,139.839C-283.773,137.693 -289.465,135.12 -294.504,132.122C-298.37,129.807 -302.815,126.552 -307.853,122.394C-310.532,119.898 -313.318,117.144 -316.164,114.146L-316.073,139.244L-364.522,139.443L-365.969,-249.692C-376.304,-244.774 -384.752,-236.723 -391.814,-225.428C-396.168,-218.442 -403.596,-211.485 -411.146,-208.732C-433.354,-200.678 -445.013,-185.639 -450.082,-163.035C-451.985,-154.559 -457.434,-145.486 -463.949,-139.687C-480.677,-124.725 -487.359,-107.145 -483.067,-85.438C-481.057,-75.329 -482.945,-66.304 -488.075,-57.675C-499.263,-38.86 -499.445,-19.986 -488.303,-1.11C-483.036,7.793 -480.997,17.033 -483.128,27.474C-487.268,47.749 -481.956,65.619 -466.019,78.986C-456.46,86.991 -450.797,96.245 -448.666,108.406C-445.074,128.987 -432.836,142.656 -413.216,149.413C-403.261,152.855 -395.97,158.866 -390.795,167.968C-379.881,187.224 -363.213,197.072 -341.051,196.828C-330.853,196.722 -322.146,199.598 -314.459,206.31C-297.67,220.954 -278.658,224.273 -257.973,216.161C-248.413,212.401 -239.341,212.414 -229.828,216.161C-209.096,224.318 -190.1,220.802 -173.296,206.326C-165.548,199.659 -156.948,196.236 -144.147,197.102C-125.12,196.584 -109.107,187.285 -97.173,168.898C-92.226,161.256 -84.387,153.585 -76.138,150.343C-54.599,141.91 -41.92,127.449 -38.16,104.967C-36.486,94.875 -31.615,87.036 -23.73,80.69C-6.606,66.851 -0.304,48.785 -4.642,27.461C-6.728,17.246 -4.932,8.295 0.198,-0.289C11.812,-19.742 11.599,-39.072 0,-58.45" style="fill:rgb(29,29,29);fill-rule:nonzero;"/>
                </g>
                <g transform="matrix(1,0,0,1,358.324,410.073)">
                    <path d="M0,114.159L4.536,118.163C9.909,122.151 14.521,125.072 18.387,126.886C28.601,131.543 38.738,133.84 48.785,133.795C69.196,133.718 86.914,125.773 101.907,109.974C107.57,103.262 111.816,96.807 114.632,90.596C119.442,79.866 121.832,68.815 121.787,57.43L121.771,56.426C121.695,37.521 115.363,20.471 102.729,5.297C87.599,-11.386 69.166,-19.681 47.399,-19.591C37.704,-19.546 27.246,-16.822 16.059,-11.432C11.051,-8.89 6.043,-5.359 1.035,-0.824C-3.638,3.714 -6.545,6.818 -7.717,8.507C-18.86,22.771 -24.4,38.952 -24.339,57.018L-24.324,58.282C-24.263,74.675 -19.27,89.805 -9.331,103.658C-7.139,106.655 -4.034,110.155 0,114.159" style="fill:rgb(29,29,29);fill-rule:nonzero;"/>
                </g>
                <g transform="matrix(1,0,0,1,1586.23,568.893)">
                    <path d="M0,-34.138C-1.092,-35.655 -2.489,-36.876 -4.196,-37.8C-5.903,-38.725 -7.966,-39.187 -10.384,-39.187C-11.617,-39.187 -12.873,-38.997 -14.153,-38.618C-15.434,-38.239 -16.596,-37.659 -17.639,-36.876C-18.682,-36.093 -19.522,-35.109 -20.163,-33.924C-20.803,-32.739 -21.123,-31.339 -21.123,-29.728C-21.123,-28.116 -20.816,-26.787 -20.202,-25.745C-19.587,-24.702 -18.771,-23.813 -17.755,-23.078C-16.738,-22.343 -15.579,-21.739 -14.279,-21.265C-12.979,-20.79 -11.619,-20.316 -10.2,-19.842C-8.451,-19.274 -6.691,-18.657 -4.918,-17.993C-3.144,-17.328 -1.548,-16.464 -0.129,-15.398C1.289,-14.33 2.448,-12.979 3.346,-11.343C4.244,-9.707 4.693,-7.633 4.693,-5.12C4.693,-2.607 4.214,-0.438 3.256,1.387C2.297,3.213 1.052,4.718 -0.479,5.903C-2.01,7.09 -3.759,7.966 -5.726,8.535C-7.693,9.104 -9.673,9.388 -11.664,9.388C-13.182,9.388 -14.699,9.234 -16.216,8.926C-17.733,8.617 -19.18,8.155 -20.554,7.539C-21.93,6.924 -23.21,6.141 -24.395,5.192C-25.58,4.244 -26.624,3.154 -27.524,1.921L-23.114,-1.351C-22.024,0.452 -20.495,1.956 -18.527,3.165C-16.561,4.375 -14.249,4.979 -11.593,4.979C-10.313,4.979 -9.009,4.778 -7.682,4.375C-6.354,3.972 -5.156,3.355 -4.09,2.525C-3.022,1.696 -2.146,0.675 -1.458,-0.534C-0.771,-1.742 -0.427,-3.153 -0.427,-4.765C-0.427,-6.518 -0.771,-7.976 -1.458,-9.139C-2.146,-10.3 -3.059,-11.273 -4.196,-12.055C-5.334,-12.837 -6.639,-13.489 -8.108,-14.01C-9.578,-14.532 -11.119,-15.053 -12.73,-15.576C-14.392,-16.096 -16.027,-16.689 -17.639,-17.353C-19.251,-18.017 -20.696,-18.882 -21.977,-19.95C-23.257,-21.016 -24.288,-22.331 -25.07,-23.897C-25.853,-25.461 -26.244,-27.381 -26.244,-29.658C-26.244,-32.075 -25.758,-34.161 -24.786,-35.915C-23.814,-37.669 -22.546,-39.117 -20.98,-40.254C-19.416,-41.392 -17.686,-42.221 -15.789,-42.743C-13.894,-43.265 -12.02,-43.526 -10.171,-43.526C-6.757,-43.526 -3.841,-42.921 -1.423,-41.712C0.995,-40.503 2.82,-39.069 4.054,-37.409L0,-34.138ZM15.718,-42.246L20.838,-42.246L20.838,8.108L15.718,8.108L15.718,-42.246ZM69.911,0.64L70.054,0.64L70.054,-42.246L75.175,-42.246L75.175,8.108L68.773,8.108L39.472,-35.205L39.329,-35.205L39.329,8.108L34.209,8.108L34.209,-42.246L40.609,-42.246L69.911,0.64ZM130.933,-0.071C130.079,1.209 129.048,2.419 127.839,3.559C126.63,4.7 125.231,5.704 123.643,6.571C122.054,7.438 120.3,8.123 118.38,8.63C116.46,9.134 114.362,9.388 112.086,9.388C108.292,9.388 104.784,8.723 101.56,7.397C98.335,6.07 95.562,4.232 93.239,1.885C90.915,-0.463 89.102,-3.247 87.798,-6.472C86.494,-9.696 85.842,-13.228 85.842,-17.069C85.842,-20.91 86.506,-24.441 87.834,-27.666C89.161,-30.89 90.998,-33.675 93.346,-36.023C95.693,-38.37 98.466,-40.207 101.667,-41.535C104.868,-42.861 108.34,-43.526 112.086,-43.526C113.935,-43.526 115.748,-43.333 117.527,-42.948C119.305,-42.562 120.976,-42.02 122.541,-41.322C124.106,-40.624 125.528,-39.785 126.808,-38.806C128.088,-37.828 129.155,-36.721 130.008,-35.489L125.742,-32.36C125.219,-33.166 124.52,-33.971 123.643,-34.778C122.765,-35.584 121.734,-36.295 120.549,-36.912C119.364,-37.527 118.072,-38.025 116.673,-38.405C115.275,-38.784 113.769,-38.974 112.158,-38.974C108.886,-38.974 105.957,-38.384 103.373,-37.202C100.789,-36.019 98.596,-34.425 96.795,-32.417C94.993,-30.408 93.618,-28.081 92.67,-25.433C91.721,-22.787 91.247,-19.999 91.247,-17.069C91.247,-14.138 91.734,-11.35 92.705,-8.704C93.677,-6.056 95.064,-3.729 96.867,-1.721C98.667,0.287 100.86,1.882 103.445,3.064C106.029,4.246 108.932,4.836 112.158,4.836C115.049,4.836 117.799,4.243 120.408,3.058C123.014,1.873 125.196,-0.023 126.951,-2.632L130.933,-0.071ZM144.871,3.556L171.826,3.556L171.826,8.108L139.751,8.108L139.751,-42.246L170.973,-42.246L170.973,-37.694L144.871,-37.694L144.871,-20.412L169.266,-20.412L169.266,-15.86L144.871,-15.86L144.871,3.556ZM218.41,8.108L213.29,8.108L213.29,-35.915L204.186,-28.163L201.056,-31.72L213.858,-42.246L218.41,-42.246L218.41,8.108ZM261.295,-13.868L261.153,-14.01C260.394,-13.441 259.327,-12.99 257.952,-12.659C256.577,-12.326 255.25,-12.161 253.97,-12.161C251.788,-12.161 249.762,-12.54 247.889,-13.299C246.016,-14.057 244.391,-15.112 243.017,-16.464C241.641,-17.815 240.563,-19.451 239.781,-21.371C238.999,-23.291 238.607,-25.39 238.607,-27.665C238.607,-29.988 239.01,-32.134 239.816,-34.102C240.622,-36.068 241.761,-37.74 243.23,-39.116C244.699,-40.49 246.431,-41.569 248.423,-42.352C250.414,-43.134 252.594,-43.525 254.966,-43.525C257.336,-43.525 259.517,-43.134 261.509,-42.352C263.5,-41.569 265.23,-40.49 266.7,-39.116C268.17,-37.74 269.307,-36.068 270.114,-34.102C270.92,-32.134 271.323,-29.988 271.323,-27.665C271.323,-25.058 270.872,-22.64 269.972,-20.411C269.071,-18.182 268.004,-16.048 266.771,-14.01L253.045,8.108L247.142,8.108L261.295,-13.868ZM266.203,-27.665C266.203,-29.276 265.93,-30.795 265.385,-32.217C264.839,-33.64 264.069,-34.859 263.073,-35.88C262.077,-36.898 260.891,-37.704 259.517,-38.298C258.141,-38.891 256.625,-39.186 254.966,-39.186C253.306,-39.186 251.788,-38.891 250.414,-38.298C249.038,-37.704 247.853,-36.898 246.857,-35.88C245.862,-34.859 245.091,-33.64 244.546,-32.217C244.001,-30.795 243.728,-29.276 243.728,-27.665C243.728,-26.053 243.988,-24.547 244.511,-23.149C245.032,-21.75 245.778,-20.541 246.751,-19.522C247.723,-18.502 248.908,-17.708 250.307,-17.14C251.705,-16.57 253.259,-16.286 254.966,-16.286C256.673,-16.286 258.224,-16.57 259.624,-17.14C261.021,-17.708 262.208,-18.502 263.18,-19.522C264.151,-20.541 264.898,-21.75 265.42,-23.149C265.941,-24.547 266.203,-26.053 266.203,-27.665ZM296.037,-43.526C299.159,-43.526 301.773,-42.754 303.879,-41.214C305.983,-39.673 307.675,-37.659 308.953,-35.169C310.229,-32.68 311.14,-29.846 311.684,-26.67C312.228,-23.493 312.501,-20.269 312.501,-16.998C312.501,-13.726 312.228,-10.513 311.684,-7.361C311.14,-4.208 310.229,-1.387 308.953,1.102C307.675,3.591 305.983,5.595 303.879,7.112C301.773,8.629 299.159,9.388 296.037,9.388C292.866,9.388 290.228,8.629 288.123,7.112C286.018,5.595 284.327,3.591 283.05,1.102C281.771,-1.387 280.872,-4.208 280.352,-7.361C279.832,-10.513 279.572,-13.726 279.572,-16.998C279.572,-20.269 279.832,-23.493 280.352,-26.67C280.872,-29.846 281.771,-32.68 283.05,-35.169C284.327,-37.659 286.018,-39.673 288.123,-41.214C290.228,-42.754 292.866,-43.526 296.037,-43.526ZM296.037,-39.187C293.801,-39.187 291.946,-38.5 290.472,-37.124C288.997,-35.749 287.831,-33.996 286.975,-31.862C286.12,-29.728 285.525,-27.346 285.192,-24.714C284.858,-22.083 284.693,-19.51 284.693,-16.998C284.693,-14.484 284.858,-11.923 285.192,-9.317C285.525,-6.708 286.12,-4.349 286.975,-2.24C287.831,-0.13 288.997,1.6 290.472,2.952C291.946,4.303 293.801,4.979 296.037,4.979C298.224,4.979 300.055,4.303 301.529,2.952C303.004,1.6 304.17,-0.13 305.025,-2.24C305.882,-4.349 306.488,-6.708 306.845,-9.317C307.201,-11.923 307.381,-14.484 307.381,-16.998C307.381,-19.51 307.201,-22.083 306.845,-24.714C306.488,-27.346 305.882,-29.728 305.025,-31.862C304.17,-33.996 303.004,-35.749 301.529,-37.124C300.055,-38.5 298.224,-39.187 296.037,-39.187ZM342.157,8.108L337.037,8.108L337.037,-35.915L327.933,-28.163L324.803,-31.72L337.605,-42.246L342.157,-42.246L342.157,8.108Z" style="fill:rgb(29,29,29);"/>
                </g>
                <g transform="matrix(1,0,0,1,1818.19,492.328)">
                    <path d="M0,-234.747L11.514,-234.747L11.99,-234.274L11.99,-78.722L91.181,-153.816L109.17,-153.816L109.17,-153.5L42.435,-90.081L42.435,-89.923L110.113,-4.259L110.113,-3.786L94.181,-3.786C93.443,-4.31 85.871,-13.934 71.463,-32.656C48.328,-61.893 35.65,-78.142 33.445,-81.404L33.126,-81.404L11.99,-61.211L11.99,-4.259L11.514,-3.786L0,-3.786L-0.475,-4.259L-0.475,-234.274L0,-234.747ZM-96.256,-153.658L-95.461,-153.658C-74.956,-153.658 -57.336,-144.613 -42.617,-126.523C-32.201,-111.903 -26.997,-96.338 -26.997,-79.826L-26.997,-77.618C-26.997,-57.529 -34.307,-39.597 -48.927,-23.821C-62.491,-10.463 -78.267,-3.786 -96.256,-3.786C-116.973,-3.786 -134.798,-13.04 -149.73,-31.552C-159.827,-45.75 -164.875,-61.368 -164.875,-78.406L-164.875,-79.037C-164.875,-99.651 -157.729,-117.689 -143.42,-133.149C-129.537,-146.821 -113.818,-153.658 -96.256,-153.658ZM-152.73,-78.88C-152.73,-58.264 -144.739,-41.122 -128.75,-27.45C-118.44,-19.771 -107.508,-15.933 -95.936,-15.933C-80.16,-15.933 -66.384,-22.559 -54.607,-35.811C-44.297,-48.221 -39.142,-62.577 -39.142,-78.88C-39.142,-95.18 -44.51,-109.694 -55.238,-122.422C-66.908,-135.147 -80.529,-141.511 -96.092,-141.511C-113.761,-141.511 -128.857,-133.201 -141.371,-116.584C-148.943,-104.699 -152.73,-92.132 -152.73,-78.88ZM-255.67,-153.658L-254.883,-153.658C-234.37,-153.658 -216.758,-144.613 -202.031,-126.523C-191.615,-111.903 -186.411,-96.338 -186.411,-79.826L-186.411,-77.618C-186.411,-57.529 -193.721,-39.597 -208.342,-23.821C-221.905,-10.463 -237.681,-3.786 -255.67,-3.786C-276.387,-3.786 -294.221,-13.04 -309.152,-31.552C-319.249,-45.75 -324.297,-61.368 -324.297,-78.406L-324.297,-79.037C-324.297,-99.651 -317.143,-117.689 -302.842,-133.149C-288.959,-146.821 -273.232,-153.658 -255.67,-153.658ZM-312.144,-78.88C-312.144,-58.264 -304.153,-41.122 -288.164,-27.45C-277.863,-19.771 -266.922,-15.933 -255.35,-15.933C-239.574,-15.933 -225.798,-22.559 -214.021,-35.811C-203.711,-48.221 -198.556,-62.577 -198.556,-78.88C-198.556,-95.18 -203.924,-109.694 -214.652,-122.422C-226.322,-135.147 -239.951,-141.511 -255.514,-141.511C-273.183,-141.511 -288.271,-133.201 -300.785,-116.584C-308.358,-104.699 -312.144,-92.132 -312.144,-78.88ZM-484.434,-234.747L-472.92,-234.747L-472.444,-234.274L-472.444,-122.422L-472.289,-122.422C-464.085,-135.882 -451.882,-145.664 -435.688,-151.765C-428.747,-154.078 -421.641,-155.236 -414.388,-155.236C-394.613,-155.236 -377.419,-146.979 -362.799,-130.467C-350.498,-115.216 -344.343,-98.389 -344.343,-79.984L-344.343,-77.775C-344.343,-56.844 -352.128,-38.178 -367.691,-21.77C-381.992,-8.939 -397.244,-2.524 -413.438,-2.524L-415.331,-2.524C-435.95,-2.524 -453.824,-11.725 -468.969,-30.132L-472.289,-35.338L-472.444,-35.338L-472.444,-4.101L-472.92,-3.786L-484.434,-3.786L-484.909,-4.101L-484.909,-234.274L-484.434,-234.747ZM-472.444,-78.564C-472.444,-62.157 -467.027,-47.432 -456.193,-34.391C-444.31,-21.455 -430.378,-14.987 -414.388,-14.987C-397.031,-14.987 -382.148,-22.821 -369.74,-38.493C-361.119,-50.587 -356.808,-64.101 -356.808,-79.037C-356.808,-99.755 -364.905,-117.109 -381.099,-131.098C-391.72,-138.88 -402.923,-142.773 -414.7,-142.773C-431.951,-142.773 -446.785,-134.989 -459.192,-119.424C-468.027,-107.328 -472.444,-93.709 -472.444,-78.564ZM-595.623,-157.287L-591.05,-157.287C-575.7,-157.287 -560.916,-151.134 -546.721,-138.829C-539.78,-131.992 -534.994,-126.101 -532.363,-121.16C-524.692,-107.592 -520.849,-93.394 -520.849,-78.564L-520.849,-73.831C-520.849,-70.885 -521.062,-69.414 -521.48,-69.414L-634.436,-69.414C-632.018,-58.16 -628.019,-49.745 -622.446,-44.172C-613.923,-35.022 -604.253,-30.447 -593.418,-30.447C-579.749,-30.447 -568.283,-37.335 -559.022,-51.114C-557.236,-54.585 -556.187,-56.371 -555.867,-56.478C-537.78,-48.274 -528.634,-44.066 -528.421,-43.857C-529.896,-40.175 -533.207,-34.654 -538.362,-27.292C-553.818,-9.096 -572.069,0 -593.099,0L-593.73,0C-615.398,0 -634.018,-9.623 -649.581,-28.87C-660.309,-43.908 -665.669,-60.368 -665.669,-78.249L-665.669,-78.88C-665.669,-103.49 -656.26,-124.315 -637.436,-141.353C-623.553,-151.974 -609.612,-157.287 -595.623,-157.287ZM-631.592,-98.126L-555.081,-98.126L-555.081,-98.284C-556.875,-103.648 -560.973,-109.747 -567.39,-116.584C-575.38,-123.419 -584.108,-126.839 -593.574,-126.839C-607.99,-126.839 -619.816,-119.213 -629.068,-103.964L-631.592,-98.126ZM-764.306,-3.786L-765.732,-3.786C-792.867,-3.786 -812.323,-14.04 -824.1,-34.549C-828.205,-42.646 -830.254,-52.165 -830.254,-63.104L-830.254,-154.447L-829.779,-154.92L-800.276,-154.92L-799.809,-154.447L-799.809,-62.788C-799.809,-49.852 -794.441,-41.333 -783.713,-37.231C-779.189,-35.231 -773.403,-34.234 -766.363,-34.234L-763.839,-34.234C-751.005,-34.234 -741.908,-36.231 -736.541,-40.228C-729.501,-44.435 -725.977,-52.218 -725.977,-63.577L-725.977,-154.447L-725.657,-154.92L-695.998,-154.92L-695.687,-154.447L-695.687,-5.048L-695.998,-4.575L-725.657,-4.575L-725.977,-5.048L-725.977,-15.145L-726.288,-15.145C-731.656,-11.147 -738.647,-7.888 -747.268,-5.363C-751.899,-4.31 -757.578,-3.786 -764.306,-3.786ZM-890.665,-234.747L-860.531,-234.747L-860.375,-234.589L-860.375,-3.944L-860.531,-3.786L-890.665,-3.786L-890.821,-3.944L-890.821,-234.589L-890.665,-234.747ZM-1074.17,-234.747L-1044.04,-234.747L-1043.88,-234.589L-1043.88,-137.093L-1043.72,-137.093C-1042.14,-139.195 -1039.99,-141.353 -1037.25,-143.561C-1025.79,-152.712 -1012.7,-157.287 -997.97,-157.287L-997.814,-157.287C-980.776,-157.287 -965.156,-151.765 -950.953,-140.722C-949.06,-139.249 -946.282,-136.671 -942.594,-132.992C-935.341,-124.681 -930.129,-116.32 -926.974,-107.908C-923.294,-98.442 -921.458,-88.661 -921.458,-78.564C-921.458,-65.206 -924.72,-52.427 -931.235,-40.228C-933.342,-36.231 -936.284,-31.867 -940.07,-27.134C-944.176,-22.506 -947.487,-19.193 -950.011,-17.195C-952.953,-14.88 -955.69,-12.987 -958.215,-11.516C-970.622,-3.837 -983.612,0 -997.183,0L-999.232,0C-1004.81,0 -1011.59,-1.104 -1019.58,-3.312C-1023.58,-4.679 -1027.15,-6.31 -1030.31,-8.203C-1032.74,-9.674 -1035.51,-11.725 -1038.67,-14.356C-1040.36,-15.933 -1042.09,-17.669 -1043.88,-19.562L-1043.88,-3.786L-1074.33,-3.786L-1074.33,-234.589L-1074.17,-234.747ZM-1043.88,-78.88L-1043.88,-78.091C-1043.88,-67.783 -1040.77,-58.264 -1034.57,-49.536C-1033.2,-47.643 -1031.26,-45.435 -1028.74,-42.91L-1025.89,-40.386C-1022.53,-37.862 -1019.64,-36.02 -1017.21,-34.865C-1010.8,-31.918 -1004.44,-30.447 -998.126,-30.447C-985.3,-30.447 -974.146,-35.389 -964.681,-45.277C-961.107,-49.483 -958.428,-53.532 -956.633,-57.424C-953.584,-64.155 -952.06,-71.096 -952.06,-78.249L-952.06,-78.88C-952.06,-90.763 -956.002,-101.491 -963.894,-111.063C-973.359,-121.58 -984.931,-126.839 -998.601,-126.839C-1004.7,-126.839 -1011.28,-125.155 -1018.32,-121.791C-1021.47,-120.213 -1024.63,-118.004 -1027.79,-115.165C-1030.74,-112.325 -1032.57,-110.379 -1033.31,-109.327C-1040.36,-100.386 -1043.88,-90.238 -1043.88,-78.88Z" style="fill:rgb(29,29,29);"/>
                </g>
            </g>
        </g>
    </g>
</svg>
