<?xml version="1.0" encoding="UTF-8" standalone="no"?>
<!DOCTYPE svg PUBLIC "-//W3C//DTD SVG 1.1//EN" "http://www.w3.org/Graphics/SVG/1.1/DTD/svg11.dtd">
<svg width="100%" height="100%" viewBox="0 0 1181 1167" version="1.1" xmlns="http://www.w3.org/2000/svg" xmlns:xlink="http://www.w3.org/1999/xlink" xml:space="preserve" xmlns:serif="http://www.serif.com/" style="fill-rule:evenodd;clip-rule:evenodd;stroke-linejoin:round;stroke-miterlimit:2;">
    <g id="Layer-1" serif:id="Layer 1">
        <path d="M1156.88,511.646C1145.28,492.298 1141.03,472.032 1145.91,449.148C1155.99,402.073 1140.94,361.088 1103.98,329.964C1081.2,310.795 1071.11,287.937 1065.94,259.04C1057.7,212.954 1027.91,182.915 984.056,167.423C958.166,158.298 942.363,141.12 928.64,117.528C904.094,75.227 864.546,55.426 815.489,56.205C791.792,56.558 771.49,50.368 753.558,34.735C714.015,0.251 670.976,-6.108 621.99,13.309C601.37,21.48 580.927,22.47 560.342,14.123C509.906,-6.321 465.659,-0.179 423.216,33.704C421.695,34.907 420.139,36.074 418.477,37.17C404.046,46.967 384.523,53.228 367.545,53.688C344.45,54.289 324.289,58.781 306.499,67.269C282.483,78.693 262.853,97.404 246.442,123.647C236.327,139.882 219.928,156.808 202.384,163.21C150.781,181.921 122.827,216.102 111.049,268.626C106.628,288.326 95.801,309.551 80.663,323.026C41.793,357.795 24.431,398.5 34.405,448.937C39.073,472.422 34.688,493.395 22.768,513.449C-3.228,557.166 -3.652,601.024 22.238,644.881C34.475,665.572 39.215,687.04 34.263,711.304C24.643,758.416 36.986,799.938 74.018,830.993C96.23,849.596 109.387,871.101 114.339,899.361C122.686,947.18 151.122,978.941 196.713,994.646C219.844,1002.64 236.786,1016.61 248.812,1037.76C274.171,1082.5 312.9,1105.38 364.398,1104.82C388.095,1104.57 408.326,1111.26 426.187,1126.86C465.199,1160.88 509.375,1168.59 557.442,1149.74C579.654,1141 600.733,1141.04 622.839,1149.74C671.012,1168.7 715.152,1160.53 754.2,1126.89C772.203,1111.4 792.186,1103.44 821.932,1105.46C866.143,1104.25 903.351,1082.64 931.08,1039.92C942.575,1022.16 960.79,1004.34 979.96,996.803C1030.01,977.208 1059.47,943.608 1068.21,891.367C1072.1,867.918 1083.41,849.703 1101.74,834.954C1141.53,802.803 1156.17,760.821 1146.09,711.269C1141.24,687.536 1145.42,666.739 1157.34,646.791C1184.32,601.589 1183.83,556.671 1156.88,511.646" style="fill:#fff;fill-rule:nonzero;"/>
        <path d="M622.334,10.376C601.6,18.589 581.045,19.582 560.348,11.188C509.635,-9.364 465.147,0.097 422.472,34.166C420.942,35.376 419.377,36.549 417.706,37.653L417.702,37.653L418.204,118.517L419.662,480.974L420.267,480.974C426.099,473.145 434.065,465.075 444.2,456.823C486.697,422.648 535.312,405.439 590.043,405.222L590.647,405.222C653.984,404.937 712.128,425.247 765.117,466.074C772.158,471.545 782.543,481.079 796.305,494.696C823.404,525.497 842.892,556.472 854.77,587.732C868.569,622.869 875.574,659.178 875.717,696.729C875.93,746.414 863.981,793.958 839.941,839.405C832.152,854.307 821.306,870.56 807.294,888.234C792.109,905.48 779.84,917.856 770.487,925.326C759.569,933.966 749.434,941.045 740.081,946.554C694.064,975.289 645.805,989.768 595.377,989.979L587.731,990.017C567.034,990.084 541.784,986.102 512.054,977.994C497.153,972.981 483.853,966.97 472.081,959.966C463.048,954.557 452.665,946.951 440.893,937.236C434.634,931.405 428.126,924.972 421.476,917.968L421.689,976.604L308.494,977.069L305.112,67.914C280.966,79.403 261.23,98.212 244.73,124.603C234.559,140.924 217.205,157.177 199.566,163.611C147.679,182.426 120.439,217.564 108.596,270.375C104.151,290.177 91.42,311.374 76.198,324.923C37.115,359.88 21.503,400.954 31.532,451.668C36.227,475.285 31.817,496.371 19.832,516.533C-6.307,560.492 -6.733,604.587 19.298,648.688C31.603,669.489 36.368,691.077 31.39,715.47C21.717,762.84 34.128,804.591 71.362,835.82C93.695,854.523 106.925,876.143 111.903,904.555C120.296,952.64 148.889,984.575 194.729,1000.36C217.986,1008.4 235.021,1022.45 247.112,1043.71C272.612,1088.7 311.552,1111.71 363.331,1111.14C387.157,1110.89 407.5,1117.61 425.459,1133.3C464.684,1167.51 509.102,1175.26 557.431,1156.31C579.765,1147.53 600.96,1147.56 623.187,1156.31C671.623,1175.37 716.006,1167.15 755.266,1133.33C773.368,1117.76 793.461,1109.76 823.368,1111.78C867.822,1110.57 905.233,1088.85 933.114,1045.89C944.673,1028.03 962.987,1010.11 982.262,1002.53C1032.58,982.833 1062.21,949.048 1070.99,896.522C1074.9,872.942 1086.28,854.629 1104.7,839.802C1144.71,807.47 1159.43,765.26 1149.3,715.439C1144.43,691.574 1148.62,670.662 1160.61,650.605C1187.74,605.158 1187.25,559.996 1160.15,514.721C1148.48,495.267 1144.21,474.894 1149.12,451.88C1159.26,404.546 1147.02,362.727 1109.86,331.43C1086.96,312.156 1073.91,289.791 1068.71,260.734C1060.43,214.393 1032.55,183.028 988.45,167.451C962.418,158.275 944.459,142.171 930.661,118.449C905.98,75.916 867.715,54.508 818.39,55.289C794.563,55.643 774.15,49.421 756.12,33.701C730.481,11.343 702.756,0 673.091,0C656.752,-0.001 639.827,3.44 622.334,10.376Z" style="fill:url(#_Linear1);fill-rule:nonzero;"/>
        <path d="M588.158,518.419C565.505,518.525 541.073,524.889 514.935,537.482C503.235,543.42 491.535,551.67 479.834,562.266C468.916,572.868 462.124,580.12 459.385,584.065C433.353,617.391 420.409,655.196 420.552,697.405L420.587,700.358C420.729,738.659 432.393,774.007 455.616,806.372C460.737,813.375 467.992,821.551 477.416,830.907L488.013,840.261C500.567,849.579 511.343,856.404 520.375,860.64C544.238,871.522 567.922,876.888 591.393,876.782C639.084,876.602 680.478,858.041 715.508,821.13C728.737,805.447 738.659,790.366 745.238,775.855C756.475,750.787 762.059,724.968 761.952,698.366L761.916,696.022C761.739,651.852 746.944,612.018 717.428,576.566C682.27,537.8 639.474,518.419 588.981,518.418C588.705,518.418 588.434,518.418 588.158,518.419Z" style="fill:url(#_Linear2);fill-rule:nonzero;"/>
    </g>
    <defs>
        <linearGradient id="_Linear1" x1="0" y1="0" x2="1" y2="0" gradientUnits="userSpaceOnUse" gradientTransform="matrix(1180.72,0,0,1180.72,-0.000168448,583.204)"><stop offset="0" style="stop-color:#0062AF;stop-opacity:1"/><stop offset="1" style="stop-color:#1A3D6C;stop-opacity:1"/></linearGradient>
        <linearGradient id="_Linear2" x1="0" y1="0" x2="1" y2="0" gradientUnits="userSpaceOnUse" gradientTransform="matrix(341.404,0,0,341.404,420.551,697.6)"><stop offset="0" style="stop-color:#0062AF;stop-opacity:1"/><stop offset="1" style="stop-color:#1A3D6C;stop-opacity:1"/></linearGradient>
    </defs>
</svg>
