<svg width="2566" height="722" viewBox="0 0 2566 722" fill="none" xmlns="http://www.w3.org/2000/svg">
<g clip-path="url(#clip0_823_20348)">
<path d="M151.274 77.1705C145.427 87.4017 134.465 97.6329 123.503 101.287C91.3483 112.98 74.5399 134.904 67.2319 167.79C65.0395 179.482 57.0007 192.637 47.5003 201.406C23.384 222.6 13.8836 248.178 19.73 279.602C22.6532 294.218 19.73 307.372 12.422 319.796C-3.65558 346.835 -3.65558 373.875 12.422 401.645C19.73 414.069 22.6532 427.954 19.73 442.57C13.8836 471.802 21.1916 498.111 44.5772 517.112C58.4623 528.804 66.5011 541.959 69.4243 559.498C74.5399 589.461 92.0791 609.192 120.58 618.693C135.196 623.808 145.427 632.578 153.466 645.732C168.813 673.502 192.929 688.118 225.084 687.388C239.7 687.388 252.124 691.772 263.086 701.273C287.933 722.466 314.973 726.851 344.936 715.158C358.821 710.042 371.975 710.042 385.86 715.158C415.823 726.851 442.863 722.466 467.71 701.273C478.672 691.772 491.095 686.657 509.365 688.118C537.136 687.388 559.79 673.502 577.33 647.194C584.638 636.232 595.6 625.27 608.023 620.154C638.717 608.461 656.987 587.268 662.833 555.113C665.025 540.497 672.333 528.804 683.295 519.304C708.143 499.572 717.643 473.264 711.066 442.57C708.143 427.954 710.335 414.8 718.374 402.376C735.182 374.606 734.451 346.835 717.643 318.334C710.335 306.641 708.143 294.218 711.066 279.602C716.912 250.37 709.604 224.792 686.949 205.06C672.333 193.368 664.295 179.482 661.371 161.212C656.256 132.711 638.717 113.711 611.677 103.479C595.6 98.3637 584.638 88.1325 575.868 73.5166C560.521 47.2078 537.136 34.0534 506.442 34.7842C491.826 34.7842 479.403 31.1302 467.71 20.899C443.593 -0.29416 415.823 -5.40975 385.129 7.01383C372.706 12.1294 359.551 12.1294 347.128 7.01383C315.704 -5.40975 287.933 0.436673 261.624 21.6298C260.894 22.3606 258.701 23.8222 258.701 23.8222C259.432 23.0914 260.894 21.6298 261.624 20.899C287.933 -0.29416 315.704 -6.14055 347.128 7.01383C359.551 12.1294 372.706 12.1294 385.129 7.01383C396.091 2.62904 406.323 -0.294149 416.554 -0.294149C434.824 -0.294149 452.363 7.01383 467.71 20.899C479.403 30.3994 491.826 35.515 506.442 34.7842C537.136 34.7842 560.521 47.2078 575.868 73.5166C584.638 88.1325 595.6 97.6329 611.677 103.479C639.448 112.98 656.256 132.711 661.371 161.212C665.025 179.482 673.064 193.368 686.949 205.06C709.604 224.792 716.912 250.37 711.066 279.602C708.143 294.218 710.335 306.641 717.643 318.334C734.451 346.835 735.182 374.606 718.374 402.376C711.066 414.8 708.143 427.954 711.066 442.57C717.643 473.994 708.873 499.572 684.026 520.035C672.333 528.804 665.025 540.497 662.833 555.113C657.717 587.268 639.448 608.461 608.023 620.154C596.33 625.27 584.638 636.232 577.33 647.194C560.521 674.233 537.136 687.388 509.365 688.118C491.095 686.657 478.672 691.772 467.71 701.273C442.863 722.466 415.823 726.851 385.86 715.158C371.975 709.312 358.821 709.312 344.936 715.158C314.973 726.851 287.933 722.466 263.086 701.273C252.124 691.772 239.7 687.388 225.084 687.388C192.929 688.118 169.544 673.502 153.466 645.732C146.158 632.578 135.196 623.808 120.58 619.423C92.0791 609.192 74.5399 588.73 69.4243 559.498C66.5011 541.228 57.7315 528.804 43.8463 517.112C21.1916 498.111 13.1528 471.802 19.73 442.57C22.6532 427.954 19.73 414.069 11.6912 401.645C-4.38638 373.875 -3.65558 346.835 12.422 319.796C19.73 307.372 22.6532 294.218 19.73 279.602C13.1528 248.178 22.6532 222.6 47.5003 201.406C56.2699 192.637 64.3087 180.213 67.2319 167.79C74.5399 135.634 91.3483 112.98 123.503 101.287C134.465 97.6329 145.427 87.4017 151.274 77.1705Z" fill="url(#paint0_linear_823_20348)"/>
<path fill-rule="evenodd" clip-rule="evenodd" d="M258.532 23.6123C258.56 23.5955 258.588 23.5787 258.617 23.5563C259.649 22.8771 260.615 22.1529 261.563 21.4007C287.957 0.334246 315.473 -5.5204 346.834 7.19359C359.638 12.3858 372.346 11.7684 385.173 6.68846C415.636 -5.38562 443.326 -0.328117 467.917 21.1201C479.065 30.8366 491.689 34.6873 506.43 34.4684C536.932 33.9856 560.598 47.2217 575.866 73.531C584.398 88.1984 595.506 98.1619 611.605 103.837C638.88 113.469 656.124 132.874 661.249 161.53C664.459 179.498 672.531 193.334 686.693 205.257C709.68 224.611 717.246 250.477 710.976 279.75C707.94 293.98 710.578 306.581 717.796 318.616C734.552 346.615 734.861 374.546 718.083 402.658C710.668 415.063 708.074 427.996 711.089 442.753C717.353 473.564 708.248 499.671 683.505 519.666C672.11 528.838 665.071 540.165 662.652 554.748C657.224 587.232 638.902 608.125 607.777 620.311C595.854 624.998 584.533 636.084 577.381 647.125C560.137 673.693 537 687.131 509.506 687.878C491.01 686.626 478.583 691.577 467.39 701.209C443.107 722.124 415.658 727.204 385.7 715.416C371.953 710.005 358.846 709.982 345.032 715.416C315.142 727.136 287.671 722.343 263.41 701.187C252.302 691.487 239.722 687.328 224.988 687.485C192.964 687.833 168.878 673.603 153.11 645.784C145.628 632.626 135.097 623.943 120.71 618.969C92.358 609.202 74.6763 589.455 69.484 559.716C66.408 542.147 58.2239 528.77 44.4097 517.201C21.3842 497.892 13.7052 472.071 19.6889 442.77C22.7706 427.681 19.8237 414.333 12.2121 401.468C-3.88664 374.193 -3.62284 346.924 12.5433 319.733C19.9528 307.266 22.6808 294.221 19.7788 279.621C13.5761 248.254 23.2309 222.849 47.4015 201.232C56.8149 192.852 64.6903 179.739 67.4408 167.491C74.7661 134.827 91.6114 113.099 123.702 101.462C134.609 97.4827 145.347 87.4292 151.634 77.3366C161.811 61.0638 173.974 49.4501 188.844 42.3381L190.938 604.751L261.002 604.465L260.867 568.17C264.982 572.503 269.012 576.488 272.885 580.098C280.171 586.11 286.593 590.825 292.189 594.165C299.47 598.509 307.704 602.22 316.927 605.324C335.333 610.342 350.96 612.806 363.769 612.761L368.501 612.739C399.717 612.61 429.585 603.645 458.066 585.863C463.853 582.455 470.129 578.071 476.887 572.722C482.675 568.102 490.269 560.44 499.666 549.764C508.338 538.824 515.052 528.765 519.873 519.542C534.754 491.414 542.147 461.984 542.018 431.235C541.928 407.99 537.595 385.52 529.051 363.775C521.703 344.42 509.641 325.251 492.868 306.189C484.347 297.757 477.92 291.858 473.564 288.473C454.277 273.609 433.89 263.146 412.391 257.078C397.331 252.823 381.726 250.735 365.577 250.808H365.201C331.325 250.943 301.232 261.591 274.934 282.748C268.659 287.856 263.73 292.851 260.121 297.696H259.745L258.841 73.3513L258.532 23.6123ZM364.033 320.873C364.207 320.867 364.37 320.867 364.538 320.867C395.793 320.873 422.287 332.868 444.044 356.859C462.315 378.801 471.471 403.46 471.583 430.797L471.605 432.245C471.667 448.714 468.215 464.695 461.26 480.21C457.185 489.191 451.044 498.526 442.86 508.231C421.176 531.077 395.551 542.568 366.037 542.674C351.51 542.742 336.848 539.424 322.08 532.688C316.489 530.067 309.82 525.84 302.052 520.075L295.49 514.283C289.658 508.49 285.167 503.432 281.996 499.099C267.626 479.065 260.402 457.185 260.317 433.48L260.295 431.656C260.205 405.526 268.221 382.13 284.331 361.501C286.026 359.06 290.23 354.569 296.989 348.013C304.23 341.451 311.471 336.343 318.712 332.672C334.889 324.875 350.011 320.951 364.033 320.873Z" fill="white"/>
<path d="M1997.62 557.34L2006.81 556.537C2007.24 560.219 2008.25 563.249 2009.82 565.626C2011.43 567.969 2013.91 569.877 2017.25 571.35C2020.6 572.79 2024.37 573.509 2028.55 573.509C2032.27 573.509 2035.55 572.957 2038.39 571.852C2041.24 570.748 2043.35 569.241 2044.72 567.333C2046.13 565.391 2046.83 563.282 2046.83 561.006C2046.83 558.696 2046.16 556.688 2044.82 554.98C2043.48 553.24 2041.27 551.783 2038.19 550.612C2036.22 549.842 2031.85 548.653 2025.09 547.047C2018.32 545.406 2013.59 543.866 2010.88 542.427C2007.36 540.586 2004.73 538.309 2002.99 535.598C2001.29 532.853 2000.43 529.79 2000.43 526.409C2000.43 522.693 2001.49 519.228 2003.6 516.014C2005.7 512.767 2008.78 510.307 2012.83 508.633C2016.89 506.959 2021.39 506.122 2026.34 506.122C2031.8 506.122 2036.6 507.009 2040.75 508.784C2044.94 510.524 2048.15 513.102 2050.39 516.517C2052.64 519.931 2053.84 523.798 2054.01 528.116L2044.67 528.819C2044.17 524.166 2042.46 520.651 2039.55 518.274C2036.67 515.897 2032.4 514.709 2026.74 514.709C2020.85 514.709 2016.55 515.797 2013.84 517.973C2011.16 520.115 2009.82 522.71 2009.82 525.756C2009.82 528.401 2010.78 530.576 2012.68 532.284C2014.56 533.991 2019.45 535.749 2027.35 537.556C2035.28 539.33 2040.72 540.887 2043.67 542.226C2047.95 544.201 2051.11 546.712 2053.16 549.758C2055.2 552.771 2056.22 556.253 2056.22 560.203C2056.22 564.119 2055.1 567.818 2052.85 571.3C2050.61 574.748 2047.38 577.443 2043.16 579.384C2038.98 581.292 2034.26 582.247 2029 582.247C2022.34 582.247 2016.75 581.276 2012.23 579.334C2007.75 577.393 2004.21 574.48 2001.64 570.597C1999.09 566.68 1997.75 562.261 1997.62 557.34ZM2071.18 580.991V507.378H2080.92V580.991H2071.18ZM2098.05 580.991V507.378H2108.04L2146.7 565.174V507.378H2156.04V580.991H2146.05L2107.39 523.145V580.991H2098.05ZM2224.99 555.181L2234.73 557.642C2232.69 565.643 2229.01 571.752 2223.68 575.97C2218.39 580.154 2211.92 582.247 2204.25 582.247C2196.32 582.247 2189.86 580.64 2184.87 577.426C2179.91 574.179 2176.13 569.492 2173.52 563.366C2170.94 557.24 2169.65 550.662 2169.65 543.632C2169.65 535.966 2171.11 529.288 2174.02 523.597C2176.97 517.872 2181.13 513.537 2186.52 510.591C2191.95 507.612 2197.91 506.122 2204.4 506.122C2211.77 506.122 2217.96 507.997 2222.98 511.746C2228 515.496 2231.5 520.768 2233.47 527.564L2223.88 529.823C2222.18 524.467 2219.7 520.567 2216.45 518.123C2213.2 515.68 2209.12 514.458 2204.2 514.458C2198.54 514.458 2193.81 515.814 2189.99 518.525C2186.21 521.237 2183.54 524.886 2182 529.472C2180.47 534.025 2179.7 538.728 2179.7 543.582C2179.7 549.842 2180.6 555.315 2182.41 560.002C2184.25 564.655 2187.09 568.136 2190.94 570.446C2194.79 572.756 2198.96 573.911 2203.45 573.911C2208.9 573.911 2213.52 572.338 2217.31 569.191C2221.09 566.044 2223.65 561.374 2224.99 555.181ZM2246.98 580.991V507.378H2300.21V516.065H2256.72V538.611H2297.45V547.247H2256.72V572.304H2301.92V580.991H2246.98ZM2374.37 580.991H2365.34V523.396C2363.16 525.471 2360.3 527.547 2356.75 529.622C2353.23 531.698 2350.07 533.255 2347.26 534.292V525.555C2352.31 523.178 2356.73 520.299 2360.52 516.918C2364.3 513.537 2366.98 510.257 2368.55 507.076H2374.37V580.991ZM2398.93 563.969L2407.62 563.165C2408.35 567.249 2409.76 570.212 2411.83 572.053C2413.91 573.894 2416.57 574.815 2419.82 574.815C2422.6 574.815 2425.02 574.179 2427.1 572.907C2429.21 571.635 2430.93 569.944 2432.27 567.835C2433.61 565.693 2434.73 562.814 2435.64 559.198C2436.54 555.583 2436.99 551.901 2436.99 548.151C2436.99 547.75 2436.97 547.147 2436.94 546.344C2435.13 549.223 2432.66 551.566 2429.51 553.374C2426.4 555.148 2423.01 556.035 2419.37 556.035C2413.27 556.035 2408.12 553.826 2403.9 549.407C2399.68 544.988 2397.57 539.163 2397.57 531.932C2397.57 524.467 2399.77 518.458 2404.15 513.905C2408.57 509.353 2414.09 507.076 2420.72 507.076C2425.51 507.076 2429.88 508.365 2433.83 510.943C2437.81 513.521 2440.82 517.203 2442.87 521.99C2444.94 526.743 2445.98 533.64 2445.98 542.678C2445.98 552.085 2444.96 559.583 2442.92 565.174C2440.87 570.731 2437.83 574.966 2433.78 577.878C2429.76 580.79 2425.04 582.247 2419.62 582.247C2413.86 582.247 2409.16 580.656 2405.51 577.476C2401.86 574.263 2399.67 569.76 2398.93 563.969ZM2435.94 531.48C2435.94 526.292 2434.55 522.174 2431.77 519.128C2429.02 516.081 2425.71 514.558 2421.83 514.558C2417.81 514.558 2414.31 516.199 2411.33 519.479C2408.35 522.76 2406.86 527.011 2406.86 532.234C2406.86 536.92 2408.27 540.736 2411.08 543.682C2413.93 546.595 2417.42 548.051 2421.58 548.051C2425.76 548.051 2429.19 546.595 2431.87 543.682C2434.58 540.736 2435.94 536.669 2435.94 531.48ZM2454.82 544.687C2454.82 535.983 2455.7 528.986 2457.48 523.697C2459.29 518.375 2461.95 514.274 2465.46 511.395C2469.01 508.516 2473.46 507.076 2478.82 507.076C2482.77 507.076 2486.23 507.88 2489.21 509.487C2492.19 511.06 2494.65 513.353 2496.59 516.366C2498.54 519.345 2500.06 522.994 2501.16 527.313C2502.27 531.598 2502.82 537.389 2502.82 544.687C2502.82 553.323 2501.93 560.303 2500.16 565.626C2498.39 570.915 2495.72 575.016 2492.18 577.928C2488.66 580.807 2484.21 582.247 2478.82 582.247C2471.72 582.247 2466.15 579.702 2462.1 574.614C2457.24 568.488 2454.82 558.512 2454.82 544.687ZM2464.11 544.687C2464.11 556.771 2465.51 564.822 2468.32 568.839C2471.17 572.823 2474.67 574.815 2478.82 574.815C2482.97 574.815 2486.45 572.806 2489.26 568.789C2492.11 564.772 2493.53 556.738 2493.53 544.687C2493.53 532.568 2492.11 524.517 2489.26 520.534C2486.45 516.55 2482.94 514.558 2478.72 514.558C2474.57 514.558 2471.25 516.316 2468.78 519.831C2465.66 524.316 2464.11 532.602 2464.11 544.687ZM2546.11 580.991H2537.07V523.396C2534.89 525.471 2532.03 527.547 2528.48 529.622C2524.97 531.698 2521.8 533.255 2518.99 534.292V525.555C2524.05 523.178 2528.46 520.299 2532.25 516.918C2536.03 513.537 2538.71 510.257 2540.28 507.076H2546.11V580.991Z" fill="white"/>
<path d="M2406.38 127.122V461.091H2423.51V377.17L2454.34 348.055C2457.76 353.193 2476.6 377.17 2509.14 419.987C2531.41 445.677 2541.68 459.378 2543.4 461.091H2565.66L2468.04 336.066L2563.95 243.583H2538.26L2423.51 353.193V127.122H2406.38ZM1705.9 127.122V461.091H1723.03V414.849L1728.17 423.412C1750.43 449.102 1776.12 462.803 1805.24 462.803H1808.66C1832.64 462.803 1854.91 454.24 1875.46 435.401C1897.72 411.423 1908 384.021 1908 353.193V351.48C1908 324.078 1899.44 300.1 1882.31 277.836C1860.04 253.859 1836.07 241.87 1806.95 241.87C1796.68 241.87 1786.4 243.583 1776.12 247.008C1753.86 255.571 1735.02 269.273 1723.03 289.825V127.122H1705.9ZM1747.01 416.561C1731.59 397.722 1723.03 377.17 1723.03 353.193C1723.03 330.928 1729.88 310.376 1741.87 293.25C1760.71 270.985 1781.26 260.709 1806.95 260.709C1824.08 260.709 1839.49 265.847 1854.91 276.123C1878.88 296.675 1890.87 322.365 1890.87 351.48C1890.87 373.745 1884.02 392.584 1872.03 411.423C1853.19 433.688 1832.64 443.964 1806.95 443.964C1784.69 443.964 1764.14 435.401 1747.01 416.561ZM1118.46 127.122V461.091H1162.99V127.122H1118.46ZM853 127.122V461.091H897.529V438.826C899.242 440.539 902.667 443.964 904.38 445.677C909.518 449.102 912.943 452.527 916.368 454.24C921.506 457.665 926.644 459.378 931.782 461.091C943.771 464.516 954.047 466.229 960.898 466.229H964.323C984.875 466.229 1003.71 461.091 1020.84 449.102C1024.27 447.389 1027.69 445.677 1032.83 442.251C1036.25 438.826 1041.39 433.688 1046.53 426.837C1053.38 419.987 1056.81 414.849 1060.23 407.998C1068.8 390.871 1073.93 372.032 1073.93 353.193C1073.93 337.779 1072.22 324.078 1065.37 310.376C1061.94 298.388 1053.38 286.399 1043.11 274.411C1037.97 269.273 1034.54 265.847 1031.12 262.422C1010.56 247.008 988.3 238.445 964.323 238.445C943.771 238.445 923.219 245.295 906.092 258.997C902.667 262.422 899.242 265.847 897.529 267.56V127.122H853ZM935.208 416.561C931.782 414.849 928.357 411.423 923.219 407.998L918.081 404.573C914.656 401.147 912.943 397.722 911.23 394.297C900.954 382.308 897.529 368.607 897.529 353.193C897.529 336.066 902.667 320.652 912.943 308.664C912.943 306.951 916.368 303.526 919.794 300.1C924.932 294.963 930.07 293.25 933.495 289.825C943.771 284.687 954.047 282.974 962.61 282.974C981.45 282.974 998.576 289.825 1012.28 305.238C1024.27 318.94 1029.4 334.354 1029.4 353.193C1029.4 363.469 1027.69 373.745 1022.55 384.021C1020.84 389.159 1017.42 394.297 1012.28 401.147C998.576 414.849 981.45 421.699 962.61 421.699C954.047 421.699 945.484 419.987 935.208 416.561ZM1544.91 238.445C1524.36 238.445 1505.52 247.008 1484.97 262.422C1457.57 286.399 1443.87 317.227 1443.87 353.193C1443.87 378.883 1452.43 402.86 1467.84 425.125C1490.11 452.527 1515.8 466.229 1548.34 466.229C1579.17 466.229 1604.86 452.527 1628.84 426.837C1635.69 416.561 1640.82 407.998 1642.54 402.86C1642.54 402.86 1628.83 396.009 1603.15 384.021C1601.43 385.733 1601.43 387.446 1598.01 392.584C1584.31 413.136 1568.89 421.699 1548.34 421.699C1532.93 421.699 1519.22 416.561 1507.24 402.86C1498.67 394.297 1491.82 382.308 1488.4 365.182H1652.81C1652.81 365.182 1652.81 363.469 1652.81 360.044V353.193C1652.81 330.928 1647.67 310.376 1637.4 291.537C1632.26 284.687 1625.41 276.123 1615.13 265.847C1594.58 247.008 1574.03 238.445 1551.77 238.445H1544.91ZM1496.96 315.514C1510.66 293.25 1527.79 282.974 1548.34 282.974C1562.04 282.974 1574.03 288.112 1586.02 298.388C1594.58 306.951 1601.43 317.227 1603.15 324.078H1493.53L1496.96 315.514ZM1356.52 241.87V243.583V373.745C1356.52 390.871 1351.38 402.86 1341.11 407.998C1334.26 414.849 1320.56 416.561 1301.72 416.561H1298.29C1288.02 416.561 1279.45 414.849 1272.6 413.136C1257.19 406.285 1250.34 394.297 1250.34 375.458V243.583L1248.62 241.87H1205.81V243.583V375.458C1205.81 390.871 1209.23 404.573 1214.37 416.561C1231.5 445.677 1260.61 461.091 1300 461.091C1308.57 461.091 1318.84 459.378 1325.69 459.378C1337.68 454.24 1347.96 450.815 1356.52 443.964V459.378H1399.34L1401.05 243.583L1399.34 241.87H1356.52ZM2267.66 243.583C2241.97 243.583 2219.7 253.859 2199.15 274.411C2178.6 296.675 2168.32 322.365 2168.32 351.48V353.193C2168.32 377.17 2175.17 399.435 2190.59 419.987C2211.14 447.389 2236.83 461.091 2267.66 461.091C2293.35 461.091 2315.61 450.815 2336.16 431.975C2356.72 409.711 2366.99 384.021 2366.99 354.906V351.48C2366.99 327.503 2360.14 305.238 2344.73 282.974C2324.17 257.284 2298.49 243.583 2267.66 243.583ZM2219.7 426.837C2197.44 406.285 2185.45 382.308 2185.45 353.193C2185.45 332.641 2190.59 315.514 2202.58 298.388C2219.7 274.411 2241.97 262.422 2267.66 262.422C2289.92 262.422 2310.47 270.985 2325.89 289.825C2341.3 306.951 2349.86 329.216 2349.86 353.193C2349.86 375.458 2343.01 396.009 2327.6 414.849C2310.47 433.688 2289.92 443.964 2267.66 443.964C2250.53 443.964 2235.12 437.113 2219.7 426.837ZM2036.45 243.583C2010.76 243.583 1988.49 253.859 1967.94 274.411C1947.39 296.675 1937.11 322.365 1937.11 351.48V353.193C1937.11 377.17 1943.96 399.435 1959.38 419.987C1981.64 447.389 2007.33 461.091 2036.45 461.091C2062.14 461.091 2086.12 450.815 2104.95 431.975C2125.51 409.711 2137.5 384.021 2137.5 354.906V351.48C2137.5 327.503 2128.93 305.238 2113.52 282.974C2092.97 257.284 2065.56 243.583 2036.45 243.583ZM1990.21 426.837C1966.23 406.285 1954.24 382.308 1954.24 353.193C1954.24 332.641 1961.09 315.514 1971.37 298.388C1990.21 274.411 2010.76 262.422 2036.45 262.422C2058.71 262.422 2079.26 270.985 2096.39 289.825C2111.81 306.951 2118.66 329.216 2118.66 353.193C2118.66 375.458 2111.81 396.009 2096.39 414.849C2079.26 433.688 2060.43 443.964 2036.45 443.964C2021.03 443.964 2003.91 437.113 1990.21 426.837Z" fill="white"/>
</g>
<defs>
<linearGradient id="paint0_linear_823_20348" x1="-0.00158624" y1="360.971" x2="730.797" y2="360.971" gradientUnits="userSpaceOnUse">
<stop stop-color="#0062AF"/>
<stop offset="1" stop-color="#1C3C6C"/>
</linearGradient>
<clipPath id="clip0_823_20348">
<rect width="2566" height="722" fill="white"/>
</clipPath>
</defs>
</svg>
