<svg width="2566" height="722" viewBox="0 0 2566 722" fill="none" xmlns="http://www.w3.org/2000/svg">
<g clip-path="url(#clip0_823_20131)">
<path fill-rule="evenodd" clip-rule="evenodd" d="M258.548 23.6103C258.576 23.5935 258.604 23.5767 258.633 23.5543C259.665 22.8751 260.631 22.1509 261.579 21.3987C287.973 0.332296 315.489 -5.52234 346.85 7.19163C359.654 12.3839 372.363 11.7665 385.189 6.68649C415.652 -5.38757 443.342 -0.330069 467.934 21.1181C479.082 30.8346 491.706 34.6853 506.446 34.4664C536.949 33.9836 560.614 47.2197 575.882 73.5289C584.414 88.1962 595.523 98.1597 611.622 103.835C638.897 113.467 656.14 132.872 661.265 161.527C664.476 179.495 672.548 193.332 686.71 205.254C709.696 224.609 717.263 250.475 710.993 279.748C707.956 293.977 710.595 306.579 717.813 318.614C734.569 346.612 734.877 374.544 718.099 402.655C710.684 415.06 708.091 427.993 711.105 442.75C717.37 473.561 708.265 499.668 683.522 519.663C672.127 528.835 665.088 540.162 662.669 554.745C657.241 587.229 638.919 608.121 607.793 620.308C595.871 624.995 584.549 636.081 577.398 647.122C560.154 673.69 537.016 687.128 509.522 687.874C491.027 686.623 478.599 691.573 467.406 701.206C443.123 722.121 415.674 727.2 385.717 715.413C371.97 710.002 358.863 709.979 345.048 715.413C315.158 727.133 287.687 722.339 263.426 701.183C252.318 691.484 239.738 687.324 225.004 687.481C192.98 687.829 168.894 673.6 153.126 645.781C145.643 632.623 135.113 623.94 120.726 618.966C92.3738 609.199 74.692 589.452 69.4998 559.713C66.4237 542.144 58.2396 528.767 44.4254 517.198C21.3998 497.889 13.7209 472.068 19.7046 442.767C22.7863 427.679 19.8393 414.33 12.2278 401.465C-3.87103 374.19 -3.60722 346.921 12.5589 319.731C19.9684 307.264 22.6965 294.219 19.7944 279.618C13.5918 248.252 23.2465 222.846 47.4172 201.23C56.8306 192.849 64.706 179.737 67.4565 167.489C74.7818 134.825 91.6272 113.097 123.718 101.46C134.625 97.4805 145.363 87.4271 151.65 77.3345C161.826 61.0618 173.99 49.4481 188.86 42.3361L190.954 604.748L261.018 604.462L260.883 568.167C264.998 572.5 269.028 576.485 272.901 580.095C280.187 586.106 286.609 590.822 292.205 594.161C299.486 598.506 307.72 602.216 316.943 605.32C335.349 610.339 350.976 612.803 363.786 612.758L368.518 612.736C399.733 612.606 429.601 603.642 458.083 585.859C463.87 582.452 470.145 578.068 476.904 572.719C482.691 568.099 490.286 560.437 499.682 549.761C508.355 538.821 515.068 528.762 519.89 519.539C534.771 491.411 542.163 461.981 542.034 431.232C541.944 407.987 537.611 385.518 529.068 363.772C521.72 344.418 509.657 325.248 492.885 306.186C484.364 297.755 477.937 291.855 473.581 288.471C454.294 273.607 433.906 263.144 412.407 257.076C397.347 252.821 381.742 250.733 365.593 250.806H365.217C331.341 250.94 301.248 261.589 274.95 282.745C268.675 287.853 263.746 292.849 260.137 297.693H259.761L258.857 73.3492L258.548 23.6103ZM364.049 320.87C364.223 320.864 364.386 320.864 364.555 320.864C395.809 320.87 422.304 332.866 444.061 356.857C462.332 378.799 471.487 403.458 471.599 430.794L471.622 432.242C471.683 448.711 468.231 464.692 461.276 480.207C457.201 489.188 451.06 498.523 442.876 508.228C421.192 531.074 395.568 542.564 366.053 542.671C351.526 542.739 336.864 539.421 322.096 532.685C316.505 530.064 309.837 525.837 302.068 520.072L295.506 514.28C289.674 508.487 285.183 503.429 282.012 499.096C267.642 479.062 260.418 457.182 260.333 433.477L260.311 431.653C260.221 405.523 268.237 382.127 284.347 361.499C286.042 359.057 290.246 354.566 297.005 348.01C304.246 341.448 311.487 336.34 318.728 332.669C334.905 324.872 350.027 320.949 364.049 320.87Z" fill="url(#paint0_linear_823_20131)"/>
<path fill-rule="evenodd" clip-rule="evenodd" d="M258.552 23.6104L258.861 73.3492L259.764 297.693H260.14C263.75 292.849 268.678 287.853 274.954 282.745C301.252 261.589 331.344 250.94 365.22 250.806H365.596C381.746 250.733 397.351 252.821 412.411 257.076C433.91 263.144 454.297 273.607 473.584 288.471C477.94 291.855 484.367 297.755 492.888 306.186C509.66 325.248 521.723 344.418 529.071 363.772C537.614 385.518 541.948 407.987 542.038 431.232C542.167 461.981 534.774 491.411 519.893 519.539C515.072 528.762 508.358 538.821 499.686 549.761C490.289 560.437 482.694 568.099 476.907 572.719C470.149 578.068 463.873 582.452 458.086 585.859C429.604 603.642 399.736 612.606 368.521 612.735L363.789 612.758C350.98 612.803 335.352 610.339 316.946 605.32C307.724 602.216 299.495 598.495 292.209 594.161C286.618 590.816 280.191 586.106 272.905 580.095C269.032 576.485 265.001 572.5 260.887 568.167L261.022 604.462L190.957 604.748L188.863 42.3361C188.908 42.3193 188.953 42.2968 188.998 42.2743C200.062 36.9979 212.602 34.2025 226.96 33.8264C237.491 33.5401 249.587 29.6726 258.552 23.6104ZM364.053 320.87C350.031 320.932 334.909 324.872 318.731 332.669C311.49 336.34 304.249 341.448 297.008 348.01C290.25 354.566 286.046 359.057 284.35 361.499C268.24 382.127 260.225 405.523 260.314 431.653L260.337 433.477C260.421 457.182 267.645 479.062 282.015 499.096C285.187 503.429 289.677 508.487 295.509 514.28L302.071 520.072C309.84 525.837 316.509 530.064 322.099 532.685C336.868 539.421 351.53 542.739 366.057 542.671C395.571 542.564 421.196 531.074 442.88 508.228C451.064 498.523 457.205 489.188 461.28 480.207C468.235 464.692 471.687 448.711 471.625 432.242L471.603 430.794C471.49 403.458 462.335 378.799 444.064 356.857C422.307 332.866 395.813 320.87 364.558 320.865C364.39 320.865 364.227 320.865 364.053 320.87Z" fill="white"/>
<path d="M2406.39 127.12V461.088H2423.51V377.168L2454.34 348.053C2457.76 353.191 2476.6 377.168 2509.14 419.984C2531.41 445.674 2541.69 459.375 2543.4 461.088H2565.66L2468.04 336.064L2563.95 243.581H2538.26L2423.51 353.191V127.12H2406.39ZM1705.91 127.12V461.088H1723.03V414.846L1728.17 423.41C1750.44 449.1 1776.13 462.801 1805.24 462.801H1808.67C1832.64 462.801 1854.91 454.238 1875.46 435.398C1897.72 411.421 1908 384.019 1908 353.191V351.478C1908 324.076 1899.44 300.098 1882.31 277.834C1860.05 253.857 1836.07 241.868 1806.95 241.868C1796.68 241.868 1786.4 243.581 1776.13 247.006C1753.86 255.569 1735.02 269.271 1723.03 289.822V127.12H1705.91ZM1747.01 416.559C1731.6 397.72 1723.03 377.168 1723.03 353.191C1723.03 330.926 1729.88 310.374 1741.87 293.248C1760.71 270.983 1781.26 260.707 1806.95 260.707C1824.08 260.707 1839.49 265.845 1854.91 276.121C1878.88 296.673 1890.87 322.363 1890.87 351.478C1890.87 373.743 1884.02 392.582 1872.03 411.421C1853.2 433.686 1832.64 443.962 1806.95 443.962C1784.69 443.962 1764.14 435.398 1747.01 416.559ZM1118.46 127.12V461.088H1162.99V127.12H1118.46ZM853 127.12V461.088H897.529V438.824C899.242 440.536 902.667 443.962 904.38 445.674C909.518 449.1 912.943 452.525 916.369 454.238C921.507 457.663 926.644 459.375 931.782 461.088C943.771 464.513 954.047 466.226 960.898 466.226H964.323C984.875 466.226 1003.71 461.088 1020.84 449.1C1024.27 447.387 1027.69 445.674 1032.83 442.249C1036.25 438.824 1041.39 433.686 1046.53 426.835C1053.38 419.984 1056.81 414.846 1060.23 407.996C1068.8 390.869 1073.93 372.03 1073.93 353.191C1073.93 337.777 1072.22 324.076 1065.37 310.374C1061.94 298.386 1053.38 286.397 1043.11 274.409C1037.97 269.271 1034.54 265.845 1031.12 262.42C1010.56 247.006 988.3 238.443 964.323 238.443C943.771 238.443 923.219 245.293 906.093 258.995C902.667 262.42 899.242 265.845 897.529 267.558V127.12H853ZM935.208 416.559C931.782 414.846 928.357 411.421 923.219 407.996L918.081 404.57C914.656 401.145 912.943 397.72 911.231 394.295C900.955 382.306 897.529 368.605 897.529 353.191C897.529 336.064 902.667 320.65 912.943 308.662C912.943 306.949 916.369 303.524 919.794 300.098C924.932 294.96 930.07 293.248 933.495 289.822C943.771 284.685 954.047 282.972 962.61 282.972C981.45 282.972 998.576 289.822 1012.28 305.236C1024.27 318.938 1029.4 334.352 1029.4 353.191C1029.4 363.467 1027.69 373.743 1022.55 384.019C1020.84 389.157 1017.42 394.295 1012.28 401.145C998.576 414.846 981.45 421.697 962.61 421.697C954.047 421.697 945.484 419.984 935.208 416.559ZM1544.92 238.443C1524.36 238.443 1505.52 247.006 1484.97 262.42C1457.57 286.397 1443.87 317.225 1443.87 353.191C1443.87 378.881 1452.43 402.858 1467.85 425.122C1490.11 452.525 1515.8 466.226 1548.34 466.226C1579.17 466.226 1604.86 452.525 1628.84 426.835C1635.69 416.559 1640.82 407.996 1642.54 402.858C1642.54 402.858 1628.84 396.007 1603.15 384.019C1601.43 385.731 1601.43 387.444 1598.01 392.582C1584.31 413.134 1568.89 421.697 1548.34 421.697C1532.93 421.697 1519.23 416.559 1507.24 402.858C1498.67 394.295 1491.82 382.306 1488.4 365.179H1652.81C1652.81 365.179 1652.81 363.467 1652.81 360.041V353.191C1652.81 330.926 1647.68 310.374 1637.4 291.535C1632.26 284.685 1625.41 276.121 1615.13 265.845C1594.58 247.006 1574.03 238.443 1551.77 238.443H1544.92ZM1496.96 315.512C1510.66 293.248 1527.79 282.972 1548.34 282.972C1562.04 282.972 1574.03 288.11 1586.02 298.386C1594.58 306.949 1601.43 317.225 1603.15 324.076H1493.54L1496.96 315.512ZM1356.52 241.868V373.743C1356.52 390.869 1351.38 402.858 1341.11 407.996C1334.26 414.846 1320.56 416.559 1301.72 416.559H1298.29C1288.02 416.559 1279.45 414.846 1272.6 413.134C1257.19 406.283 1250.34 394.295 1250.34 375.455V243.581L1248.63 241.868H1205.81V375.455C1205.81 390.869 1209.23 404.57 1214.37 416.559C1231.5 445.674 1260.61 461.088 1300 461.088C1308.57 461.088 1318.84 459.375 1325.69 459.375C1337.68 454.238 1347.96 450.812 1356.52 443.962V459.375H1399.34L1401.05 243.581L1399.34 241.868H1356.52ZM2267.66 243.581C2241.97 243.581 2219.7 253.857 2199.15 274.409C2178.6 296.673 2168.32 322.363 2168.32 351.478V353.191C2168.32 377.168 2175.18 399.432 2190.59 419.984C2211.14 447.387 2236.83 461.088 2267.66 461.088C2293.35 461.088 2315.61 450.812 2336.17 431.973C2356.72 409.708 2366.99 384.019 2366.99 354.903V351.478C2366.99 327.501 2360.14 305.236 2344.73 282.972C2324.18 257.282 2298.49 243.581 2267.66 243.581ZM2219.7 426.835C2197.44 406.283 2185.45 382.306 2185.45 353.191C2185.45 332.639 2190.59 315.512 2202.58 298.386C2219.7 274.409 2241.97 262.42 2267.66 262.42C2289.92 262.42 2310.48 270.983 2325.89 289.822C2341.3 306.949 2349.87 329.214 2349.87 353.191C2349.87 375.455 2343.02 396.007 2327.6 414.846C2310.48 433.686 2289.92 443.962 2267.66 443.962C2250.53 443.962 2235.12 437.111 2219.7 426.835ZM2036.45 243.581C2010.76 243.581 1988.5 253.857 1967.94 274.409C1947.39 296.673 1937.12 322.363 1937.12 351.478V353.191C1937.12 377.168 1943.97 399.432 1959.38 419.984C1981.64 447.387 2007.33 461.088 2036.45 461.088C2062.14 461.088 2086.12 450.812 2104.96 431.973C2125.51 409.708 2137.5 384.019 2137.5 354.903V351.478C2137.5 327.501 2128.93 305.236 2113.52 282.972C2092.97 257.282 2065.57 243.581 2036.45 243.581ZM1990.21 426.835C1966.23 406.283 1954.24 382.306 1954.24 353.191C1954.24 332.639 1961.09 315.512 1971.37 298.386C1990.21 274.409 2010.76 262.42 2036.45 262.42C2058.71 262.42 2079.27 270.983 2096.39 289.822C2111.81 306.949 2118.66 329.214 2118.66 353.191C2118.66 375.455 2111.81 396.007 2096.39 414.846C2079.27 433.686 2060.43 443.962 2036.45 443.962C2021.04 443.962 2003.91 437.111 1990.21 426.835Z" fill="url(#paint1_linear_823_20131)"/>
<path d="M1997.62 557.34L2006.81 556.537C2007.24 560.219 2008.25 563.248 2009.82 565.625C2011.43 567.969 2013.91 569.877 2017.25 571.35C2020.6 572.789 2024.37 573.509 2028.55 573.509C2032.27 573.509 2035.55 572.957 2038.39 571.852C2041.24 570.747 2043.35 569.241 2044.72 567.333C2046.13 565.391 2046.83 563.282 2046.83 561.006C2046.83 558.696 2046.16 556.687 2044.82 554.98C2043.48 553.239 2041.27 551.783 2038.19 550.611C2036.22 549.841 2031.85 548.653 2025.09 547.046C2018.32 545.406 2013.59 543.866 2010.88 542.426C2007.36 540.585 2004.73 538.309 2002.99 535.597C2001.29 532.852 2000.43 529.789 2000.43 526.408C2000.43 522.692 2001.49 519.228 2003.6 516.014C2005.7 512.767 2008.78 510.306 2012.83 508.633C2016.89 506.959 2021.39 506.122 2026.34 506.122C2031.8 506.122 2036.6 507.009 2040.75 508.783C2044.94 510.524 2048.15 513.102 2050.39 516.516C2052.64 519.931 2053.84 523.797 2054.01 528.116L2044.67 528.819C2044.17 524.165 2042.46 520.65 2039.55 518.274C2036.67 515.897 2032.4 514.708 2026.74 514.708C2020.85 514.708 2016.55 515.796 2013.84 517.972C2011.16 520.115 2009.82 522.709 2009.82 525.755C2009.82 528.4 2010.78 530.576 2012.68 532.283C2014.56 533.991 2019.45 535.748 2027.35 537.556C2035.28 539.33 2040.72 540.887 2043.67 542.226C2047.95 544.201 2051.11 546.711 2053.16 549.758C2055.2 552.771 2056.22 556.252 2056.22 560.202C2056.22 564.119 2055.1 567.818 2052.85 571.299C2050.61 574.747 2047.38 577.442 2043.16 579.384C2038.98 581.292 2034.26 582.246 2029 582.246C2022.34 582.246 2016.75 581.275 2012.23 579.334C2007.75 577.392 2004.21 574.48 2001.64 570.596C1999.09 566.68 1997.75 562.261 1997.62 557.34ZM2071.18 580.991V507.377H2080.92V580.991H2071.18ZM2098.05 580.991V507.377H2108.04L2146.7 565.173V507.377H2156.04V580.991H2146.05L2107.39 523.144V580.991H2098.05ZM2224.99 555.181L2234.73 557.641C2232.69 565.642 2229.01 571.751 2223.68 575.969C2218.39 580.154 2211.92 582.246 2204.25 582.246C2196.32 582.246 2189.86 580.639 2184.87 577.426C2179.91 574.178 2176.13 569.492 2173.52 563.366C2170.94 557.24 2169.65 550.662 2169.65 543.632C2169.65 535.966 2171.11 529.287 2174.02 523.596C2176.97 517.872 2181.13 513.537 2186.52 510.591C2191.95 507.612 2197.91 506.122 2204.4 506.122C2211.77 506.122 2217.96 507.996 2222.98 511.746C2228 515.495 2231.5 520.768 2233.47 527.563L2223.88 529.823C2222.18 524.467 2219.7 520.567 2216.45 518.123C2213.2 515.679 2209.12 514.457 2204.2 514.457C2198.54 514.457 2193.81 515.813 2189.99 518.525C2186.21 521.236 2183.54 524.885 2182 529.471C2180.47 534.024 2179.7 538.727 2179.7 543.581C2179.7 549.841 2180.6 555.315 2182.41 560.001C2184.25 564.654 2187.09 568.136 2190.94 570.446C2194.79 572.756 2198.96 573.911 2203.45 573.911C2208.9 573.911 2213.52 572.337 2217.31 569.19C2221.09 566.044 2223.65 561.374 2224.99 555.181ZM2246.98 580.991V507.377H2300.21V516.064H2256.72V538.61H2297.45V547.247H2256.72V572.304H2301.92V580.991H2246.98ZM2374.37 580.991H2365.34V523.395C2363.16 525.471 2360.3 527.546 2356.75 529.622C2353.23 531.697 2350.07 533.254 2347.26 534.292V525.555C2352.31 523.178 2356.73 520.299 2360.52 516.918C2364.3 513.537 2366.98 510.256 2368.55 507.076H2374.37V580.991ZM2398.93 563.968L2407.62 563.165C2408.35 567.249 2409.76 570.211 2411.83 572.053C2413.91 573.894 2416.57 574.814 2419.82 574.814C2422.6 574.814 2425.02 574.178 2427.1 572.906C2429.21 571.634 2430.93 569.944 2432.27 567.835C2433.61 565.692 2434.73 562.813 2435.64 559.198C2436.54 555.583 2436.99 551.9 2436.99 548.151C2436.99 547.749 2436.97 547.147 2436.94 546.343C2435.13 549.222 2432.66 551.565 2429.51 553.373C2426.4 555.147 2423.01 556.034 2419.37 556.034C2413.27 556.034 2408.12 553.825 2403.9 549.406C2399.68 544.987 2397.57 539.163 2397.57 531.932C2397.57 524.467 2399.77 518.458 2404.15 513.905C2408.57 509.352 2414.09 507.076 2420.72 507.076C2425.51 507.076 2429.88 508.365 2433.83 510.942C2437.81 513.52 2440.82 517.202 2442.87 521.989C2444.94 526.743 2445.98 533.639 2445.98 542.678C2445.98 552.084 2444.96 559.583 2442.92 565.173C2440.87 570.73 2437.83 574.965 2433.78 577.877C2429.76 580.79 2425.04 582.246 2419.62 582.246C2413.86 582.246 2409.16 580.656 2405.51 577.476C2401.86 574.262 2399.67 569.76 2398.93 563.968ZM2435.94 531.48C2435.94 526.291 2434.55 522.174 2431.77 519.127C2429.02 516.081 2425.71 514.558 2421.83 514.558C2417.81 514.558 2414.31 516.198 2411.33 519.479C2408.35 522.759 2406.86 527.011 2406.86 532.233C2406.86 536.92 2408.27 540.736 2411.08 543.682C2413.93 546.594 2417.42 548.05 2421.58 548.05C2425.76 548.05 2429.19 546.594 2431.87 543.682C2434.58 540.736 2435.94 536.669 2435.94 531.48ZM2454.82 544.686C2454.82 535.982 2455.7 528.986 2457.48 523.697C2459.29 518.374 2461.95 514.273 2465.46 511.394C2469.01 508.515 2473.46 507.076 2478.82 507.076C2482.77 507.076 2486.23 507.879 2489.21 509.486C2492.19 511.06 2494.65 513.353 2496.59 516.365C2498.54 519.345 2500.06 522.994 2501.16 527.312C2502.27 531.597 2502.82 537.388 2502.82 544.686C2502.82 553.323 2501.93 560.303 2500.16 565.625C2498.39 570.914 2495.72 575.015 2492.18 577.928C2488.66 580.807 2484.21 582.246 2478.82 582.246C2471.72 582.246 2466.15 579.702 2462.1 574.614C2457.24 568.487 2454.82 558.512 2454.82 544.686ZM2464.11 544.686C2464.11 556.771 2465.51 564.822 2468.32 568.839C2471.17 572.823 2474.67 574.814 2478.82 574.814C2482.97 574.814 2486.45 572.806 2489.26 568.789C2492.11 564.772 2493.53 556.737 2493.53 544.686C2493.53 532.568 2492.11 524.517 2489.26 520.533C2486.45 516.55 2482.94 514.558 2478.72 514.558C2474.57 514.558 2471.25 516.315 2468.78 519.83C2465.66 524.316 2464.11 532.601 2464.11 544.686ZM2546.11 580.991H2537.07V523.395C2534.89 525.471 2532.03 527.546 2528.48 529.622C2524.97 531.697 2521.8 533.254 2518.99 534.292V525.555C2524.05 523.178 2528.46 520.299 2532.25 516.918C2536.03 513.537 2538.71 510.256 2540.28 507.076H2546.11V580.991Z" fill="#1A3D6C"/>
</g>
<defs>
<linearGradient id="paint0_linear_823_20131" x1="0.294" y1="360.965" x2="730.533" y2="360.965" gradientUnits="userSpaceOnUse">
<stop stop-color="#0062AF"/>
<stop offset="1" stop-color="#1A3D6C"/>
</linearGradient>
<linearGradient id="paint1_linear_823_20131" x1="853" y1="296.673" x2="2565.66" y2="296.673" gradientUnits="userSpaceOnUse">
<stop stop-color="#0062AF"/>
<stop offset="1" stop-color="#1A3D6C"/>
</linearGradient>
<clipPath id="clip0_823_20131">
<rect width="2566" height="722" fill="white"/>
</clipPath>
</defs>
</svg>
