<svg width="349" height="303" viewBox="0 0 349 303" fill="none" xmlns="http://www.w3.org/2000/svg">
<rect x="169" y="104" width="2.443" height="3.03" transform="rotate(-122 169 104)" fill="#9AF5FC" fill-opacity="0.45"/>
<rect x="311" y="4" width="11.443" height="5.03" transform="rotate(81 311 4)" fill="#F62584" fill-opacity="0.75"/>
<rect x="106" y="245" width="13.443" height="5.03" transform="rotate(-105 106 245)" fill="#480CA7" fill-opacity="0.45"/>
<rect x="213" y="96" width="13.443" height="6.03" transform="rotate(167 213 96)" fill="#480CA7" fill-opacity="0.65"/>
<rect x="322" y="175" width="3.443" height="6.03" transform="rotate(-16 322 175)" fill="#4BC8EF" fill-opacity="0.75"/>
<rect x="103" y="199" width="2.443" height="5.03" transform="rotate(-94 103 199)" fill="#4BC8EF" fill-opacity="0.35"/>
<rect x="305" y="179" width="7.443" height="5.03" transform="rotate(-63 305 179)" fill="#FFED36" fill-opacity="0.6"/>
<rect x="266" y="199" width="12.443" height="3.03" transform="rotate(174 266 199)" fill="#9DED1A" fill-opacity="0.65"/>
<rect x="250" y="212" width="6.443" height="6.03" transform="rotate(-76 250 212)" fill="#DCBCFA" fill-opacity="0.45"/>
<rect x="75" y="65" width="13.443" height="5.03" transform="rotate(85 75 65)" fill="#9AF5FC" fill-opacity="0.6"/>
<rect x="282" y="168" width="12.443" height="3.03" transform="rotate(-5 282 168)" fill="#FFED36" fill-opacity="0.45"/>
<rect x="274" y="177" width="4.443" height="3.03" transform="rotate(172 274 177)" fill="#FC9E1C" fill-opacity="0.85"/>
<rect x="212" y="49" width="5.443" height="5.03" transform="rotate(32 212 49)" fill="#755FFE" fill-opacity="0.85"/>
<rect x="134" y="3" width="13.443" height="3.03" transform="rotate(-146 134 3)" fill="#DCBCFA" fill-opacity="0.45"/>
<rect x="233" y="202" width="2.443" height="4.03" transform="rotate(-9 233 202)" fill="#BA3E03"/>
<rect x="193" y="299" width="4.443" height="6.03" transform="rotate(-42 193 299)" fill="#4BC8EF" fill-opacity="0.35"/>
<rect x="128" y="78" width="9.443" height="3.03" transform="rotate(149 128 78)" fill="#9AF5FC" fill-opacity="0.45"/>
<rect x="102" y="300.488" width="12.443" height="6.03" transform="rotate(-37 102 300.488)" fill="#FF21FB" fill-opacity="0.2"/>
<rect x="204" y="31" width="9.443" height="5.03" transform="rotate(16 204 31)" fill="#755FFE" fill-opacity="0.65"/>
<rect x="13" y="63" width="11.443" height="5.03" transform="rotate(99 13 63)" fill="#755FFE" fill-opacity="0.45"/>
<rect x="15" y="138" width="12.443" height="4.03" transform="rotate(-121 15 138)" fill="#9AF5FC"/>
<rect x="309" y="195" width="6.443" height="3.03" transform="rotate(1 309 195)" fill="#03A3F5" fill-opacity="0.65"/>
<rect x="112" y="82" width="14.443" height="3.03" fill="#03A3F5" fill-opacity="0.65"/>
<rect x="334" y="237" width="4.443" height="4.03" transform="rotate(-126 334 237)" fill="#755FFE" fill-opacity="0.6"/>
<rect x="49" y="94" width="5.443" height="3.03" transform="rotate(-133 49 94)" fill="#F62584" fill-opacity="0.65"/>
<rect x="236" y="73" width="8.443" height="5.03" transform="rotate(35 236 73)" fill="#4BC8EF" fill-opacity="0.45"/>
<rect x="234" y="6" width="9.443" height="4.03" transform="rotate(-85 234 6)" fill="#BA3E03" fill-opacity="0.9"/>
<rect x="217" y="87" width="8.443" height="6.03" transform="rotate(163 217 87)" fill="#9DED1A" fill-opacity="0.85"/>
<rect x="1" y="301" width="4.443" height="5.03" transform="rotate(12 1 301)" fill="#9AF5FC" fill-opacity="0.65"/>
<rect x="290" y="192" width="8.443" height="5.03" transform="rotate(42 290 192)" fill="#C9FCBE" fill-opacity="0.65"/>
<rect x="212" y="1" width="14.443" height="4.03" transform="rotate(139 212 1)" fill="#755FFE" fill-opacity="0.65"/>
<rect x="103" y="267" width="10.443" height="6.03" transform="rotate(3 103 267)" fill="#C9FCBE" fill-opacity="0.45"/>
<rect x="295" y="65" width="8.443" height="6.03" transform="rotate(71 295 65)" fill="#480CA7" fill-opacity="0.45"/>
<circle cx="114.872" cy="91.8725" r="2.8725" fill="#9DED1A" fill-opacity="0.6"/>
<circle cx="106.372" cy="12.3725" r="1.3725" fill="#9AF5FC"/>
<circle cx="169.872" cy="200.872" r="0.8725" fill="#9DED1A" fill-opacity="0.35"/>
<circle cx="277.372" cy="98.3725" r="1.3725" fill="#C9FCBE" fill-opacity="0.75"/>
<circle cx="133.872" cy="71.8725" r="1.8725" fill="#FF21FB" fill-opacity="0.35"/>
<circle cx="250.872" cy="191.872" r="0.8725" fill="#480CA7"/>
<circle cx="1.8725" cy="50.8725" r="1.8725" fill="#755FFE" fill-opacity="0.65"/>
<circle cx="96.3725" cy="266.372" r="1.3725" fill="#DCBCFA" fill-opacity="0.6"/>
<circle cx="81.3725" cy="123.372" r="2.3725" fill="#03A3F5" fill-opacity="0.85"/>
<circle cx="281.372" cy="64.3725" r="2.3725" fill="#F54721" fill-opacity="0.6"/>
<circle cx="57.8725" cy="148.872" r="0.8725" fill="#4BC8EF"/>
<circle cx="9.8725" cy="267.872" r="0.8725" fill="#9DED1A" fill-opacity="0.75"/>
<circle cx="266.372" cy="48.3725" r="2.3725" fill="#03A3F5"/>
<circle cx="11.3725" cy="56.3725" r="1.3725" fill="#755FFE" fill-opacity="0.75"/>
<circle cx="296.372" cy="149.372" r="1.3725" fill="#F54721" fill-opacity="0.85"/>
<circle cx="252.372" cy="190.372" r="2.3725" fill="#DCBCFA" fill-opacity="0.6"/>
<circle cx="297.372" cy="32.3725" r="2.3725" fill="#480CA7" fill-opacity="0.65"/>
<circle cx="188.872" cy="253.872" r="0.8725" fill="#9AF5FC" fill-opacity="0.6"/>
<circle cx="33.3725" cy="277.372" r="2.3725" fill="#755FFE" fill-opacity="0.9"/>
<circle cx="238.372" cy="185.372" r="1.3725" fill="#FFED36" fill-opacity="0.75"/>
<circle cx="111.372" cy="71.3725" r="1.3725" fill="#BA3E03" fill-opacity="0.9"/>
<circle cx="45.3725" cy="273.372" r="1.3725" fill="#480CA7" fill-opacity="0.85"/>
<circle cx="270.372" cy="137.372" r="2.3725" fill="#FFED36" fill-opacity="0.6"/>
<circle cx="286.872" cy="101.872" r="0.8725" fill="#F62584" fill-opacity="0.45"/>
<circle cx="42.8725" cy="18.8725" r="2.8725" fill="#FC9E1C" fill-opacity="0.75"/>
<circle cx="344.372" cy="64.3725" r="1.3725" fill="#C9FCBE" fill-opacity="0.9"/>
<circle cx="120.372" cy="88.3725" r="2.3725" fill="#9DED1A" fill-opacity="0.45"/>
<circle cx="145.872" cy="230.872" r="0.8725" fill="#C9FCBE" fill-opacity="0.35"/>
<circle cx="213.872" cy="84.8725" r="0.8725" fill="#03A3F5" fill-opacity="0.35"/>
<circle cx="71.8725" cy="136.872" r="0.8725" fill="#FFED36" fill-opacity="0.6"/>
<circle cx="196.372" cy="177.372" r="2.3725" fill="#F54721" fill-opacity="0.75"/>
<circle cx="290.372" cy="219.372" r="2.3725" fill="#BA3E03" fill-opacity="0.35"/>
<circle cx="32.3725" cy="35.3725" r="1.3725" fill="#FF21FB" fill-opacity="0.75"/>
<circle cx="287.872" cy="190.872" r="0.8725" fill="#4BC8EF" fill-opacity="0.65"/>
<path d="M196.264 271.739L192.789 267.742L196.787 264.267L200.261 268.264L196.264 271.739Z" fill="#FF21FB" fill-opacity="0.75"/>
<path d="M80.2625 226.418L81.9961 223.943L83.2735 226.682L80.2625 226.418Z" fill="#FC9E1C" fill-opacity="0.75"/>
<path d="M167.984 6.01779L166.95 9.01973L163.949 7.98608L164.982 4.98414L167.984 6.01779Z" fill="#9DED1A" fill-opacity="0.85"/>
<path d="M0 140.255L1.745 138.51L3.49 140.255L1.745 142L0 140.255Z" fill="#F54721" fill-opacity="0.65"/>
<path d="M133.964 144.68L138.512 147.984L133.377 150.27L133.964 144.68Z" fill="#4BC8EF" fill-opacity="0.9"/>
<path d="M281.358 161.469L282.233 157.68L285.077 160.332L281.358 161.469Z" fill="#9AF5FC" fill-opacity="0.85"/>
<path d="M337.757 173.272L340.139 171.411L340.559 174.404L337.757 173.272Z" fill="#DCBCFA" fill-opacity="0.75"/>
<path d="M156.883 43.2419L155.222 45.2929L152.758 44.3471L152.896 41.7116L155.445 41.0285L156.883 43.2419Z" fill="#9DED1A" fill-opacity="0.9"/>
<path d="M265.594 97.7098L266.62 99.1215L265.91 100.716L264.175 100.898L263.149 99.4863L263.859 97.8922L265.594 97.7098Z" fill="#480CA7" fill-opacity="0.75"/>
<path d="M61.5112 134.127L63.2562 134.127L64.1287 135.639L63.2562 137.15L61.5112 137.15L60.6387 135.639L61.5112 134.127Z" fill="#4BC8EF" fill-opacity="0.45"/>
<path d="M162.122 107.259L163.44 105.688L165.342 106.456L165.199 108.503L163.209 108.999L162.122 107.259Z" fill="#4BC8EF" fill-opacity="0.6"/>
<path d="M269.984 225.437L273.53 223.858L275.109 227.405L271.563 228.984L269.984 225.437Z" fill="#FF21FB" fill-opacity="0.9"/>
<path d="M174.768 302.11L174.04 304.647L171.403 304.739L170.5 302.259L172.58 300.634L174.768 302.11Z" fill="#F62584" fill-opacity="0.9"/>
<path d="M12.6946 28.5238L14.7662 30.3247L14.2425 33.0192L11.647 33.9129L9.57535 32.112L10.0991 29.4175L12.6946 28.5238Z" fill="#DCBCFA" fill-opacity="0.75"/>
<path d="M268.543 251.822L272.281 250.75L271.34 254.523L268.543 251.822Z" fill="#4BC8EF" fill-opacity="0.85"/>
<path d="M271.502 54.6684L270.301 58.3665L267.699 55.4768L271.502 54.6684Z" fill="#F62584" fill-opacity="0.6"/>
<path d="M167.334 154.254L165.975 159.708L161.931 155.803L167.334 154.254Z" fill="#480CA7" fill-opacity="0.9"/>
<path d="M162.837 61.0399L161.368 65.5617L158.186 62.0284L162.837 61.0399Z" fill="#FFED36" fill-opacity="0.75"/>
<path d="M-0.510189 210.331L0.648375 208.152L2.82732 209.311L1.66875 211.49L-0.510189 210.331Z" fill="#F54721" fill-opacity="0.35"/>
<path d="M163.357 297.09L166.853 295.748L169.763 298.104L169.178 301.803L165.681 303.145L162.771 300.788L163.357 297.09Z" fill="#DCBCFA" fill-opacity="0.35"/>
<path d="M281.872 158.008L280.482 162.554L277.239 159.077L281.872 158.008Z" fill="#BA3E03" fill-opacity="0.65"/>
<path d="M85.3196 200.184L87.8296 199.368L89.3808 201.503L87.8296 203.638L85.3196 202.823L85.3196 200.184Z" fill="#C9FCBE" fill-opacity="0.45"/>
<path d="M68.9837 124.563L68.5543 127.274L65.9916 128.258L63.8584 126.53L64.2878 123.819L66.8505 122.835L68.9837 124.563Z" fill="#F62584"/>
<path d="M123.031 194.617L119.609 197.388L115.917 194.99L117.057 190.738L121.453 190.507L123.031 194.617Z" fill="#F54721" fill-opacity="0.75"/>
<path d="M164.686 120.548L166.601 121.284L166.493 123.332L164.512 123.863L163.395 122.143L164.686 120.548Z" fill="#FFED36" fill-opacity="0.85"/>
<path d="M324.7 53.6075L326.589 54.409L326.41 56.4526L324.411 56.914L323.354 55.1556L324.7 53.6075Z" fill="#DCBCFA" fill-opacity="0.65"/>
<path d="M320.169 4.41895L322.337 5L322.918 7.1685L321.331 8.75596L319.162 8.17491L318.581 6.00641L320.169 4.41895Z" fill="#FC9E1C" fill-opacity="0.45"/>
<path d="M55.8953 224.094L52.1594 224.355L50.0652 221.251L51.7069 217.885L55.4428 217.623L57.537 220.728L55.8953 224.094Z" fill="#FFED36"/>
<path d="M57.272 240.757L55.7963 239.332L56.6956 237.488L58.727 237.774L59.0832 239.794L57.272 240.757Z" fill="#03A3F5"/>
<path d="M20.0513 122.897L23.8844 118.786L25.5277 124.161L20.0513 122.897Z" fill="#FF21FB" fill-opacity="0.9"/>
<path d="M331.134 116.84L333.429 119.134L332.589 122.269L329.455 123.109L327.16 120.814L328 117.68L331.134 116.84Z" fill="#C9FCBE" fill-opacity="0.45"/>
<path d="M28.9845 232.176L29.1152 235.919L25.9393 237.903L22.6327 236.145L22.502 232.402L25.6779 230.418L28.9845 232.176Z" fill="#FFED36" fill-opacity="0.6"/>
<path d="M51.3925 244.3L53.4854 242.992L54.7931 245.085L52.7003 246.393L51.3925 244.3Z" fill="#C9FCBE" fill-opacity="0.6"/>
<path d="M19.5042 188.101L18.6583 186.575L19.557 185.079L21.3017 185.11L22.1477 186.636L21.249 188.132L19.5042 188.101Z" fill="#4BC8EF" fill-opacity="0.75"/>
<path d="M35.2101 299.929L34.6692 302.793L36.4914 305.068L33.6273 304.527L31.3525 306.349L31.8933 303.485L30.0712 301.21L32.9352 301.751L35.2101 299.929Z" fill="#FC9E1C" fill-opacity="0.65"/>
<path d="M46.3345 133.725L44.5751 134.469L45.262 136.251L43.7378 135.1L42.5374 136.586L42.7726 134.69L40.8855 134.394L42.6448 133.649L41.958 131.867L43.4822 133.018L44.6825 131.532L44.4474 133.428L46.3345 133.725Z" fill="#F54721" fill-opacity="0.45"/>
<path d="M54.6932 150.578L55.299 151.63L56.3706 151.059L55.7621 152.11L56.7927 152.752L55.5783 152.75L55.5375 153.964L54.9316 152.912L53.8601 153.483L54.4686 152.432L53.4379 151.79L54.6523 151.792L54.6932 150.578Z" fill="#4BC8EF" fill-opacity="0.85"/>
<path d="M44.9601 48.8368L43.3413 47.8224L42.2751 49.4075L42.3441 47.4984L40.4383 47.3675L42.1261 46.4728L41.2865 44.7569L42.9053 45.7712L43.9716 44.1862L43.9025 46.0952L45.8083 46.2261L44.1205 47.1208L44.9601 48.8368Z" fill="#DCBCFA"/>
<path d="M233.867 220.727L232.194 219.641L230.644 220.896L231.16 218.97L229.488 217.884L231.479 217.779L231.996 215.853L232.71 217.715L234.702 217.61L233.152 218.866L233.867 220.727Z" fill="#C9FCBE" fill-opacity="0.35"/>
<path d="M208.897 234.949L207.366 232.94L204.845 232.794L206.854 231.264L206.999 228.742L208.53 230.751L211.051 230.897L209.042 232.427L208.897 234.949Z" fill="#4BC8EF" fill-opacity="0.35"/>
<path d="M97.3709 111.625L96.573 110.64L95.3894 111.094L96.0799 110.031L95.2821 109.046L96.5067 109.374L97.1972 108.311L97.2635 109.577L98.4882 109.905L97.3045 110.359L97.3709 111.625Z" fill="#4BC8EF" fill-opacity="0.75"/>
<path d="M64.6192 203.185L62.4614 204.498L62.053 206.99L60.7407 204.832L58.2484 204.424L60.4062 203.111L60.8146 200.619L62.1269 202.777L64.6192 203.185Z" fill="#03A3F5" fill-opacity="0.65"/>
<path d="M264.31 71.1631L262.54 70.4452L261.765 72.1914L261.501 70.2993L259.602 70.5014L261.109 69.3272L259.984 67.7831L261.754 68.5009L262.529 66.7548L262.792 68.6469L264.692 68.4448L263.185 69.619L264.31 71.1631Z" fill="#9DED1A" fill-opacity="0.75"/>
<path d="M127.741 76.8783L128.155 78.02L129.309 77.6432L128.527 78.5725L129.431 79.384L128.235 79.1716L127.984 80.3598L127.57 79.2181L126.416 79.5948L127.198 78.6655L126.294 77.8541L127.49 78.0664L127.741 76.8783Z" fill="#9DED1A"/>
<path d="M298.683 37.1448L297.492 36.4928L296.221 36.9727L296.873 35.7814L296.393 34.5109L297.585 35.1629L298.855 34.683L298.203 35.8743L298.683 37.1448Z" fill="#FFED36"/>
<path d="M123.371 296.375L123.437 295.109L122.254 294.654L123.478 294.326L123.545 293.06L124.235 294.123L125.46 293.795L124.662 294.78L125.352 295.844L124.169 295.389L123.371 296.375Z" fill="#FFED36" fill-opacity="0.75"/>
<path d="M267.162 235.573L265.567 233.974L263.917 235.517L264.505 233.336L262.344 232.678L264.526 232.097L264.015 229.897L265.61 231.496L267.26 229.954L266.673 232.134L268.833 232.792L266.651 233.373L267.162 235.573Z" fill="#FFED36" fill-opacity="0.9"/>
<path d="M215.233 157.765L216.007 159.332L217.7 159.763L216.134 160.538L215.702 162.231L214.928 160.664L213.235 160.233L214.801 159.458L215.233 157.765Z" fill="#480CA7" fill-opacity="0.35"/>
<path d="M110.385 192.44L111.087 190.841L110.33 189.266L111.93 189.968L113.504 189.211L112.802 190.811L113.56 192.385L111.96 191.683L110.385 192.44Z" fill="#9AF5FC" fill-opacity="0.85"/>
<path d="M108.606 206.318L109.538 207.306L110.894 207.243L109.906 208.174L109.97 209.531L109.038 208.542L107.682 208.606L108.67 207.675L108.606 206.318Z" fill="#480CA7" fill-opacity="0.9"/>
<path d="M74.6179 183.654L74.5295 184.918L75.705 185.393L74.4748 185.7L74.3864 186.965L73.7146 185.89L72.4844 186.196L73.2993 185.225L72.6275 184.15L73.803 184.625L74.6179 183.654Z" fill="#4BC8EF" fill-opacity="0.35"/>
<path d="M349.123 65.2691L350.229 66.6211L351.976 66.6609L350.624 67.7677L350.584 69.5145L349.478 68.1625L347.731 68.1227L349.083 67.0159L349.123 65.2691Z" fill="#FC9E1C" fill-opacity="0.35"/>
<path d="M334.32 113.816L333.356 115.046L334.554 116.049L333.007 115.83L332.738 117.369L332.155 115.919L330.687 116.455L331.651 115.225L330.452 114.223L331.999 114.442L332.269 112.903L332.852 114.352L334.32 113.816Z" fill="#FFED36" fill-opacity="0.85"/>
<path d="M194.935 165.256L197.507 164.37L197.46 161.649L199.097 163.822L201.67 162.936L200.109 165.165L201.747 167.338L199.145 166.543L197.584 168.772L197.537 166.051L194.935 165.256Z" fill="#DCBCFA" fill-opacity="0.85"/>
<path d="M300.337 303.122L299.841 304.23L300.934 304.761L299.726 304.887L299.812 306.098L299.099 305.115L298.093 305.795L298.589 304.686L297.497 304.155L298.704 304.03L298.618 302.819L299.331 303.802L300.337 303.122Z" fill="#480CA7" fill-opacity="0.6"/>
<path d="M49.4888 150.873L48.6163 150.028L47.7438 150.873L48.0391 149.695L46.8713 149.361L48.0391 149.028L47.7438 147.85L48.6163 148.695L49.4888 147.85L49.1935 149.028L50.3613 149.361L49.1935 149.695L49.4888 150.873Z" fill="#DCBCFA" fill-opacity="0.65"/>
<path d="M109.568 24.6499L108.517 25.5102L108.486 26.868L107.626 25.8171L106.268 25.7862L107.319 24.9259L107.35 23.5681L108.21 24.619L109.568 24.6499Z" fill="#F54721" fill-opacity="0.85"/>
<path d="M313.711 276.571L314.516 278.303L316.274 277.554L315.176 279.118L316.703 280.266L314.8 280.097L314.57 281.993L313.765 280.261L312.007 281.009L313.105 279.446L311.578 278.298L313.481 278.467L313.711 276.571Z" fill="#FFED36" fill-opacity="0.45"/>
<path d="M283.061 92.4205L284.69 91.0386L284.702 88.9022L286.084 90.5314L288.22 90.5429L286.591 91.9248L286.579 94.0612L285.197 92.432L283.061 92.4205Z" fill="#FFED36" fill-opacity="0.75"/>
<path d="M343.907 101.975L342.971 103.736L344.356 105.17L342.392 104.824L341.456 106.585L341.178 104.61L339.214 104.263L341.006 103.389L340.729 101.414L342.114 102.849L343.907 101.975Z" fill="#03A3F5" fill-opacity="0.75"/>
<path d="M273.669 289.49L274.492 290.57L275.848 290.648L274.767 291.471L274.689 292.827L273.866 291.747L272.51 291.669L273.59 290.846L273.669 289.49Z" fill="#9AF5FC" fill-opacity="0.65"/>
<path d="M159.844 174.924L158.254 174.557L157.414 175.956L157.272 174.331L155.683 173.964L157.184 173.326L157.042 171.702L158.112 172.933L159.614 172.295L158.774 173.693L159.844 174.924Z" fill="#BA3E03" fill-opacity="0.45"/>
<path d="M313.215 47.1486L310.958 47.2246L310.961 49.4829L309.766 47.5662L307.812 48.6978L308.875 46.7052L306.918 45.5785L309.175 45.5026L309.172 43.2443L310.366 45.1609L312.321 44.0293L311.258 46.0219L313.215 47.1486Z" fill="#FC9E1C" fill-opacity="0.9"/>
<path d="M270.711 275.429L270.942 277.326L272.844 277.157L271.317 278.305L272.415 279.868L270.658 279.119L269.852 280.852L269.622 278.955L267.719 279.124L269.246 277.977L268.149 276.413L269.906 277.162L270.711 275.429Z" fill="#DCBCFA"/>
<path d="M167.432 243.35L168.483 242.49L168.514 241.132L169.374 242.183L170.732 242.214L169.681 243.074L169.65 244.432L168.79 243.381L167.432 243.35Z" fill="#DCBCFA" fill-opacity="0.65"/>
<path d="M68.732 82.2127L69.0446 83.5343L70.2513 84.1573L68.9297 84.4699L68.3067 85.6766L67.9941 84.355L66.7873 83.732L68.109 83.4194L68.732 82.2127Z" fill="#BA3E03" fill-opacity="0.6"/>
<path d="M158.64 163.403L159.352 164.387L160.358 163.706L159.863 164.815L160.955 165.346L159.747 165.471L159.833 166.683L159.121 165.699L158.115 166.38L158.61 165.271L157.518 164.74L158.726 164.615L158.64 163.403Z" fill="#4BC8EF" fill-opacity="0.9"/>
<path d="M237.459 12.7807L237.507 10.0603L234.934 9.17442L237.536 8.37891L237.583 5.65842L239.144 7.88725L241.746 7.09174L240.109 9.26475L241.669 11.4936L239.097 10.6077L237.459 12.7807Z" fill="#9AF5FC" fill-opacity="0.65"/>
</svg>
