<svg width="162" height="137" viewBox="0 0 162 137" fill="none" xmlns="http://www.w3.org/2000/svg">
<path d="M150.429 0H11.5714C5.18071 0 0 4.38121 0 9.78571L0 127.214C0 132.619 5.18071 137 11.5714 137H150.429C156.819 137 162 132.619 162 127.214L162 9.78571C162 4.38121 156.819 0 150.429 0Z" fill="#EAECF0"/>
<g filter="url(#filter0_d_399_4942)">
<path d="M146.16 9.79736H13.9023C11.197 9.79736 9.00391 11.9905 9.00391 14.6958L9.00391 39.188C9.00391 41.8934 11.197 44.0865 13.9023 44.0865H146.16C148.866 44.0865 151.059 41.8934 151.059 39.188V14.6958C151.059 11.9905 148.866 9.79736 146.16 9.79736Z" fill="white"/>
</g>
<path d="M76.6004 17.6343H51.1285C49.5053 17.6343 48.1895 18.9501 48.1895 20.5733C48.1895 22.1965 49.5053 23.5124 51.1285 23.5124H76.6004C78.2236 23.5124 79.5395 22.1965 79.5395 20.5733C79.5395 18.9501 78.2236 17.6343 76.6004 17.6343Z" fill="#D0D5DD"/>
<path d="M94.2348 30.3701H51.1285C49.5053 30.3701 48.1895 31.686 48.1895 33.3092C48.1895 34.9324 49.5053 36.2482 51.1285 36.2482H94.2348C95.858 36.2482 97.1739 34.9324 97.1739 33.3092C97.1739 31.686 95.858 30.3701 94.2348 30.3701Z" fill="#EAECF0"/>
<path d="M35.4559 12.7373H16.8418C14.1365 12.7373 11.9434 14.9304 11.9434 17.6357L11.9434 36.2498C11.9434 38.9552 14.1365 41.1483 16.8418 41.1483H35.4559C38.1612 41.1483 40.3543 38.9552 40.3543 36.2498L40.3543 17.6357C40.3543 14.9304 38.1612 12.7373 35.4559 12.7373Z" fill="#98A2B3"/>
<path d="M23.9148 30.1564H25.8742L25.8957 29.402C25.8957 28.4106 26.5208 28.152 27.4045 27.8718C28.2909 27.6196 29.0711 27.0857 29.6272 26.3508C30.1832 25.6158 30.4849 24.7198 30.4866 23.7982C30.506 23.2355 30.4084 22.675 30.1999 22.152C29.9914 21.629 29.6767 21.1549 29.2755 20.7599C28.8744 20.3648 28.3956 20.0573 27.8695 19.8569C27.3434 19.6564 26.7814 19.5674 26.219 19.5954C25.6248 19.5824 25.0341 19.6903 24.4827 19.9125C23.9314 20.1347 23.431 20.4666 23.0118 20.888C22.5926 21.3094 22.2633 21.8115 22.044 22.364C21.8247 22.9165 21.7199 23.5077 21.736 24.1019H23.762C23.7543 23.7739 23.8122 23.4475 23.9322 23.1421C24.0522 22.8367 24.232 22.5583 24.4611 22.3233C24.6901 22.0882 24.9637 21.9013 25.2659 21.7733C25.5681 21.6454 25.8928 21.5791 26.221 21.5783C26.5169 21.5611 26.8131 21.6079 27.0894 21.7153C27.3656 21.8228 27.6155 21.9885 27.822 22.2012C28.0286 22.4139 28.1869 22.6685 28.2862 22.9478C28.3856 23.2271 28.4237 23.5245 28.3979 23.8198C28.3848 24.2978 28.2186 24.7589 27.9237 25.1353C27.6288 25.5117 27.2208 25.7834 26.7598 25.9104L26.0486 26.1926C25.3522 26.3604 24.7443 26.7835 24.3451 27.3783C23.9459 27.973 23.7847 28.696 23.8933 29.404L23.9148 30.1564ZM24.8847 34.8138C25.0766 34.8207 25.2678 34.7889 25.4472 34.7206C25.6266 34.6522 25.7905 34.5485 25.9291 34.4157C26.0678 34.2829 26.1784 34.1237 26.2544 33.9474C26.3305 33.7711 26.3704 33.5814 26.3719 33.3894C26.3702 33.1976 26.33 33.008 26.2539 32.832C26.1777 32.6559 26.0671 32.4969 25.9284 32.3643C25.7898 32.2317 25.6261 32.1282 25.4468 32.06C25.2675 31.9917 25.0764 31.9601 24.8847 31.9669C24.693 31.9601 24.5019 31.9917 24.3226 32.06C24.1433 32.1282 23.9796 32.2317 23.8409 32.3643C23.7023 32.4969 23.5917 32.6559 23.5155 32.832C23.4394 33.008 23.3992 33.1976 23.3975 33.3894C23.399 33.5814 23.4389 33.7711 23.5149 33.9474C23.591 34.1237 23.7016 34.2829 23.8402 34.4157C23.9789 34.5485 24.1428 34.6522 24.3222 34.7206C24.5015 34.7889 24.6928 34.8207 24.8847 34.8138V34.8138Z" fill="white"/>
<g filter="url(#filter1_d_399_4942)">
<path d="M13.8984 51.9233H146.156C147.456 51.9233 148.701 52.4394 149.62 53.3581C150.539 54.2767 151.055 55.5226 151.055 56.8218V81.314C151.055 82.6131 150.539 83.8591 149.62 84.7777C148.701 85.6964 147.456 86.2124 146.156 86.2124H13.8984C12.5993 86.2124 11.3534 85.6964 10.4347 84.7777C9.51608 83.8591 9 82.6131 9 81.314L9 56.8218C9 55.5226 9.51608 54.2767 10.4347 53.3581C11.3534 52.4394 12.5993 51.9233 13.8984 51.9233V51.9233Z" fill="white"/>
</g>
<path d="M76.5965 59.7607H51.1246C49.5014 59.7607 48.1855 61.0766 48.1855 62.6998C48.1855 64.323 49.5014 65.6389 51.1246 65.6389H76.5965C78.2197 65.6389 79.5356 64.323 79.5356 62.6998C79.5356 61.0766 78.2197 59.7607 76.5965 59.7607Z" fill="#D0D5DD"/>
<path d="M94.2309 72.4966H51.1246C49.5014 72.4966 48.1855 73.8124 48.1855 75.4356C48.1855 77.0588 49.5014 78.3747 51.1246 78.3747H94.2309C95.8541 78.3747 97.17 77.0588 97.17 75.4356C97.17 73.8124 95.8541 72.4966 94.2309 72.4966Z" fill="#EAECF0"/>
<path d="M35.45 54.8628H16.8359C14.1306 54.8628 11.9375 57.0559 11.9375 59.7612L11.9375 78.3753C11.9375 81.0807 14.1306 83.2738 16.8359 83.2738H35.45C38.1554 83.2738 40.3485 81.0807 40.3485 78.3753L40.3485 59.7612C40.3485 57.0559 38.1554 54.8628 35.45 54.8628Z" fill="#98A2B3"/>
<path d="M23.9089 72.2819H25.8683L25.8899 71.5275C25.8899 70.5361 26.5149 70.2775 27.3986 69.9973C28.285 69.7451 29.0653 69.2112 29.6213 68.4763C30.1774 67.7413 30.479 66.8453 30.4807 65.9237C30.5001 65.361 30.4025 64.8004 30.194 64.2774C29.9856 63.7544 29.6708 63.2804 29.2697 62.8853C28.8685 62.4903 28.3898 62.1828 27.8636 61.9823C27.3375 61.7819 26.7755 61.6929 26.2132 61.7209C25.6189 61.7079 25.0282 61.8158 24.4769 62.038C23.9256 62.2602 23.4251 62.592 23.0059 63.0134C22.5867 63.4349 22.2575 63.937 22.0382 64.4895C21.8189 65.042 21.7141 65.6332 21.7301 66.2274H23.7561C23.7484 65.8993 23.8063 65.573 23.9263 65.2676C24.0464 64.9622 24.2262 64.6838 24.4552 64.4487C24.6842 64.2137 24.9578 64.0267 25.2601 63.8988C25.5623 63.7709 25.887 63.7046 26.2151 63.7037C26.5111 63.6866 26.8072 63.7333 27.0835 63.8408C27.3598 63.9483 27.6097 64.114 27.8162 64.3267C28.0227 64.5393 28.181 64.794 28.2804 65.0733C28.3797 65.3525 28.4178 65.65 28.392 65.9453C28.379 66.4232 28.2127 66.8844 27.9178 67.2608C27.6229 67.6372 27.2149 67.9089 26.754 68.0359L26.0427 68.3181C25.3464 68.4859 24.7384 68.909 24.3392 69.5038C23.9401 70.0985 23.7788 70.8215 23.8874 71.5295L23.9089 72.2819ZM24.8788 76.9393C25.0707 76.9461 25.262 76.9144 25.4414 76.846C25.6208 76.7777 25.7846 76.674 25.9233 76.5412C26.0619 76.4084 26.1725 76.2492 26.2486 76.0729C26.3246 75.8966 26.3646 75.7068 26.366 75.5149C26.3643 75.3231 26.3242 75.1335 26.248 74.9575C26.1719 74.7814 26.0612 74.6224 25.9226 74.4898C25.784 74.3572 25.6202 74.2537 25.4409 74.1855C25.2617 74.1172 25.0705 74.0855 24.8788 74.0924C24.6871 74.0855 24.496 74.1172 24.3167 74.1855C24.1375 74.2537 23.9737 74.3572 23.8351 74.4898C23.6965 74.6224 23.5858 74.7814 23.5097 74.9575C23.4335 75.1335 23.3934 75.3231 23.3917 75.5149C23.3931 75.7068 23.433 75.8966 23.5091 76.0729C23.5851 76.2492 23.6957 76.4084 23.8344 76.5412C23.973 76.674 24.1369 76.7777 24.3163 76.846C24.4957 76.9144 24.687 76.9461 24.8788 76.9393V76.9393Z" fill="white"/>
<g filter="url(#filter2_d_399_4942)">
<path d="M13.8984 94.0498H146.156C147.456 94.0498 148.701 94.5659 149.62 95.4845C150.539 96.4032 151.055 97.6491 151.055 98.9482V123.44C151.055 124.74 150.539 125.986 149.62 126.904C148.701 127.823 147.456 128.339 146.156 128.339H13.8984C12.5993 128.339 11.3534 127.823 10.4347 126.904C9.51608 125.986 9 124.74 9 123.44L9 98.9482C9 97.6491 9.51608 96.4032 10.4347 95.4845C11.3534 94.5659 12.5993 94.0498 13.8984 94.0498V94.0498Z" fill="white"/>
</g>
<path d="M76.5985 101.888H51.1266C49.5034 101.888 48.1875 103.204 48.1875 104.827C48.1875 106.45 49.5034 107.766 51.1266 107.766H76.5985C78.2217 107.766 79.5375 106.45 79.5375 104.827C79.5375 103.204 78.2217 101.888 76.5985 101.888Z" fill="#D0D5DD"/>
<path d="M94.2329 114.624H51.1266C49.5034 114.624 48.1875 115.939 48.1875 117.563C48.1875 119.186 49.5034 120.502 51.1266 120.502H94.2329C95.8561 120.502 97.1719 119.186 97.1719 117.563C97.1719 115.939 95.8561 114.624 94.2329 114.624Z" fill="#EAECF0"/>
<path d="M35.4539 96.9902H16.8398C14.1345 96.9902 11.9414 99.1833 11.9414 101.889L11.9414 120.503C11.9414 123.208 14.1345 125.401 16.8398 125.401H35.4539C38.1593 125.401 40.3524 123.208 40.3524 120.503L40.3524 101.889C40.3524 99.1833 38.1593 96.9902 35.4539 96.9902Z" fill="#98A2B3"/>
<path d="M23.9129 114.409H25.8722L25.8938 113.655C25.8938 112.664 26.5188 112.405 27.4025 112.125C28.2889 111.873 29.0692 111.339 29.6252 110.604C30.1813 109.869 30.483 108.973 30.4846 108.051C30.504 107.488 30.4064 106.928 30.1979 106.405C29.9895 105.882 29.6747 105.408 29.2736 105.013C28.8724 104.618 28.3937 104.31 27.8675 104.11C27.3414 103.909 26.7794 103.82 26.2171 103.848C25.6228 103.835 25.0321 103.943 24.4808 104.165C23.9295 104.388 23.429 104.719 23.0098 105.141C22.5906 105.562 22.2614 106.064 22.0421 106.617C21.8228 107.169 21.718 107.761 21.734 108.355H23.76C23.7523 108.027 23.8102 107.7 23.9302 107.395C24.0503 107.09 24.2301 106.811 24.4591 106.576C24.6881 106.341 24.9618 106.154 25.264 106.026C25.5662 105.898 25.8909 105.832 26.219 105.831C26.515 105.814 26.8111 105.861 27.0874 105.968C27.3637 106.076 27.6136 106.241 27.8201 106.454C28.0266 106.667 28.1849 106.921 28.2843 107.201C28.3836 107.48 28.4217 107.777 28.3959 108.073C28.3829 108.551 28.2166 109.012 27.9217 109.388C27.6268 109.765 27.2188 110.036 26.7579 110.163L26.0466 110.446C25.3503 110.613 24.7423 111.036 24.3431 111.631C23.944 112.226 23.7827 112.949 23.8913 113.657L23.9129 114.409ZM24.8827 119.067C25.0746 119.074 25.2659 119.042 25.4453 118.973C25.6247 118.905 25.7885 118.801 25.9272 118.669C26.0658 118.536 26.1765 118.377 26.2525 118.2C26.3285 118.024 26.3685 117.834 26.3699 117.642C26.3682 117.45 26.3281 117.261 26.2519 117.085C26.1758 116.909 26.0651 116.75 25.9265 116.617C25.7879 116.485 25.6241 116.381 25.4448 116.313C25.2656 116.245 25.0744 116.213 24.8827 116.22C24.691 116.213 24.4999 116.245 24.3207 116.313C24.1414 116.381 23.9776 116.485 23.839 116.617C23.7004 116.75 23.5897 116.909 23.5136 117.085C23.4374 117.261 23.3973 117.45 23.3956 117.642C23.397 117.834 23.437 118.024 23.513 118.2C23.589 118.377 23.6996 118.536 23.8383 118.669C23.9769 118.801 24.1408 118.905 24.3202 118.973C24.4996 119.042 24.6909 119.074 24.8827 119.067V119.067Z" fill="white"/>
<defs>
<filter id="filter0_d_399_4942" x="7.00391" y="7.79736" width="152.055" height="44.2891" filterUnits="userSpaceOnUse" color-interpolation-filters="sRGB">
<feFlood flood-opacity="0" result="BackgroundImageFix"/>
<feColorMatrix in="SourceAlpha" type="matrix" values="0 0 0 0 0 0 0 0 0 0 0 0 0 0 0 0 0 0 127 0" result="hardAlpha"/>
<feOffset dx="3" dy="3"/>
<feGaussianBlur stdDeviation="2.5"/>
<feColorMatrix type="matrix" values="0 0 0 0 0.230539 0 0 0 0 0.370572 0 0 0 0 0.482993 0 0 0 0.1 0"/>
<feBlend mode="normal" in2="BackgroundImageFix" result="effect1_dropShadow_399_4942"/>
<feBlend mode="normal" in="SourceGraphic" in2="effect1_dropShadow_399_4942" result="shape"/>
</filter>
<filter id="filter1_d_399_4942" x="7" y="49.9233" width="152.055" height="44.2891" filterUnits="userSpaceOnUse" color-interpolation-filters="sRGB">
<feFlood flood-opacity="0" result="BackgroundImageFix"/>
<feColorMatrix in="SourceAlpha" type="matrix" values="0 0 0 0 0 0 0 0 0 0 0 0 0 0 0 0 0 0 127 0" result="hardAlpha"/>
<feOffset dx="3" dy="3"/>
<feGaussianBlur stdDeviation="2.5"/>
<feColorMatrix type="matrix" values="0 0 0 0 0.230539 0 0 0 0 0.370572 0 0 0 0 0.482993 0 0 0 0.1 0"/>
<feBlend mode="normal" in2="BackgroundImageFix" result="effect1_dropShadow_399_4942"/>
<feBlend mode="normal" in="SourceGraphic" in2="effect1_dropShadow_399_4942" result="shape"/>
</filter>
<filter id="filter2_d_399_4942" x="7" y="92.0498" width="152.055" height="44.2891" filterUnits="userSpaceOnUse" color-interpolation-filters="sRGB">
<feFlood flood-opacity="0" result="BackgroundImageFix"/>
<feColorMatrix in="SourceAlpha" type="matrix" values="0 0 0 0 0 0 0 0 0 0 0 0 0 0 0 0 0 0 127 0" result="hardAlpha"/>
<feOffset dx="3" dy="3"/>
<feGaussianBlur stdDeviation="2.5"/>
<feColorMatrix type="matrix" values="0 0 0 0 0.230539 0 0 0 0 0.370572 0 0 0 0 0.482993 0 0 0 0.1 0"/>
<feBlend mode="normal" in2="BackgroundImageFix" result="effect1_dropShadow_399_4942"/>
<feBlend mode="normal" in="SourceGraphic" in2="effect1_dropShadow_399_4942" result="shape"/>
</filter>
</defs>
</svg>
