<svg width="210" height="210" viewBox="0 0 210 210" fill="none" xmlns="http://www.w3.org/2000/svg">
<circle cx="105" cy="105" r="102.5" fill="#1A3D6C" stroke="white" stroke-width="5"/>
<path fill-rule="evenodd" clip-rule="evenodd" d="M57 171V14L76 6V87C76.9997 85.6004 78.9943 84.3813 80.5939 82.9817C87.792 77.1832 95.9899 74.3839 105.387 74.3839C116.185 74.1839 125.982 77.783 134.98 84.5812C136.18 85.581 137.979 87.1806 140.179 89.38C144.777 94.5787 148.176 99.9773 150.176 105.176C152.575 111.174 153.775 117.373 153.775 123.571C153.775 132.169 151.776 140.167 147.577 147.765C146.377 150.364 144.577 153.164 142.178 156.163C139.579 158.962 137.379 161.161 135.98 162.361C135.383 162.779 134.822 163.179 134.285 163.561C133.025 164.459 131.903 165.259 130.781 165.96C122.983 170.759 114.785 173.358 106.187 173.358H104.988C101.389 173.358 97.1896 172.758 92.1909 171.359C89.5916 170.359 87.3921 169.359 85.3927 168.16C83.7931 167.36 81.9935 165.96 79.9941 164.361L76.7949 161.161V171H57ZM92.5873 96.8733C97.0391 94.7341 101.202 93.6357 105.018 93.6357H105.133C113.69 93.6357 120.975 96.9311 126.929 103.464C131.902 109.477 134.388 116.241 134.445 123.699V124.104C134.445 128.614 133.52 132.95 131.612 137.228C130.514 139.656 128.837 142.258 126.583 144.918C120.628 151.162 113.632 154.284 105.538 154.341C101.606 154.341 97.5594 153.416 93.5124 151.566C92.0092 150.873 90.1591 149.716 88.0778 148.155L86.2855 146.536C84.6667 144.975 83.4526 143.588 82.5853 142.374C78.6539 136.881 76.6882 130.926 76.6304 124.451V123.931C76.6304 116.762 78.8274 110.402 83.2213 104.736C83.6838 104.1 84.8401 102.828 86.6902 101.036C88.6559 99.2437 90.6216 97.8562 92.5873 96.8733Z" fill="white"/>
</svg>
