<?xml version="1.0" encoding="UTF-8" standalone="no"?>
<!DOCTYPE svg PUBLIC "-//W3C//DTD SVG 1.1//EN" "http://www.w3.org/Graphics/SVG/1.1/DTD/svg11.dtd">
<svg width="100%" height="100%" viewBox="0 0 5386 7322" version="1.1" xmlns="http://www.w3.org/2000/svg" xmlns:xlink="http://www.w3.org/1999/xlink" xml:space="preserve" xmlns:serif="http://www.serif.com/" style="fill-rule:evenodd;clip-rule:evenodd;stroke-miterlimit:10;">
    <rect id="Page-1" serif:id="Page 1" x="-1307.13" y="-350.845" width="8000" height="8000" style="fill:none;"/>
    <g>
        <path d="M1059.63,111.742L1059.63,7216.37L2709.71,6393.99L4326.11,7216.37L4326.11,111.742C4326.11,111.742 2881.58,104.688 1913.74,104.688C1429.73,104.684 1065.06,106.451 1059.63,111.742Z" style="fill:url(#_Linear1);fill-rule:nonzero;"/>
        <path d="M1059.63,111.742L1059.63,7216.37L2709.71,6393.99L4326.11,7216.37L4326.11,111.742C4326.11,111.742 1075.93,95.867 1059.63,111.742Z" style="fill:none;fill-rule:nonzero;stroke:#fff;stroke-width:20.83px;"/>
        <path d="M4336.53,1966.51C4446.3,2200.34 4507.68,2461.48 4507.68,2736.9C4507.68,3739.19 3695.16,4551.7 2692.87,4551.7C1690.58,4551.7 878.056,3739.19 878.056,2736.9C878.056,2461.48 939.435,2200.34 1049.21,1966.51L1049.21,737.53C472.485,1212.22 104.685,1931.63 104.685,2736.9C104.685,4166.31 1263.45,5325.08 2692.87,5325.08C4122.28,5325.08 5281.05,4166.31 5281.05,2736.9C5281.05,1931.63 4913.25,1212.22 4336.53,737.526L4336.53,1966.51Z" style="fill:url(#_Linear2);fill-rule:nonzero;"/>
        <clipPath id="_clip3">
            <path d="M85.935,5343.83L5299.81,5343.83L5299.81,129.963L85.935,129.963L85.935,5343.83ZM1049.21,718.613C1240.13,562.755 1452.04,434.988 1679.75,338.676C2000.64,202.946 2341.5,134.134 2692.87,134.134C3044.24,134.134 3385.1,202.946 3705.99,338.676C3933.69,434.988 4145.61,562.755 4336.53,718.617L4336.53,2001.61C4246.76,1801.09 4122.21,1620.33 3965.82,1463.95C3800.49,1298.61 3607.96,1168.81 3393.59,1078.14C3171.66,984.267 2935.9,936.676 2692.87,936.676C2449.84,936.676 2214.08,984.267 1992.14,1078.14C1777.78,1168.81 1585.25,1298.61 1419.92,1463.95C1263.52,1620.34 1138.97,1801.09 1049.21,2001.62L1049.21,718.613Z" clip-rule="nonzero"/>
        </clipPath>
        <g clip-path="url(#_clip3)">
            <path d="M2692.87,4551.7C1690.58,4551.7 878.057,3739.19 878.057,2736.9C878.057,1734.61 1690.58,922.088 2692.87,922.088C3695.16,922.088 4507.68,1734.61 4507.68,2736.9C4507.68,3739.19 3695.16,4551.7 2692.87,4551.7ZM2692.87,148.713C1263.45,148.713 104.686,1307.48 104.686,2736.9C104.686,4166.31 1263.45,5325.08 2692.87,5325.08C4122.28,5325.08 5281.05,4166.31 5281.05,2736.9C5281.05,1307.48 4122.28,148.713 2692.87,148.713Z" style="fill:none;fill-rule:nonzero;stroke:#fff;stroke-width:20.83px;"/>
        </g>
        <g>
            <path d="M2132.6,1834.08C2132.6,1859.01 2127.28,1883.2 2116.66,1906.67C2110.4,1920.23 2101.06,1934.35 2088.61,1949.01C2055.61,1983.47 2016.74,2000.7 1972.03,2000.7C1950.04,2000.7 1927.84,1995.57 1905.51,1985.3C1897.05,1981.27 1886.97,1974.85 1875.26,1966.06L1865.34,1957.26C1856.54,1948.46 1849.77,1940.76 1845.01,1934.16C1823.38,1903.74 1812.55,1870.56 1812.55,1834.63L1812.55,1831.89C1812.55,1792.29 1824.84,1756.92 1849.4,1725.76C1851.97,1722.1 1858.37,1715.31 1868.65,1705.41C1879.65,1695.52 1890.65,1687.81 1901.65,1682.32C1926.18,1670.59 1949.12,1664.73 1970.38,1664.73C2018.02,1664.73 2058.36,1683.05 2091.35,1719.71C2118.86,1753.07 2132.6,1790.46 2132.6,1831.89L2132.6,1834.08ZM2220.03,1730.7C2209.04,1701.38 2190.87,1672.24 2165.59,1643.27C2152.73,1630.45 2143.05,1621.47 2136.45,1616.33C2086.95,1577.84 2032.51,1558.6 1973.12,1558.6L1972.58,1558.6C1921.24,1558.6 1875.6,1574.54 1835.66,1606.44C1826.12,1614.14 1818.61,1621.65 1813.13,1628.98L1812.55,1628.98L1812.55,1289.16L1812.01,1288.61L1706.98,1288.61L1706.43,1289.16L1706.43,2093.63L1812.55,2093.63L1812.55,2038.64C1818.78,2045.23 1824.84,2051.28 1830.72,2056.78C1841.72,2065.95 1851.4,2073.1 1859.86,2078.23C1870.86,2084.83 1883.31,2090.51 1897.25,2095.27C1925.1,2102.97 1948.75,2106.82 1968.18,2106.82L1975.32,2106.82C2022.62,2106.82 2067.9,2093.45 2111.14,2066.68C2119.94,2061.55 2129.48,2054.96 2139.74,2046.89C2148.53,2039.92 2160.08,2028.38 2174.39,2012.25C2187.58,1995.75 2197.84,1980.54 2205.18,1966.6C2227.89,1924.08 2239.26,1879.54 2239.26,1832.98C2239.26,1797.79 2232.86,1763.7 2220.03,1730.7" style="fill:#fff;fill-rule:nonzero;"/>
            <path d="M2346.59,1288.6L2451.62,1288.6L2452.16,1289.15L2452.16,2093.07L2451.62,2093.62L2346.59,2093.62L2346.05,2093.07L2346.05,1289.15L2346.59,1288.6Z" style="fill:#fff;fill-rule:nonzero;"/>
            <path d="M2787.02,2093.63L2782.05,2093.63C2687.47,2093.63 2619.65,2057.88 2578.6,1986.4C2564.3,1958.18 2557.15,1925 2557.15,1886.87L2557.15,1568.49L2558.81,1566.84L2661.64,1566.84L2663.27,1568.49L2663.27,1887.97C2663.27,1933.06 2681.98,1962.76 2719.37,1977.05C2735.14,1984.02 2755.31,1987.5 2779.85,1987.5L2788.64,1987.5C2833.38,1987.5 2865.08,1980.54 2883.8,1966.61C2908.33,1951.94 2920.62,1924.81 2920.62,1885.22L2920.62,1568.49L2921.73,1566.84L3025.11,1566.84L3026.19,1568.49L3026.19,2089.23L3025.11,2090.88L2921.73,2090.88L2920.62,2089.23L2920.62,2054.03L2919.53,2054.03C2900.82,2067.97 2876.45,2079.33 2846.4,2088.13C2830.26,2091.8 2810.47,2093.63 2787.02,2093.63" style="fill:#fff;fill-rule:nonzero;"/>
            <path d="M3516.28,1764.8L3249.59,1764.8L3258.39,1744.46C3290.64,1691.31 3331.86,1664.72 3382.11,1664.72C3415.1,1664.72 3445.53,1676.63 3473.38,1700.47C3495.74,1724.29 3510.03,1745.56 3516.28,1764.25L3516.28,1764.8ZM3595.46,1684.51C3586.29,1667.29 3569.61,1646.76 3545.41,1622.93C3495.94,1580.04 3444.41,1558.6 3390.91,1558.6L3374.97,1558.6C3326.2,1558.6 3277.62,1577.11 3229.23,1614.13C3163.62,1673.52 3130.82,1746.1 3130.82,1831.88L3130.82,1834.08C3130.82,1896.4 3149.5,1953.77 3186.89,2006.19C3241.14,2073.28 3306.04,2106.82 3381.56,2106.82L3383.77,2106.82C3457.06,2106.82 3520.68,2075.11 3574.55,2011.69C3592.52,1986.04 3604.06,1966.79 3609.2,1953.96C3608.46,1953.23 3576.58,1938.56 3513.53,1909.96C3512.42,1910.34 3508.76,1916.57 3502.54,1928.66C3470.26,1976.69 3430.3,2000.7 3382.65,2000.7C3344.89,2000.7 3311.18,1984.75 3281.47,1952.86C3262.05,1933.43 3248.11,1904.1 3239.68,1864.87L3633.39,1864.87C3634.85,1864.87 3635.59,1859.74 3635.59,1849.48L3635.59,1832.98C3635.59,1781.3 3622.2,1731.81 3595.46,1684.51" style="fill:#fff;fill-rule:nonzero;"/>
            <path d="M2109.72,2895.17C2066.47,2949.79 2014.6,2977.1 1954.1,2977.1C1898.36,2977.1 1849.8,2954.55 1808.38,2909.47C1770.62,2864.02 1751.74,2812.69 1751.74,2755.5C1751.74,2702.71 1767.14,2655.24 1797.93,2613.09C1841.18,2558.83 1892.88,2531.7 1953.01,2531.7C1994.05,2531.7 2033.11,2545.27 2070.12,2572.39C2126.57,2621.16 2154.79,2681.64 2154.79,2753.86C2154.79,2805.91 2139.77,2853.02 2109.72,2895.17M2133.91,2574.6C2082.95,2517.04 2023.02,2488.26 1954.1,2488.26C1928.81,2488.26 1904.05,2492.3 1879.85,2500.36C1823.41,2521.63 1780.88,2555.71 1752.28,2602.64L1751.74,2602.64L1751.74,2212.77L1750.08,2211.13L1709.94,2211.13L1708.29,2212.77L1708.29,3015.05L1709.94,3016.15L1750.08,3016.15L1751.74,3015.05L1751.74,2906.17L1752.28,2906.17L1763.85,2924.31C1816.64,2988.48 1878.94,3020.54 1950.81,3020.54L1957.41,3020.54C2013.85,3020.54 2067.01,2998.18 2116.86,2953.45C2171.1,2896.27 2198.24,2831.2 2198.24,2758.25L2198.24,2750.55C2198.24,2686.41 2176.79,2627.76 2133.91,2574.6" style="fill:#fff;fill-rule:nonzero;"/>
            <path d="M2652.48,2904.51C2611.43,2950.71 2563.41,2973.81 2508.43,2973.81C2468.09,2973.81 2429.96,2960.42 2394.05,2933.66C2338.32,2886.01 2310.47,2826.26 2310.47,2754.4C2310.47,2708.21 2323.67,2664.41 2350.06,2622.98C2393.68,2565.06 2446.27,2536.1 2507.86,2536.1C2562.1,2536.1 2609.6,2558.28 2650.28,2602.64C2687.68,2647 2706.38,2697.59 2706.38,2754.4C2706.38,2811.22 2688.42,2861.26 2652.48,2904.51M2694.27,2588.34C2642.94,2525.29 2581.55,2493.76 2510.05,2493.76L2507.31,2493.76C2446.1,2493.76 2391.28,2517.59 2342.89,2565.25C2293.05,2619.13 2268.11,2682.01 2268.11,2753.85L2268.11,2756.05C2268.11,2815.44 2285.7,2869.87 2320.89,2919.37C2372.94,2983.89 2435.1,3016.15 2507.31,3016.15C2570.01,3016.15 2625,2992.87 2672.28,2946.31C2723.24,2891.32 2748.72,2828.82 2748.72,2758.81L2748.72,2751.11C2748.72,2693.55 2730.58,2639.3 2694.27,2588.34" style="fill:#fff;fill-rule:nonzero;"/>
            <path d="M3208.12,2904.51C3167.08,2950.71 3119.06,2973.81 3064.07,2973.81C3023.73,2973.81 2985.63,2960.42 2949.69,2933.66C2893.96,2886.01 2866.11,2826.26 2866.11,2754.4C2866.11,2708.21 2879.31,2664.41 2905.7,2622.98C2949.32,2565.06 3001.94,2536.1 3063.53,2536.1C3117.77,2536.1 3165.25,2558.28 3205.93,2602.64C3243.31,2647 3262.03,2697.59 3262.03,2754.4C3262.03,2811.22 3244.06,2861.26 3208.12,2904.51M3249.91,2588.34C3198.61,2525.29 3137.2,2493.76 3065.73,2493.76L3062.95,2493.76C3001.74,2493.76 2946.95,2517.59 2898.56,2565.25C2848.69,2619.13 2823.78,2682.01 2823.78,2753.85L2823.78,2756.05C2823.78,2815.44 2841.38,2869.87 2876.57,2919.37C2928.61,2983.89 2990.74,3016.15 3062.95,3016.15C3125.66,3016.15 3180.64,2992.87 3227.92,2946.31C3278.88,2891.32 3304.36,2828.82 3304.36,2758.81L3304.36,2751.11C3304.36,2693.55 3286.22,2639.3 3249.91,2588.34" style="fill:#fff;fill-rule:nonzero;"/>
            <path d="M3379.5,2211.12L3419.64,2211.12L3421.29,2212.77L3421.29,2754.95L3697.32,2493.21L3760.02,2493.21L3760.02,2494.31L3527.41,2715.36L3527.41,2715.91L3763.3,3014.49L3763.3,3016.14L3707.77,3016.14C3705.2,3014.31 3678.81,2980.77 3628.59,2915.51C3547.95,2813.61 3503.76,2756.97 3496.08,2745.61L3494.96,2745.61L3421.29,2815.99L3421.29,3014.49L3419.64,3016.14L3379.5,3016.14L3377.84,3014.49L3377.84,2212.77L3379.5,2211.12Z" style="fill:#fff;fill-rule:nonzero;"/>
        </g>
        <g>
            <path d="M1224.07,4226.65L1166.87,4167.2L1197.01,4138.2L1344.62,4291.64L1314.48,4320.63L1257.28,4261.18L1093.43,4418.81L1060.22,4384.28L1224.07,4226.65Z" style="fill:#fff;fill-rule:nonzero;"/>
            <path d="M1366.77,4461.94C1387.59,4479.13 1415.45,4493.75 1436.27,4468.54C1454.91,4445.96 1437.23,4421.99 1418.18,4406.26L1384.75,4378.66L1336.57,4437L1366.77,4461.94ZM1373.47,4317.08L1445.6,4376.63C1484.59,4408.83 1509.29,4455.36 1472.97,4499.34C1448.28,4529.24 1413.59,4533.64 1379.24,4516.12L1358.63,4653.94L1314.07,4617.14L1338.61,4489.47L1311.64,4467.2L1239.01,4555.16L1202.07,4524.66L1373.47,4317.08Z" style="fill:#fff;fill-rule:nonzero;"/>
            <path d="M1598.35,4688.95L1621.75,4574.24L1527.62,4644.31L1598.35,4688.95ZM1635.79,4515.67L1670.84,4537.79L1625.22,4827.3L1578.93,4798.08L1590.58,4732.6L1491.88,4670.31L1438.43,4709.4L1393.1,4680.79L1635.79,4515.67Z" style="fill:#fff;fill-rule:nonzero;"/>
            <path d="M1783.98,4856.57C1829.05,4876.87 1887.94,4881.28 1917.76,4815.06C1949.45,4744.68 1905.54,4706.99 1860.47,4686.69L1824.07,4670.3L1747.58,4840.18L1783.98,4856.57ZM1797.24,4613.19L1884.26,4652.37C1948.4,4681.25 2006.09,4743.92 1964.57,4836.14C1925.85,4922.12 1837.89,4926.71 1773.74,4897.83L1686.72,4858.65L1797.24,4613.19Z" style="fill:#fff;fill-rule:nonzero;"/>
            <path d="M2033.49,4998.89L2118.26,4743.42L2072.81,4728.34L1988.04,4983.81L2033.49,4998.89Z" style="fill:#fff;"/>
            <path d="M2182.06,4766.06L2244.07,4779.7L2322.94,5003.36L2323.69,5003.52L2366.97,4806.73L2413.75,4817.01L2355.94,5079.9L2296.53,5066.84L2216.44,4836.29L2215.7,4836.13L2171.03,5039.23L2124.24,5028.94L2182.06,4766.06Z" style="fill:#fff;fill-rule:nonzero;"/>
            <path d="M2693.87,5096.84C2666.04,5107.85 2633.24,5113.56 2591.14,5110.6C2504.67,5104.54 2448.43,5042.29 2454.31,4958.47C2460.34,4872.37 2527.1,4822.54 2609.78,4828.34C2652.27,4831.32 2689.24,4847.64 2709.44,4869.25L2673.95,4902.59C2661.36,4886.46 2636.04,4872.49 2607.22,4870.47C2550.7,4866.51 2510.91,4906.79 2507.02,4962.16C2503.01,5019.43 2536.5,5063.7 2595.66,5067.85C2615.76,5069.26 2633.8,5067.48 2649.8,5062.12L2654.59,4993.85L2598.08,4989.89L2600.84,4950.44L2703.63,4957.65L2693.87,5096.84Z" style="fill:#fff;fill-rule:nonzero;"/>
            <path d="M2881.34,4839.36L2955.51,4828.87L3051.55,5008.45L3052.68,5008.28L3094.43,4809.23L3168.97,4798.69L3206.66,5065.23L3159.6,5071.89L3129.31,4857.68L3128.56,4857.78L3077.9,5083.44L3044.77,5088.12L2934.67,4885.2L2933.92,4885.3L2964.2,5099.52L2919.03,5105.9L2881.34,4839.36Z" style="fill:#fff;fill-rule:nonzero;"/>
            <path d="M3230.03,4781.14L3401.08,4730.81L3412.89,4770.92L3287.79,4807.73L3307.11,4873.38L3425.64,4838.5L3437.01,4877.16L3318.49,4912.04L3339.95,4984.98L3471.61,4946.24L3483.63,4987.09L3306.01,5039.35L3230.03,4781.14Z" style="fill:#fff;fill-rule:nonzero;"/>
            <path d="M3456.55,4714.08L3524.57,4682.72L3668.17,4827.1L3669.2,4826.62L3651.97,4623.98L3720.33,4592.46L3833.03,4836.9L3789.88,4856.8L3699.3,4660.35L3698.61,4660.67L3714.96,4891.35L3684.57,4905.35L3520.8,4742.65L3520.11,4742.97L3610.69,4939.42L3569.26,4958.52L3456.55,4714.08Z" style="fill:#fff;fill-rule:nonzero;"/>
            <path d="M3939.26,4723.57L3975.2,4700.01C3995.86,4686.46 4022.73,4662.95 4003.34,4633.37C3987.92,4609.84 3966.28,4612.2 3933.85,4633.47L3896.32,4658.06L3939.26,4723.57ZM3873.81,4623.72L3909.42,4600.38C3936.14,4582.87 3943.15,4562.36 3930.43,4542.96C3917.3,4522.93 3897.78,4524.36 3867.57,4544.16L3835.45,4565.21L3873.81,4623.72ZM3773.71,4558.41L3861.48,4500.88C3895.5,4478.57 3940.69,4471.23 3967.58,4512.24C3984.26,4537.68 3979.41,4564.96 3960.78,4587.17L3961.2,4587.81C3992,4573.07 4024.86,4578.81 4044.66,4609.02C4076.76,4657.98 4044.99,4702.45 4002.38,4730.38L3921.3,4783.54L3773.71,4558.41Z" style="fill:#fff;fill-rule:nonzero;"/>
            <path d="M3982.48,4416.34L4118.82,4301.44L4145.77,4333.41L4046.06,4417.45L4090.16,4469.77L4184.64,4390.15L4210.61,4420.97L4116.13,4500.59L4165.13,4558.73L4270.07,4470.29L4297.52,4502.85L4155.94,4622.16L3982.48,4416.34Z" style="fill:#fff;fill-rule:nonzero;"/>
            <path d="M4306.74,4275.39C4325.2,4255.68 4341.52,4228.78 4317.65,4206.44C4296.28,4186.43 4271.26,4202.58 4254.37,4220.63L4224.75,4252.27L4279.98,4303.98L4306.74,4275.39ZM4162.59,4259.7L4226.51,4191.42C4261.06,4154.51 4309.03,4132.75 4350.67,4171.73C4378.98,4198.23 4381.2,4233.13 4361.59,4266.32L4497.85,4295.45L4458.36,4337.64L4332.48,4305.2L4308.57,4330.74L4391.83,4408.69L4359.1,4443.66L4162.59,4259.7Z" style="fill:#fff;fill-rule:nonzero;"/>
        </g>
    </g>
    <defs>
        <linearGradient id="_Linear1" x1="0" y1="0" x2="1" y2="0" gradientUnits="userSpaceOnUse" gradientTransform="matrix(0,-7111.69,7111.69,-0,2692.87,7216.37)"><stop offset="0" style="stop-color:#0F64AE;stop-opacity:1"/><stop offset="1" style="stop-color:#1A3D6C;stop-opacity:1"/></linearGradient>
        <linearGradient id="_Linear2" x1="0" y1="0" x2="1" y2="0" gradientUnits="userSpaceOnUse" gradientTransform="matrix(0,-5176.37,5176.37,-0,2692.87,5325.08)"><stop offset="0" style="stop-color:#0F64AE;stop-opacity:1"/><stop offset="1" style="stop-color:#1A3D6C;stop-opacity:1"/></linearGradient>
    </defs>
</svg>
