<svg width="154" height="138" viewBox="0 0 154 138" fill="none" xmlns="http://www.w3.org/2000/svg">
<path d="M95.8001 89.0864C87.0526 115.205 63.6842 123.27 51.3277 90.8298C49.6285 86.3684 54.0714 84.708 57.1786 82.7449C59.3068 81.4002 60.4248 80.2341 60.2952 79.0319C59.6834 73.3603 57.0349 57.5808 57.0349 57.5808L56.7656 57.0724C56.7656 57.0724 56.8301 56.9299 56.5766 57.182C56.3123 57.4447 55.703 60.1883 53.3014 60.1883C51.1482 60.1883 48.9623 59.2295 47.9162 52.5943C47.5376 50.193 47.7524 43.8978 50.4198 42.761C51.5221 42.2913 52.539 42.1234 53.531 42.6871C54.523 43.2509 52.3865 40.7601 63.4198 31.6006C70.5915 25.6467 81.9199 24.7741 86.491 25.7793C91.0621 26.7846 95.6332 29.0136 97.655 33.7339C100.108 39.4614 95.3695 43.7864 96.4103 56.8305C96.2207 61.5432 96.4922 71.8866 83.4737 75.3533C81.0012 76.0117 81.7683 79.6102 85.477 80.4899C91.3933 82.3372 95.8048 86.8471 95.8048 89.0982" fill="white"/>
<path fill-rule="evenodd" clip-rule="evenodd" d="M95.8034 48.4875L95.8174 48.3648C96.1831 45.1622 96.5375 42.0586 98.2141 39.2711C98.7844 39.66 98.7178 40.1528 98.5396 40.6094C96.781 45.1135 96.9424 49.7928 97.1038 54.4697L97.1038 54.4703C97.118 54.8798 97.1321 55.2892 97.1449 55.6985C97.3287 61.5419 95.8657 66.8539 91.9544 71.3181C90.5969 72.8674 88.8 73.9332 86.9653 74.864C85.081 75.8199 84.685 76.631 85.2728 78.6953C85.2942 78.7706 85.3206 78.8463 85.3471 78.9221C85.4675 79.2672 85.5895 79.6166 85.2551 79.9577C84.8558 80.365 84.4197 80.2487 83.9478 80.123L83.8941 80.1087C79.4489 78.9277 75.4721 76.8088 71.795 74.1029C71.2725 73.7184 70.8427 73.1939 70.4267 72.6862L70.3999 72.6534C70.1809 72.3863 70.1422 71.9695 70.4485 71.7338C70.7352 71.5133 70.9609 71.6941 71.2119 71.8953C71.2439 71.921 71.2763 71.947 71.3094 71.9726C73.2936 73.5065 75.4788 74.5137 78.0391 74.767C79.2231 74.8842 80.395 74.841 81.566 74.7978C82.2247 74.7735 82.8832 74.7493 83.5433 74.7536C84.4474 74.7595 85.1902 74.3416 85.8974 73.9438C85.9814 73.8965 86.065 73.8495 86.1482 73.8035C88.607 72.4449 90.9415 70.9216 92.5268 68.4675C93.9472 66.2683 94.8075 63.8729 95.3141 61.352C95.9537 58.17 95.8958 54.9531 95.837 51.6913C95.8179 50.6282 95.7986 49.5604 95.8034 48.4875ZM51.3643 41.8568C53.2975 41.702 54.3742 42.8429 55.2808 44.1641C56.3958 45.7892 56.9897 47.6311 57.2528 49.5758C57.297 49.902 57.3428 50.2488 57.1453 50.5684C56.7554 50.6207 56.7185 50.3124 56.7126 50.0812C56.6635 48.2626 55.8537 46.6762 55.0398 45.1408C54.4589 44.0455 53.6049 42.9842 52.2702 42.7148C50.7484 42.4075 49.3487 43.7694 48.6607 45.5531C47.3864 48.8567 47.5977 52.1082 48.7833 55.3101C49.302 56.7112 49.9482 58.1386 51.2423 59.1162C52.5526 60.1062 54.1303 59.9315 55.0923 58.6168C55.1473 58.5416 55.2055 58.4672 55.2638 58.3926L55.2638 58.3926C55.4401 58.1672 55.6177 57.9401 55.7126 57.6843C55.8987 57.1829 56.1831 56.7061 56.704 56.776C57.3065 56.8568 57.4207 57.5066 57.477 58.0142C57.989 62.6262 58.6999 67.209 59.4109 71.7922L59.4109 71.7923L59.411 71.7923C59.5874 72.9294 59.7638 74.0666 59.9371 75.2042C60.1667 76.7093 60.4327 78.8711 60.2543 79.7906C60.2417 79.8558 60.2345 79.9201 60.2275 79.9816C60.2003 80.2223 60.1779 80.4204 59.8609 80.4679C59.4307 80.5325 59.2362 80.2841 59.1834 79.8988C58.9785 78.4028 58.922 77.8286 58.8339 75.5404C58.7485 73.3222 58.33 71.1359 57.9116 68.95L57.9116 68.95C57.7598 68.1569 57.608 67.3639 57.4721 66.5694C57.0094 63.8638 56.5564 61.1197 56.5157 58.0387C56.4542 58.1293 56.3941 58.2187 56.335 58.3066L56.3348 58.3069C55.6683 59.2982 55.1242 60.1075 54.1719 60.4226C52.5913 60.946 51.2082 60.5585 50.1004 59.3142C48.8377 57.896 48.0175 56.2821 47.5561 54.4075C46.822 51.4244 46.686 48.5022 47.6381 45.554C48.0945 44.1396 49.7311 41.6267 51.3643 41.8568ZM54.425 53.0728C54.8109 53.3492 55.1608 53.5998 55.4836 52.5997C55.3797 48.8791 54.1825 46.5042 52.3169 46.4143C53.3125 47.6955 54.2672 48.946 54.3478 50.6807C53.9302 50.4912 53.6615 50.1931 53.404 49.9074C53.2247 49.7084 53.0508 49.5155 52.8357 49.3694C52.7441 49.3072 52.6544 49.2383 52.564 49.1689C52.1466 48.8482 51.7132 48.5153 50.9922 48.7652C51.3304 49.278 51.7962 49.64 52.2575 49.9985C52.7902 50.4125 53.317 50.8219 53.6343 51.4536C52.697 52.1259 52.2936 53.0107 52.7801 54.0787C53.2021 55.0055 53.8262 55.7711 55.0625 55.827C55.0163 55.2706 54.6477 54.8657 54.2895 54.4723C53.854 53.9939 53.4338 53.5324 53.6276 52.8361C53.9101 52.704 54.1751 52.8938 54.425 53.0728Z" fill="black"/>
<path d="M130.9 136.133L15.7795 135.842C15.7795 135.842 18.732 117.396 24.2743 106.908C30.7212 94.7087 39.6053 83.5064 59.5949 78.7321C60.3922 78.5417 68.0827 82.629 70.9298 84.0325C72.2495 84.6835 77.7455 84.289 77.7455 84.289L87.5294 79.4648C87.5294 79.4648 99.0388 83.1579 104.882 86.4331C112.317 90.6003 120.712 102.895 124.579 112.475C128.689 122.657 130.9 136.133 130.9 136.133Z" fill="white"/>
<path d="M71.4704 136.133C71.4704 136.133 71.3162 124.926 71.4346 121.192C71.6148 115.511 73.1604 96.2017 73.1604 96.2017C73.1604 96.2017 74.6412 96.6152 75.4121 96.4491C75.8978 96.3448 78.1069 95.4162 78.1069 95.4162C78.1069 95.4162 82.0238 104.783 82.8383 108.057C84.2122 113.579 85.7775 130.625 85.7775 130.625L86.0206 136.133L71.4704 136.133Z" fill="black"/>
<path fill-rule="evenodd" clip-rule="evenodd" d="M128.796 129.307C129.286 131.583 129.777 133.861 130.339 136.133C130.747 136.133 131.061 136.133 131.344 136.052C130.841 134.275 130.573 132.486 130.307 130.709C130.135 129.557 129.963 128.41 129.728 127.273C129.178 124.606 128.562 121.956 127.784 119.363C126.897 116.406 125.89 113.475 124.667 110.624C123.404 107.677 122.091 104.749 120.406 102.024C118.1 98.2827 115.461 94.7554 112.522 91.4843C109.206 87.8005 104.981 85.46 100.627 83.4437C97.6112 82.0476 94.5329 80.6596 91.3282 79.6882C89.0709 79.004 86.7346 78.6022 84.3504 78.614C83.8276 78.6166 83.5362 78.9369 83.8683 79.2833C84.5959 80.0422 84.0779 80.3229 83.576 80.5949C83.524 80.6231 83.4722 80.6512 83.422 80.6797C83.2128 80.7984 83.0042 80.9196 82.7954 81.041L82.7954 81.041L82.7949 81.0412C81.9689 81.5213 81.1394 82.0033 80.257 82.3423C79.8433 82.5012 79.4471 82.7196 79.0517 82.9376C78.2858 83.36 77.523 83.7806 76.6421 83.7632C76.0262 83.7509 75.4132 83.7698 74.8007 83.7888L74.8006 83.7888C74.3693 83.8022 73.9382 83.8155 73.5065 83.8179C72.8713 83.822 72.2408 83.7086 71.6471 83.4836C70.4764 83.053 69.4049 82.4379 68.3325 81.8222C67.5542 81.3754 66.7754 80.9283 65.9579 80.5513C65.6194 80.3952 65.2788 80.2419 64.9378 80.0883C63.279 79.3413 61.61 78.5897 60.1266 77.5076C59.6702 77.1747 59.2259 77.3509 58.8578 77.5771C57.5753 78.3654 56.1718 78.8598 54.7644 79.3556C53.5335 79.7892 52.2995 80.2238 51.1407 80.8571C48.7366 82.1706 46.2357 83.3527 43.7422 84.5253C39.1089 86.7044 35.3863 90.0811 32.0212 93.8913C30.1645 95.9839 28.4827 98.2242 26.9926 100.59C25.2288 103.402 23.6588 106.33 22.2933 109.354C21.2661 111.634 20.3772 113.966 19.5707 116.333L19.4657 116.641C18.8132 118.553 18.1617 120.463 17.6987 122.433C17.5508 123.062 17.3887 123.688 17.2265 124.314L17.2265 124.314C16.9585 125.349 16.6904 126.384 16.4873 127.431C15.9268 130.321 15.4616 133.23 15.0554 136.132C15.6159 136.132 16.0773 136.132 16.5666 136.038C16.6806 135.306 16.7799 134.582 16.8781 133.866C17.0698 132.47 17.2576 131.101 17.5426 129.753C17.6208 129.383 17.6983 129.013 17.7758 128.642C18.3382 125.953 18.9008 123.263 19.7746 120.641C19.8525 120.407 19.9303 120.173 20.0081 119.939C20.8466 117.418 21.6853 114.896 22.7078 112.448C23.7279 110.006 24.9044 107.633 26.1651 105.291C28.7296 100.526 31.8254 96.1823 35.6091 92.3155C38.3982 89.4649 41.5755 87.125 45.1694 85.4096C45.3719 85.3129 45.5775 85.1992 45.7867 85.0833L45.7867 85.0833L45.7868 85.0833L45.7868 85.0832C46.6009 84.6326 47.4711 84.1509 48.4409 84.5242C50.4245 85.2878 52.4061 86.0935 54.2887 87.0721C56.8314 88.3938 59.3329 89.7945 61.8342 91.195L61.8342 91.1951L61.8345 91.1953C62.6131 91.6312 63.3916 92.0671 64.1713 92.5006L64.2116 92.523C65.9629 93.4969 65.9638 93.4974 67.0788 91.8597C67.0901 91.843 67.1137 91.8347 67.1417 91.8248C67.1483 91.8225 67.1551 91.82 67.1621 91.8174C67.1703 91.8143 67.1788 91.8109 67.1873 91.8069C68.0226 92.1674 68.7642 92.6838 69.5067 93.2009C69.926 93.4928 70.3455 93.785 70.7823 94.0494C72.5871 95.1417 72.7546 95.5813 72.0739 97.4412C71.6776 98.5241 71.2923 99.611 70.9071 100.698L70.907 100.698L70.9069 100.699L70.9067 100.699L70.9066 100.699L70.9065 100.7L70.9064 100.7C70.3961 102.14 69.8859 103.579 69.3499 105.009C67.9497 108.745 66.7376 112.538 65.8208 116.419C65.3607 118.366 65.7484 119.071 67.5621 120.026C67.9877 120.25 68.4175 120.467 68.8472 120.683L68.8474 120.683C69.3162 120.919 69.7849 121.155 70.2483 121.401C70.7117 121.647 70.9746 122.022 70.9217 122.59C70.5964 126.06 70.4861 129.537 70.4692 133.021C70.4666 133.568 70.4026 134.115 70.3386 134.662C70.2813 135.152 70.2239 135.642 70.2108 136.132H71.4701C71.9822 131.33 72.1466 126.512 72.3025 121.688C72.3809 119.266 72.5648 116.848 72.7488 114.43C72.8542 113.045 72.9595 111.66 73.0451 110.274C73.1105 109.214 73.1268 108.152 73.143 107.09V107.089V107.089V107.089V107.089V107.089V107.089C73.1674 105.493 73.1918 103.896 73.3831 102.306C73.5348 101.045 73.6556 99.7804 73.7799 98.4799L73.7799 98.4796C73.8365 97.8876 73.8938 97.288 73.955 96.678C75.4479 97.2859 76.6413 96.7002 77.7843 95.9769C78.4206 96.4989 78.686 97.2088 78.9406 97.8898L78.9406 97.8899L78.9406 97.89C79.0105 98.077 79.0796 98.2618 79.1554 98.44C80.3585 101.273 81.1387 104.242 81.8934 107.228C82.2957 108.82 82.6932 110.405 82.9695 112.021L83.0919 112.735L83.0919 112.736C83.6182 115.807 84.1443 118.877 84.5103 121.975C84.8435 124.797 85.0285 127.629 85.2136 130.46V130.461V130.461V130.461V130.461V130.461V130.461C85.2817 131.503 85.3498 132.546 85.4253 133.587C85.447 133.887 85.4539 134.188 85.4609 134.495V134.495C85.472 134.986 85.4836 135.493 85.557 136.035C85.9879 136.132 86.3018 136.132 86.6438 136.03C86.8875 130.256 86.2029 124.649 85.4764 119.044C85.4285 118.674 85.377 118.305 85.3254 117.936L85.3253 117.935L85.3252 117.935L85.3252 117.935L85.3252 117.934L85.3252 117.934L85.3251 117.934L85.3251 117.934C85.2374 117.306 85.1496 116.677 85.0796 116.045C84.883 114.304 84.5939 112.575 84.2134 110.864C84.0407 110.081 83.8134 109.309 83.5862 108.537L83.5862 108.537C83.3288 107.664 83.0716 106.79 82.8938 105.901C82.5629 104.244 82.0138 102.671 81.4545 101.093C80.7821 99.1962 80.0159 97.3403 78.9536 95.619C78.7905 95.3547 78.6314 94.9932 78.9896 94.8336C79.8088 94.4685 80.4555 93.8755 81.1076 93.2775C81.7029 92.7316 82.3029 92.1814 83.0427 91.7969C83.1027 91.9302 83.1577 92.0605 83.2114 92.1876C83.3249 92.4561 83.4324 92.7104 83.5673 92.9493C84.3157 94.2744 84.7044 94.3526 85.9115 93.4142C86.6307 92.8552 87.3911 92.3574 88.1523 91.8592C88.9873 91.3126 89.8232 90.7655 90.6067 90.1361C91.6679 89.2837 92.8268 88.5691 93.9872 87.8535C95.2773 87.0581 96.5693 86.2614 97.7307 85.2731C99.8488 83.4707 103.207 85.8347 107.248 88.6787L107.306 88.7201C111.139 91.4177 114.011 95.0549 116.661 98.8576C118.537 101.55 120.113 104.412 121.596 107.348C123.071 110.263 124.326 113.283 125.352 116.383C126.381 119.495 127.322 122.633 128.042 125.849C128.299 127 128.547 128.153 128.796 129.307ZM65.7528 90.8622C65.558 91.213 65.3797 91.4114 64.9727 91.2453C62.9663 90.2932 61.0488 89.2176 59.1471 88.151L59.1471 88.151C56.0779 86.4295 53.0501 84.7313 49.7573 83.6127C49.7597 83.1642 49.9686 83.0687 50.16 82.9812L50.1882 82.9683C51.3484 82.4404 52.4736 81.8395 53.5572 81.1691C54.1574 80.7784 54.8576 80.5675 55.5746 80.5614C57.3359 80.5547 59.1039 80.5328 60.7022 79.5979C61.1228 79.3518 61.5452 79.4804 61.9752 79.7267C62.4429 79.995 62.9092 80.2659 63.3755 80.5369L63.3757 80.537L63.3763 80.5373L63.3763 80.5373C65.3247 81.6696 67.2734 82.802 69.3319 83.7347C69.7369 83.9183 70.1249 84.1445 70.3633 84.5735C68.5642 86.4658 67.0148 88.5791 65.7528 90.8622ZM88.3261 90.1985C89.7446 88.9831 91.3266 87.9971 92.9041 87.014L92.9042 87.0139C94.3141 86.1352 95.7205 85.2587 97.0031 84.2227C96.8755 83.8512 96.6611 83.6977 96.4544 83.5497C96.4163 83.5224 96.3786 83.4954 96.3416 83.4672C94.8633 82.3404 93.1466 81.7182 91.4349 81.0978C90.8615 80.8899 90.2887 80.6823 89.7256 80.456C88.9149 80.1305 87.9242 79.78 86.9103 80.3408C86.4998 80.5681 86.0911 80.7992 85.6822 81.0304C83.9186 82.0277 82.1526 83.0263 80.2346 83.7198C79.6483 83.9317 79.5771 84.2113 79.9447 84.7203C80.2944 85.2043 80.6272 85.7005 80.96 86.1966C81.3499 86.778 81.7398 87.3593 82.1567 87.9208C82.8806 88.8957 83.6324 89.8501 84.3784 90.7973L84.3794 90.7984C84.7002 91.2058 85.02 91.6118 85.3361 92.0175C86.3493 91.4136 87.2764 90.8607 88.3261 90.1984V90.1985ZM72.268 85.638C72.7486 85.2633 73.2822 84.9927 73.9281 85.0819V85.0818C76.0824 84.7784 77.8204 85.2578 79.3575 86.4985C80.4177 87.3541 80.4779 87.9616 79.6583 89.0533C79.4645 89.3115 79.3067 89.5952 79.1496 89.8778C78.8783 90.3656 78.6089 90.85 78.1595 91.1933C76.597 90.348 75.04 90.134 73.4495 91.0665C72.9756 91.3441 72.6176 91.1911 72.2603 90.8276C71.7804 90.3393 71.2878 89.8633 70.7953 89.3874L70.7952 89.3873L70.795 89.3871L70.7949 89.387L70.7948 89.3869C70.5632 89.1631 70.3316 88.9393 70.1014 88.7143C69.5866 88.2108 69.423 87.792 70.1912 87.3001C70.6588 87.0007 71.0834 86.6357 71.5085 86.2702L71.5086 86.2701L71.5086 86.2701L71.5086 86.2701C71.7586 86.0551 72.0088 85.84 72.268 85.638ZM69.7106 119.694C69.8531 119.739 69.9856 119.81 70.1239 119.884C70.3913 120.027 70.6804 120.182 71.1058 120.181C71.1818 118.487 71.2489 116.794 71.316 115.101L71.316 115.1C71.4916 110.671 71.667 106.246 72.0007 101.82C71.5878 102.713 71.2626 103.624 70.9389 104.531C70.7831 104.967 70.6277 105.403 70.463 105.835C69.0437 109.558 67.9532 113.377 67.0159 117.244C66.8777 117.814 66.8978 118.29 67.471 118.588C68.1604 118.947 68.8598 119.287 69.7106 119.694V119.694ZM75.291 91.6182C75.7719 91.5155 76.273 91.5639 76.7252 91.7567C77.8827 92.8795 78.0224 93.7527 77.3105 94.5778C76.3284 95.7161 74.8273 96.0565 73.8295 95.3567C73.0715 94.8251 72.9524 94.0132 73.1863 93.2496C73.4824 92.2833 74.3285 91.801 75.291 91.6182ZM71.6213 93.146C72.5354 93.0333 72.0929 92.3873 71.8691 92.1679C71.0821 91.3965 70.2535 90.667 69.3592 89.8798L69.3591 89.8797L69.359 89.8796C69.0291 89.5892 68.6903 89.2909 68.3414 88.9798C68.2813 89.4025 68.0855 89.6813 67.8884 89.9621C67.7718 90.1282 67.6546 90.2951 67.5648 90.4929L67.5887 90.5086C68.9159 91.3831 70.2067 92.2335 71.6215 93.1457L71.6213 93.146ZM79.9676 90.95C80.084 90.8091 80.2004 90.6683 80.318 90.5285L80.3181 90.5281C80.4059 90.3875 80.4842 90.2514 80.5589 90.1216C80.7853 89.728 80.9789 89.3915 81.3033 89.1578C82.4002 90.2337 82.4009 90.636 81.3454 91.4581C81.2389 91.5411 81.1291 91.621 81.0194 91.7009C80.7666 91.8849 80.5137 92.069 80.3003 92.2907C79.9844 92.6191 79.6745 92.9263 79.1788 93.1046C78.7091 92.714 78.7667 92.3332 79.1566 91.9022C79.4361 91.5932 79.7019 91.2716 79.9676 90.95Z" fill="black"/>
<path d="M114.063 136.133C113.241 132.895 112.974 129.569 112.085 126.363C111.401 123.894 110.85 121.375 109.963 118.98C109.333 117.278 108.734 115.548 107.9 113.907C106.779 111.702 105.843 109.405 104.84 107.141C104.726 106.884 104.572 106.582 104.951 106.355C105.341 106.121 105.616 106.321 105.825 106.595C106.187 107.07 106.579 107.544 106.828 108.08C107.657 109.864 108.523 111.635 109.376 113.405C110.684 116.114 111.559 118.962 112.391 121.813C113.201 124.59 113.953 127.396 114.312 130.297C114.546 132.181 114.942 134.049 115.081 136.042C114.785 136.133 114.471 136.133 114.063 136.133Z" fill="black"/>
<path d="M34.2681 136.133C34.393 135.438 34.3109 134.721 34.3195 134.013C34.3637 130.417 34.8637 126.874 35.4035 123.325C35.9138 120.009 36.637 116.73 37.5686 113.506C38.2254 111.219 39.2851 109.053 40.623 107.05C40.8028 106.781 40.9989 106.535 41.3416 106.723C41.6526 106.895 41.6628 107.209 41.5422 107.515C41.2675 108.212 41.0316 108.929 40.6945 109.595C39.0609 112.826 38.3833 116.329 37.6012 119.818C37.2116 121.556 36.7033 123.265 36.381 125.028C36.0972 126.58 35.8258 128.135 35.86 129.696C35.9054 131.798 35.4247 133.861 35.5323 136.045C35.14 136.133 34.7524 136.133 34.2681 136.133Z" fill="black"/>
<path d="M58.9228 22.1435C59.6437 21.6245 60.5615 21.5475 60.7605 20.4445C60.8745 19.8126 61.6033 20.4759 62.0374 20.3252C61.3052 18.3243 61.7351 17.5637 63.5662 17.591C64.6121 15.7395 64.8167 15.6634 66.2425 16.6553C66.7111 15.9278 66.4703 15.1255 66.5136 14.3689C66.5586 13.5839 66.5035 12.7889 66.6057 12.0131C66.6675 11.5443 66.9049 11.047 67.4785 10.9496C68.0123 10.8589 68.3635 11.1376 68.7049 11.5542C69.3487 12.3399 70.3552 12.7734 70.7732 14.1158C71.4726 11.943 70.1457 9.78988 72.0406 8.21096L74.9333 10.4149C75.2531 9.76314 75.0384 9.09608 75.081 8.46131C75.1211 7.86313 75.081 7.25986 75.1163 6.66124C75.1385 6.285 75.2271 5.87605 75.6526 5.75676C76.0108 5.6563 76.1375 6.02805 76.3506 6.22492C77.6882 7.46007 78.9639 8.74272 79.8379 10.4286C79.8379 9.61755 79.8412 8.80658 79.8366 7.99561C79.8205 7.54483 79.9157 7.097 80.1138 6.69141C80.4722 5.98768 80.8758 5.84596 81.5028 6.41546C82.6527 7.45989 83.6893 8.56845 84.0894 10.1284C84.1522 10.4571 84.3769 10.7322 84.6872 10.8603C85.0222 9.60048 84.4989 8.50741 84.1467 7.39594C83.8538 6.47185 83.729 5.60185 84.3763 4.73124C84.8261 4.12629 85.2587 4.09269 85.5852 4.69359C86.3827 6.16123 88.352 6.19836 89.123 7.66345C90.9427 7.79382 91.7444 9.13329 92.5264 10.5007C92.7951 10.9574 92.9172 11.485 92.8763 12.0127C92.8207 12.7408 93.0564 13.4061 93.3283 14.0951C93.5844 13.203 94.4591 12.5272 93.8842 11.3048C94.7761 11.5834 95.1835 11.9734 95.3557 12.5522C95.5932 13.3513 96.2554 13.9374 96.4216 14.7705C96.4755 14.9496 96.6081 15.0946 96.782 15.1648C99.5555 15.9653 100.004 18.2476 100.339 20.6236C100.641 22.7663 99.7095 24.6466 99.11 26.5991C98.9908 26.9872 98.845 27.3672 98.6212 28.0105C99.2372 27.6262 99.7103 27.4277 100.053 27.0956C100.679 26.4896 101.115 26.7129 101.519 27.3037C102.197 28.2966 101.966 29.4149 101.824 30.469C101.727 31.1874 103.336 34.8385 100.555 38.3421C99.7672 39.3343 98.8662 39.8366 98.2766 40.8059C98.0265 41.2167 97.5843 41.0045 97.4137 40.5771C97.2484 40.1627 97.0418 39.7186 97.0469 39.2898C97.0856 36.0237 95.6636 33.483 93.2205 31.4256C93.1348 31.3533 92.9847 31.2951 92.969 31.2111C92.6577 29.5452 91.3422 29.968 90.2363 29.8403C88.6017 29.6514 86.9558 29.3834 85.8003 28.0249C85.5167 27.6915 85.191 27.6704 84.8155 27.6027C82.7569 27.2309 80.7177 30.0042 79.3091 28.4351C77.9478 26.9189 76.3775 26.8354 74.6041 27.0823C72.5611 27.3669 70.913 28.5672 69.2395 29.5755C67.5483 30.5947 60.0513 33.2312 59.133 40.5135C59.015 41.4426 59.1393 42.3863 59.4939 43.2535C59.87 44.1703 59.9047 45.1453 60.2409 46.0617C60.6194 47.093 60.2556 48.1018 59.6519 48.9283C59.1132 49.6659 58.7613 50.4806 58.3457 51.2697C58.1446 51.6513 57.9452 52.0852 57.4903 52.042C56.9652 51.9921 56.8341 51.5142 56.7927 51.0338C56.6093 48.8982 56.2092 46.8233 55.0064 44.9868C54.6405 44.4282 54.331 43.8074 53.8665 43.3433C52.8542 42.3316 52.641 41.0629 52.5138 39.7504C52.2059 36.5737 53.1454 33.6753 54.2452 30.7274C55.3964 27.6425 57.3316 25.0492 58.9228 22.1435Z" fill="black"/>
<path d="M84.7656 67.739C85.1971 66.4825 85.132 66.3103 83.9034 66.0931C83.004 65.9341 82.1967 65.5393 81.3432 65.2662C80.3819 64.9587 79.7521 64.0527 78.7406 63.8135C78.2101 66.4326 81.7193 68.7839 84.7656 67.739Z" fill="white"/>
<path fill-rule="evenodd" clip-rule="evenodd" d="M78.4691 67.3514C80.0985 68.8606 82.0596 69.595 84.4226 69.215C84.6182 69.1344 84.808 69.0614 84.9919 68.9907C85.4109 68.8297 85.7995 68.6804 86.1583 68.4786C86.6125 68.2235 86.98 67.6755 86.5822 67.2668C85.7052 66.3659 86.145 65.8463 86.9349 65.3199C87.2789 65.0905 87.5007 64.7705 87.3172 64.3718C87.0761 63.8472 86.6104 64.0378 86.246 64.1924C85.8186 64.3736 85.3822 64.419 84.9359 64.4654C84.8627 64.4731 84.7891 64.4807 84.7153 64.489C82.5291 64.7344 80.7558 63.7056 78.9929 62.6828C78.977 62.6735 78.961 62.6642 78.945 62.655C77.9027 62.0503 77.2664 62.254 77.131 63.4661C76.9661 64.9438 77.3777 66.3403 78.4691 67.3514ZM83.9032 66.0935C85.1317 66.3107 85.1969 66.4829 84.7653 67.7394L84.7654 67.7391C81.7192 68.7839 78.2099 66.4327 78.7404 63.8139C79.2758 63.9405 79.7043 64.254 80.1316 64.5666C80.5115 64.8446 80.8905 65.1219 81.3429 65.2666C81.6327 65.3593 81.9172 65.4661 82.2017 65.5729C82.7552 65.7806 83.3091 65.9885 83.9032 66.0935Z" fill="black"/>
<path d="M75.7638 62.1073C76.4902 62.432 76.443 62.9188 76.1378 63.4287C75.9058 63.8162 75.5595 64.0552 75.1047 63.7723C74.6808 63.5084 74.7737 63.1507 75.0181 62.8052C75.2072 62.5383 75.2863 62.1671 75.7638 62.1073Z" fill="black"/>
<path d="M83.5697 58.1121C83.1249 58.1243 82.8014 58.0716 82.5118 57.8581C82.2633 57.6749 82.2265 57.4341 82.2762 57.1617C82.3287 56.8738 82.5623 56.8306 82.7897 56.8416C84.04 56.9021 85.2622 56.8038 86.4223 56.2815C86.7059 56.1538 86.9547 56.2622 87.0988 56.5129C87.255 56.785 87.2763 57.0655 87.0351 57.3379C86.5863 57.8451 86.0461 58.1214 85.3593 58.11C84.7961 58.1005 84.2325 58.1111 83.5697 58.1121Z" fill="black"/>
<path d="M72.8612 48.7897C73.3016 47.7307 73.6462 46.2035 74.988 46.8091C76.814 47.6336 76.2117 49.512 75.8424 50.9753C75.7031 51.5275 74.5602 52.3751 74.2305 52.2382C72.7922 51.6408 72.5294 50.3256 72.8612 48.7897Z" fill="black"/>
<path d="M92.8908 52.0261C92.1336 52.6819 91.3924 52.6946 90.9356 51.8941C90.131 50.4832 90.1751 49.0066 91.2292 47.7385C91.4494 47.4737 92.4436 47.4192 92.6663 47.6557C93.8975 48.963 93.9506 50.4456 92.8908 52.0261Z" fill="black"/>
<path fill-rule="evenodd" clip-rule="evenodd" d="M86.7266 44.2529C90.9531 41.1689 96.1185 42.8837 97.6938 47.5077C98.7034 50.4705 97.4163 54.3904 93.7963 55.6963C90.1243 57.0209 86.9239 55.8319 85.1214 52.5C84.7051 51.7305 84.5273 50.8607 84.4524 50.0327C84.3608 49.02 83.9507 48.5285 82.9818 48.403C81.8826 48.2605 81.1679 48.7169 80.8168 49.7499C80.7016 50.089 80.6363 50.4369 80.5707 50.7867V50.7868C80.4934 51.1985 80.4157 51.6129 80.2554 52.0188C78.3864 56.7494 72.3717 57.7148 68.8671 54.0095C68.1174 53.2169 67.7025 52.1782 67.3797 51.1453C66.9459 49.7569 66.0984 48.8979 64.693 48.4264C62.9474 47.841 61.2185 47.2062 59.4895 46.5714C58.5098 46.2117 57.53 45.852 56.5472 45.5013C56.0486 45.3233 55.5157 45.117 55.7815 44.5152C55.9781 44.0695 56.3068 44.2126 56.6373 44.3566C56.7373 44.4001 56.8375 44.4438 56.9343 44.4712C58.4526 44.8998 59.9172 45.4774 61.3816 46.0549C62.8413 46.6305 64.3007 47.206 65.8127 47.6338C66.7359 47.8949 67.4865 47.4291 67.7995 46.6542C68.8215 44.1226 70.9013 42.8853 73.3634 42.736C76.4139 42.5513 78.9015 43.8666 80.1659 46.8852C80.2433 47.0698 80.3434 47.245 80.4448 47.4226C80.4927 47.5064 80.5409 47.5908 80.5871 47.6769C81.9269 47.1286 83.2295 47.1667 84.6102 47.732C84.9342 46.3434 85.7085 45.2665 86.7266 44.2529ZM75.8381 54.7541C77.9792 53.8733 79.373 52.3355 79.6351 50.0221C80.1281 45.6765 75.9161 42.6979 71.7542 44.2832C68.546 45.5051 67.1713 49.7385 69.3104 52.6518C70.9307 54.858 73.0906 55.4035 75.8381 54.7541ZM92.1529 43.8143C93.874 43.9606 95.1242 45.1459 96.1017 46.5474C97.3502 48.6279 97.101 51.4087 95.1208 53.5008C93.8226 54.8725 90.8938 55.5419 88.9228 54.6373C86.7249 53.6285 85.2566 51.4956 85.6026 48.857C86.1237 44.8845 89.1287 43.5573 92.1529 43.8143Z" fill="black"/>
<path d="M152.24 136.217L131.407 136.442C131.407 136.442 125.729 129.824 128.648 112.33C129.07 109.801 127.292 93.8398 127.231 92.6247C127.069 89.437 125.904 83.3029 124.379 80.8899C117.482 69.9765 118.58 68.3442 118.257 65.8708C117.915 63.2554 117.323 58.7286 116.903 56.9818C116.71 56.1766 115.299 50.4625 116.875 50.2936C124.396 49.4876 121.871 63.6528 124.774 62.4988C129.208 60.736 130.43 55.1428 130.43 55.1428C130.43 55.1428 137.056 40.0828 140.083 40.0828C141.327 40.0828 139.436 47.874 139.436 47.874C139.436 47.874 146.309 39.8523 147.783 39.9363C149.257 40.0202 146.704 46.1387 146.704 46.1387C146.704 46.1387 149.928 43.6624 151.104 44.5629C152.661 45.755 144.387 57.852 145.608 57.9201C146.534 57.9717 148.329 54.9362 149.489 54.4209C151.441 53.5534 152.134 53.3891 152.209 55.1571C152.289 57.0308 148 62.6829 145.998 65.871C144.965 67.5154 138.857 77.078 137.521 79.703C135.83 83.0233 139.159 88.5924 140.506 91.277C141.854 93.9617 147.051 109.499 148.884 112.328C150.717 115.158 152.493 119.702 153.097 124.529C153.765 129.864 152.24 136.217 152.24 136.217Z" fill="white"/>
<path fill-rule="evenodd" clip-rule="evenodd" d="M126.215 89.7298C126.297 90.3753 126.38 91.0216 126.479 91.6662C126.492 91.752 126.351 90.4878 126.21 89.2329C125.903 86.4797 125.6 83.7711 126.945 95.4615C127.048 96.3531 127.128 97.2474 127.203 98.1417C127.502 101.688 127.579 105.243 127.656 108.8C127.664 109.202 127.756 109.612 127.846 110.018C127.973 110.585 128.098 111.146 127.995 111.669C127.81 112.607 127.719 113.559 127.628 114.51C127.495 115.901 127.362 117.29 126.936 118.635C126.741 119.25 126.725 119.884 126.727 120.524C126.734 124.196 127.084 127.805 128.245 131.33C128.859 133.192 129.619 134.931 130.968 136.443H132.004C131.722 135.508 131.257 134.662 130.791 133.813C130.471 133.23 130.15 132.646 129.888 132.032C129.167 130.321 128.701 128.514 128.507 126.668L128.499 126.601C128.308 124.886 128.115 123.156 128.191 121.415C128.238 120.325 128.347 119.276 129.08 118.302C129.327 119.122 129.565 119.944 129.803 120.764C131.405 126.281 132.994 131.75 136.814 136.375C137.309 136.444 137.811 136.443 138.306 136.372C135.577 133.253 133.795 129.662 132.629 125.84C132.494 125.396 132.356 124.952 132.219 124.508C131.24 121.337 130.255 118.151 129.856 114.825C129.753 113.969 129.604 113.117 129.455 112.265C129.237 111.016 129.019 109.769 128.947 108.511C128.892 107.561 128.84 106.611 128.788 105.661C128.507 100.525 128.226 95.3902 127.565 90.2796C127.06 86.3223 125.919 82.4716 124.187 78.8753C123.447 77.3397 122.59 75.8606 121.732 74.381C121.113 73.3112 120.493 72.2411 119.917 71.1491C119.795 70.9196 119.655 70.6954 119.514 70.4702C119.082 69.7813 118.643 69.0817 118.732 68.1841C119.089 64.5667 118.368 61.076 117.647 57.5811C117.538 57.05 117.428 56.5188 117.322 55.987C117.039 54.5656 116.787 53.1165 116.894 51.6496C116.96 50.7472 117.458 50.4382 118.151 50.9132C120.036 52.2049 121.206 54.1325 121.893 56.1782C122.463 57.8755 122.638 59.7564 122.675 61.6037C122.702 62.9848 123.684 63.5747 125.007 63.1783C126.59 62.7036 127.548 61.4948 128.495 60.3001C128.519 60.2702 128.542 60.2402 128.566 60.2103C129.457 59.0862 129.996 57.7766 130.535 56.4669C130.746 55.9556 130.956 55.4442 131.187 54.9439C132.907 51.2245 134.759 47.5674 136.846 44.0405C136.893 43.96 136.941 43.879 136.989 43.7977C137.688 42.6045 138.426 41.3465 139.981 40.7865C139.89 41.3085 139.802 41.8293 139.715 42.3486C139.087 46.0708 138.472 49.7175 137.05 53.1981L137.61 53.4643C140.097 48.542 142.939 43.8984 147.366 40.3898C147.66 41.005 147.623 41.4936 147.505 42.0214C147.058 44.0216 146.059 45.7614 145.061 47.4999C144.706 48.1171 144.352 48.7342 144.022 49.3627C143.571 50.2228 143.056 51.049 142.541 51.8756C142.206 52.4125 141.871 52.9496 141.553 53.4961C141.544 53.5119 141.535 53.5278 141.526 53.5438C141.29 53.9472 141.024 54.4033 141.387 54.8772C141.763 54.8422 141.894 54.6197 142.015 54.4131C142.024 54.3985 142.033 54.384 142.041 54.3696C142.885 52.9567 143.745 51.5546 144.754 50.25C144.987 49.9497 145.216 49.6465 145.444 49.3432C146.564 47.8601 147.683 46.3775 149.206 45.2438C149.262 45.2019 149.318 45.158 149.375 45.1138C149.789 44.7912 150.216 44.4586 150.671 44.8665C151.197 45.3388 151.019 46.0525 150.699 46.6269C150.245 47.4419 149.778 48.2496 149.311 49.0575C148.696 50.1216 148.08 51.1861 147.493 52.2678C147.264 52.6889 147.035 53.1097 146.806 53.5304C145.807 55.364 144.808 57.1974 143.86 59.0581C143.672 59.427 143.534 59.8299 144.118 60.2385C145.187 59.5123 146.06 58.551 146.937 57.5853C148.125 56.2778 149.32 54.9622 151.017 54.2111C151.556 54.9657 151.696 55.6254 151.084 56.5178C150.155 57.8731 149.279 59.2643 148.403 60.6558C147.815 61.5906 147.226 62.5255 146.622 63.4496C146.074 64.2864 145.593 65.1625 145.113 66.0383C144.463 67.2219 143.813 68.405 143 69.4901C140.984 72.1801 139.297 75.0556 137.755 78.0444C136.379 80.7115 136.638 83.3539 137.53 85.9558C138.6 89.0777 140.01 92.0783 141.46 95.0516C142.579 97.3491 143.355 99.7879 144.126 102.211C144.235 102.553 144.343 102.895 144.453 103.236C144.493 103.361 144.533 103.486 144.573 103.611C145.294 105.852 146.019 108.108 146.573 110.406C146.705 110.954 146.843 111.501 146.981 112.048C147.471 113.998 147.961 115.948 148.208 117.941C148.571 120.877 148.537 123.826 148.2 126.779C148.157 127.161 148.116 127.544 148.076 127.927C147.76 130.912 147.447 133.881 145.671 136.443H148.731C152.863 129.067 151.406 121.59 149.011 114.096C150.038 115.181 150.624 116.724 150.968 118.072C151.469 120.031 151.91 121.995 152.192 123.994C152.754 127.988 152.735 131.96 151.707 135.889C151.694 135.938 151.673 135.985 151.651 136.035C151.611 136.127 151.566 136.227 151.564 136.364C151.908 136.442 152.264 136.443 152.608 136.368C152.628 136.329 152.647 136.29 152.667 136.251C152.98 135.622 153.261 135.057 153.357 134.413C153.688 132.193 153.932 129.956 153.928 127.719C153.924 124.338 153.12 121.059 152.293 117.801C152.242 117.599 152.201 117.395 152.16 117.191C152.063 116.705 151.965 116.218 151.728 115.761C150.72 113.824 149.748 111.869 148.776 109.914C148.175 108.706 147.574 107.497 146.965 106.292C145.876 104.141 145.106 101.854 144.334 99.5631C143.7 97.6787 143.064 95.7917 142.249 93.9752C141.747 92.8547 141.298 91.7092 140.849 90.5641C140.252 89.0406 139.655 87.5179 138.933 86.0555C137.82 83.8029 137.56 81.6032 138.398 79.2835C139.137 77.2381 140.35 75.4581 141.561 73.6802C141.966 73.0862 142.37 72.4924 142.757 71.889C143.195 71.2054 143.66 70.5386 144.125 69.8717C144.897 68.7633 145.67 67.6546 146.321 66.4684C147.35 64.5912 148.504 62.7918 149.658 60.9924C150.257 60.0601 150.855 59.1277 151.435 58.1846C151.461 58.1433 151.486 58.1021 151.512 58.0608C152.134 57.0523 152.767 56.0257 152.634 54.7566C152.467 53.171 151.559 52.7186 150.115 53.4003C149.509 53.6866 148.984 54.0856 148.458 54.4854C148.062 54.7862 147.665 55.0873 147.234 55.3411C147.628 54.9356 147.825 54.4361 148.021 53.9383C148.142 53.631 148.263 53.3243 148.43 53.0407C149.621 51.0177 150.745 48.9507 151.785 46.847C152.238 45.9324 152.106 44.8557 151.369 44.1235C150.735 43.4931 149.879 43.586 149.098 44.0962C148.886 44.2354 148.641 44.3255 148.396 44.4155C148.284 44.4564 148.173 44.4974 148.065 44.5429C148.757 43.5381 148.872 42.4836 148.835 41.3735C148.833 41.3171 148.832 41.2605 148.831 41.2038C148.817 40.6048 148.803 40.0032 148.174 39.7053C147.491 39.3812 146.811 39.4646 146.169 39.9509C144.677 41.0795 143.451 42.4597 142.219 43.8474C142.17 43.9027 142.12 43.958 142.071 44.0133C141.799 44.32 141.55 44.6471 141.3 44.9757C140.87 45.5422 140.436 46.113 139.87 46.5913C140.455 44.9112 140.705 43.2042 140.955 41.4957C140.962 41.4449 140.97 41.3941 140.977 41.3433C140.991 41.2475 141.009 41.1518 141.027 41.0569C141.123 40.5569 141.214 40.0795 140.663 39.7303C140.065 39.3518 139.498 39.6102 138.975 39.9296C137.461 40.8545 136.473 42.2587 135.595 43.7405C134.247 46.0158 133.098 48.3972 131.976 50.7874C131.664 51.4518 131.336 52.1081 131.009 52.7645C130.291 54.2048 129.573 55.6456 129.015 57.1726C128.327 59.0586 127.056 60.6787 125.386 61.8006C124.507 62.3963 123.814 62.0832 123.708 61.1255C123.678 60.8541 123.65 60.5829 123.622 60.3122C123.406 58.2307 123.191 56.1737 122.242 54.1798C121.458 52.5329 120.558 51.1442 119.086 50.1276C117.785 49.2282 116.395 49.4816 115.993 50.6791C115.796 51.2459 115.705 51.8439 115.724 52.4435C115.823 54.3822 116.241 56.2677 116.659 58.1537C116.878 59.1415 117.097 60.1293 117.271 61.125C117.338 61.5098 117.419 61.8905 117.5 62.2705C117.759 63.4851 118.017 64.6908 117.798 65.9896C117.61 67.0234 117.61 68.0824 117.797 69.1163C118.155 70.9475 119.066 72.5173 119.977 74.0879C120.523 75.0295 121.07 75.9714 121.497 76.9701C122.071 78.3104 122.775 79.5991 123.479 80.8859C123.79 81.4541 124.1 82.022 124.399 82.5937C125.596 84.8824 125.905 87.3015 126.215 89.7298ZM149.993 124.593C149.992 124.666 149.992 124.738 150.002 124.806C150.195 127.519 149.594 129.937 148.938 132.35C149.395 130.557 149.488 128.73 149.583 126.89C149.631 125.945 149.68 124.997 149.778 124.047C149.995 124.193 149.994 124.396 149.993 124.593Z" fill="black"/>
<path d="M133.435 66.3815C133.178 68.4927 132.671 70.3981 131.417 72.1142C130.885 71.6327 130.968 71.2476 131.112 70.9102C132.49 67.694 132.373 64.2599 132.609 60.8775C132.622 60.6904 132.631 60.5028 132.633 60.3153C132.637 59.9555 132.669 59.6191 133.155 59.6279C133.637 59.6367 133.692 60.0278 133.692 60.3446C133.693 61.6165 133.731 62.8979 133.586 64.1567C133.506 64.8653 133.457 65.5678 133.435 66.3815Z" fill="black"/>
<path d="M135.177 78.2788C135.599 78.0351 135.983 77.9048 136.202 78.3523C136.353 78.6602 136.052 78.8501 135.849 79.0814C135.132 79.8995 134.351 80.6104 133.364 81.1003C132.625 81.4664 131.927 81.4063 131.217 81.0755C130.956 80.954 130.817 80.7491 130.859 80.4488C130.909 80.091 131.182 80.0846 131.449 80.0922C132.977 80.1357 134.098 79.3494 135.177 78.2788Z" fill="black"/>
<path d="M137.499 65.7911C138.001 65.6255 138.429 65.5396 138.806 65.8931C138.244 66.8147 136.165 67.841 135.212 67.6665C135.5 66.4943 136.646 66.3771 137.499 65.7911Z" fill="black"/>
<path d="M1.23971 135.763L22.0236 137.216C22.0236 137.216 28.0845 130.944 26.2097 113.309C25.9386 110.759 28.6611 94.9303 28.7949 93.7212C29.1458 90.5486 30.6728 84.494 32.3384 82.1751C39.8716 71.6874 38.8723 69.9932 39.342 67.5432C39.8387 64.9525 40.6984 60.4686 41.2212 58.7496C41.4621 57.9572 43.21 52.3363 41.6469 52.0748C34.1866 50.8267 35.8661 65.116 33.0368 63.7929C28.7152 61.772 27.8274 56.1165 27.8274 56.1165C27.8274 56.1165 22.1072 40.692 19.086 40.5136C17.8441 40.4403 19.2688 48.3293 19.2688 48.3293C19.2688 48.3293 12.8846 39.9165 11.4083 39.9135C9.93206 39.9104 12.1173 46.1688 12.1173 46.1688C12.1173 46.1688 9.04577 43.5066 7.81827 44.3364C6.1935 45.4345 13.7346 57.9981 12.5112 57.994C11.584 57.991 9.97206 54.855 8.84532 54.2723C6.94822 53.2912 6.26582 53.0864 6.08577 54.8468C5.89495 56.7127 9.84129 62.6076 11.6503 65.9081C12.5834 67.6104 18.1126 77.5161 19.291 80.2156C20.7814 83.6297 17.1276 88.9928 15.6229 91.5933C14.1182 94.1937 8.00741 109.397 6.00983 112.114C4.01224 114.831 1.96954 119.262 1.07945 124.045C0.0955762 129.331 1.23971 135.763 1.23971 135.763Z" fill="white"/>
<path fill-rule="evenodd" clip-rule="evenodd" d="M29.9813 90.8915C29.8607 91.531 29.7399 92.1711 29.6025 92.8086C29.5839 92.895 29.8083 91.5942 30.0267 90.3281C30.4936 87.6219 30.9332 85.0741 28.9139 96.5687C28.7587 97.4526 28.6251 98.3405 28.4969 99.229C27.9888 102.752 27.6999 106.296 27.4127 109.842C27.3802 110.242 27.2646 110.646 27.1498 111.046C26.9898 111.605 26.8315 112.158 26.9035 112.686C27.032 113.633 27.0665 114.588 27.1009 115.542C27.1514 116.939 27.2018 118.334 27.5468 119.702C27.7049 120.327 27.6832 120.962 27.6439 121.6C27.4184 125.265 26.8542 128.848 25.4855 132.297C24.7626 134.12 23.9004 135.811 22.4645 137.241L21.4302 137.18C21.7671 136.264 22.2816 135.446 22.7971 134.627C23.1514 134.063 23.5063 133.499 23.8042 132.902C24.626 131.237 25.1979 129.46 25.5014 127.629L25.514 127.556C25.8059 125.857 26.1004 124.144 26.1284 122.403C26.1458 121.312 26.0993 120.259 25.4255 119.244C25.131 120.048 24.8442 120.854 24.5576 121.659C22.6309 127.071 20.7205 132.438 16.6324 136.829C16.134 136.869 15.6325 136.838 15.1428 136.738C18.0519 133.785 20.0442 130.306 21.4354 126.559C21.5967 126.125 21.7597 125.691 21.9227 125.256C23.0895 122.147 24.2615 119.025 24.8576 115.728C25.0111 114.879 25.2105 114.037 25.4099 113.195C25.702 111.961 25.9938 110.729 26.1404 109.478C26.2518 108.528 26.3607 107.578 26.4697 106.628C27.0552 101.522 27.6404 96.418 28.6028 91.3598C29.3417 87.4392 30.709 83.6625 32.6523 80.1746C33.4823 78.6852 34.4257 77.259 35.3695 75.8324C36.0517 74.8011 36.734 73.7696 37.3739 72.7136C37.5085 72.4915 37.6621 72.276 37.8165 72.0594C38.2884 71.3973 38.7677 70.7248 38.7326 69.8237C38.5912 66.1911 39.5177 62.749 40.4453 59.3027C40.5862 58.7791 40.7271 58.2555 40.8643 57.731C41.2312 56.3288 41.5686 54.8971 41.5491 53.4264C41.5372 52.5215 41.0586 52.1835 40.338 52.6171C38.3796 53.7955 37.0974 55.6507 36.29 57.6523C35.6201 59.313 35.334 61.1802 35.1874 63.0222C35.0778 64.399 34.0629 64.9302 32.7662 64.4565C31.2133 63.8893 30.3291 62.6263 29.4551 61.3779C29.4331 61.3465 29.4112 61.3152 29.3892 61.2839C28.5663 60.1095 28.1062 58.7703 27.6459 57.431C27.4663 56.9081 27.2866 56.3852 27.0853 55.8721C25.5892 52.058 23.9577 48.2982 22.0844 44.6544C22.0416 44.5711 21.9988 44.4872 21.9559 44.403C21.328 43.1708 20.6661 41.8717 19.1481 41.2212C19.2072 41.7479 19.264 42.2732 19.3206 42.7971C19.726 46.5494 20.1232 50.2258 21.3363 53.7839L20.7611 54.0165C18.5715 48.9568 16.01 44.1538 11.7993 40.3904C11.4687 40.9871 11.477 41.4772 11.5635 42.011C11.8914 44.034 12.7852 45.8297 13.6783 47.6239C13.9954 48.261 14.3124 48.8979 14.6039 49.5446C15.003 50.4302 15.4686 51.2856 15.9342 52.1414C16.2365 52.6968 16.5388 53.2524 16.8231 53.8164C16.8313 53.8327 16.8396 53.8491 16.848 53.8655C17.0589 54.282 17.2973 54.7527 16.9073 55.2047C16.5339 55.1472 16.4164 54.9175 16.3072 54.704C16.2995 54.689 16.2919 54.6741 16.2842 54.6593C15.5257 53.1992 14.7506 51.7488 13.8206 50.387C13.6065 50.0736 13.3961 49.7575 13.1857 49.4414C12.1564 47.8947 11.1274 46.3488 9.67458 45.1271C9.62113 45.0822 9.56759 45.0351 9.51382 44.9879C9.11943 44.6413 8.71245 44.2837 8.23454 44.6641C7.68106 45.1047 7.8159 45.8276 8.10147 46.4198C8.50685 47.2604 8.92502 48.0944 9.34328 48.9285C9.89404 50.0269 10.4449 51.1255 10.9669 52.2399C11.1727 52.6794 11.3792 53.1186 11.5857 53.5578C12.4712 55.4413 13.3567 57.3249 14.1899 59.2324C14.3557 59.6117 14.47 60.0221 13.8622 60.3955C12.8387 59.6075 12.0241 58.5964 11.2059 57.5807C10.098 56.2055 8.98326 54.8218 7.33377 53.972C6.75088 54.6935 6.57171 55.3438 7.12935 56.2707C7.97613 57.6784 8.76776 59.1188 9.55948 60.5594C10.0915 61.5274 10.6235 62.4954 11.1723 63.4537C11.6691 64.3212 12.0971 65.2242 12.5251 66.1269C13.1033 67.3466 13.6813 68.566 14.4286 69.6971C16.2811 72.5012 17.7946 75.4711 19.1565 78.5455C20.3718 81.2891 19.9559 83.9116 18.9112 86.4564C17.6578 89.5098 16.0719 92.4216 14.4481 95.3046C13.1935 97.532 12.2744 99.9208 11.3611 102.294C11.2321 102.63 11.1032 102.965 10.9735 103.299C10.9262 103.421 10.8788 103.543 10.8313 103.665C9.97887 105.86 9.12079 108.07 8.43102 110.331C8.2667 110.87 8.09702 111.407 7.92731 111.945C7.32218 113.862 6.71664 115.781 6.3521 117.756C5.81505 120.665 5.6735 123.611 5.8343 126.579C5.85512 126.963 5.8728 127.348 5.89046 127.733C6.02818 130.731 6.16519 133.713 7.78526 136.374L4.73095 136.194C1.04396 128.587 2.94353 121.209 5.77805 113.87C4.68866 114.893 4.01261 116.399 3.58876 117.724C2.97258 119.65 2.41522 121.584 2.01547 123.564C1.21695 127.517 0.999899 131.483 1.79312 135.466C1.803 135.516 1.82088 135.564 1.83962 135.614C1.8748 135.709 1.91306 135.812 1.9073 135.949C1.55973 136.006 1.20377 135.986 0.864707 135.891C0.847959 135.852 0.831279 135.813 0.814702 135.774C0.53849 135.126 0.290905 134.545 0.233343 133.896C0.0351912 131.66 -0.0753638 129.412 0.0606224 127.179C0.266103 123.805 1.26322 120.579 2.28232 117.375C2.3452 117.177 2.39793 116.976 2.45073 116.775C2.57653 116.295 2.70268 115.815 2.96728 115.372C4.08874 113.497 5.17606 111.601 6.26326 109.706C6.93431 108.536 7.60531 107.366 8.28426 106.201C9.49864 104.117 10.4031 101.88 11.3091 99.6392C12.0547 97.7952 12.8013 95.9486 13.7225 94.183C14.2906 93.0941 14.8069 91.9772 15.323 90.8607C16.0097 89.375 16.6961 87.89 17.5039 86.4726C18.7483 84.2896 19.1389 82.1091 18.4399 79.744C17.8236 77.6587 16.7188 75.8102 15.6154 73.9641C15.2467 73.3473 14.8782 72.7307 14.5281 72.1056C14.1314 71.3975 13.7071 70.7045 13.2827 70.0114C12.5773 68.8593 11.8716 67.7069 11.2927 66.4845C10.3771 64.5505 9.33205 62.6869 8.28705 60.8233C7.74505 59.8567 7.20305 58.8901 6.67909 57.9138C6.65631 57.8713 6.63347 57.8289 6.61061 57.7864C6.04906 56.7431 5.47731 55.6809 5.68613 54.4215C5.94697 52.8489 6.88069 52.451 8.28081 53.2163C8.86868 53.5378 9.36945 53.9671 9.87111 54.3972C10.2485 54.7208 10.6263 55.0448 11.0421 55.3236C10.673 54.8956 10.5059 54.3854 10.3394 53.8769C10.2366 53.563 10.134 53.2497 9.98417 52.9567C8.91571 50.8671 7.91656 48.7374 7.0029 46.5761C6.60562 45.6364 6.80139 44.5694 7.57995 43.8819C8.25017 43.2899 9.09982 43.4328 9.84845 43.9885C10.0523 44.1398 10.2914 44.2441 10.5304 44.3484C10.6393 44.3959 10.7482 44.4434 10.8538 44.4953C10.2228 43.4514 10.1706 42.392 10.2729 41.286C10.2781 41.2299 10.2828 41.1735 10.2875 41.117C10.3372 40.5197 10.387 39.9202 11.0317 39.6597C11.7328 39.3764 12.407 39.4998 13.0196 40.0231C14.442 41.238 15.584 42.6886 16.7322 44.1471C16.7776 44.2047 16.823 44.2623 16.8683 44.3199C17.1222 44.6422 17.351 44.9834 17.5808 45.3262C17.9769 45.917 18.3761 46.5124 18.9123 47.0232C18.4286 45.3108 18.2805 43.5919 18.1323 41.871C18.1279 41.8202 18.1235 41.7695 18.1192 41.7187C18.1108 41.6221 18.0982 41.5254 18.0858 41.4294C18.0202 40.9248 17.9577 40.4431 18.529 40.1272C19.1481 39.7845 19.6981 40.0758 20.2014 40.4255C21.6586 41.438 22.5607 42.8983 23.3491 44.4289C24.5599 46.7798 25.5656 49.2246 26.5439 51.6769C26.8158 52.3584 27.1035 53.0328 27.3912 53.7073C28.0224 55.1875 28.654 56.6682 29.1198 58.2254C29.6948 60.1487 30.8666 61.8411 32.4672 63.0597C33.3093 63.7061 34.02 63.4347 34.182 62.4847C34.228 62.2157 34.2722 61.9469 34.3163 61.6785C34.6562 59.6132 34.9921 57.5722 36.0584 55.6376C36.9392 54.0398 37.9202 52.7065 39.4492 51.7784C40.8021 50.9574 42.1749 51.2922 42.5045 52.5113C42.6675 53.0886 42.7232 53.6908 42.6688 54.2882C42.4549 56.2175 41.9255 58.075 41.3959 59.9329C41.1186 60.9061 40.8412 61.8794 40.6091 62.8632C40.5193 63.2437 40.4154 63.6194 40.3118 63.9941C39.9808 65.1913 39.6523 66.3796 39.7935 67.6887C39.9198 68.7317 39.8572 69.7889 39.6087 70.8099C39.1426 72.6167 38.1403 74.13 37.1375 75.644C36.5361 76.5519 35.9346 77.4601 35.4485 78.4319C34.7961 79.736 34.0162 80.981 33.2376 82.224C32.8937 82.773 32.55 83.3215 32.2177 83.8746C30.8875 86.0888 30.4353 88.4856 29.9813 90.8915ZM4.17438 124.292C4.17059 124.365 4.16685 124.437 4.1524 124.504C3.7983 127.2 4.25483 129.65 4.7661 132.098C4.41696 130.281 4.43194 128.452 4.44703 126.609C4.45478 125.663 4.46256 124.713 4.4211 123.76C4.19522 123.893 4.18466 124.095 4.17438 124.292Z" fill="black"/>
<path d="M24.1606 67.1583C24.2912 69.2807 24.6844 71.2129 25.8341 72.9998C26.3939 72.5505 26.3343 72.1612 26.2101 71.8159C25.0268 68.5241 25.3466 65.1032 25.3119 61.7126C25.31 61.525 25.3119 61.3371 25.3212 61.1496C25.3389 60.7903 25.3264 60.4525 24.841 60.4327C24.3596 60.413 24.2809 60.8003 24.262 61.1165C24.1858 62.3861 24.0724 63.663 24.1412 64.9281C24.1798 65.6405 24.1866 66.3448 24.1606 67.1583Z" fill="black"/>
<path d="M21.7154 78.9319C21.3083 78.6638 20.9331 78.5112 20.6875 78.9449C20.5185 79.2434 20.808 79.4507 20.9965 79.6935C21.6632 80.5521 22.4005 81.3082 23.3576 81.8554C24.0728 82.2644 24.7737 82.2455 25.5018 81.9572C25.7694 81.8516 25.9209 81.655 25.8964 81.3527C25.8673 80.9925 25.5954 80.9701 25.3288 80.9619C23.8012 80.9153 22.7286 80.0643 21.7154 78.9319Z" fill="black"/>
<path d="M20.1384 66.3293C19.6477 66.1344 19.2255 66.0235 18.8276 66.354C19.3345 67.3073 21.3489 68.4543 22.3102 68.3362C22.0925 67.1494 20.9556 66.9645 20.1384 66.3293Z" fill="black"/>
</svg>
