<?xml version="1.0" encoding="utf-8"?>
<!-- Generator: Adobe Illustrator 24.1.2, SVG Export Plug-In . SVG Version: 6.00 Build 0)  -->
<svg version="1.1" id="Layer_1" xmlns="http://www.w3.org/2000/svg" xmlns:xlink="http://www.w3.org/1999/xlink" x="0px" y="0px"
	 viewBox="0 0 1531.06 1281.88" style="enable-background:new 0 0 1531.06 1281.88;" xml:space="preserve">
<style type="text/css">
	.st0{fill-rule:evenodd;clip-rule:evenodd;fill:#808080;}
</style>
<g>
	<path class="st0" d="M1174.74,61.85c-4.58-2.71-12.4-1.28-18.68,0.8c-5.22,1.7-13.68,5.69-19.1,8.62
		c-19.69,10.54-13.09,16.71-14.79,41.24c-21.98,12.72-27.14-1.49-53.96,5c-12.13,2.93-46.72,8.67-62.9,3.94
		c-25.7-7.5-1.7-16.92-51.14-10.54c-20.38,2.66-38.05,10.75-59.65,8.57c-22.72-2.29-13.09-14.47-47.47-14.53
		c-14.58-0.05-26.45-14.53-49.01-18.15c-11.07-1.81-21.5-0.27-31.72-1.76c-13.2-1.92-12.19-6.17-26.82-2.02l-89.72,12.13
		c-13.52,0.96-18.04,4.15-27.83,5c-10.06,0.85-18.89-3.51-27.62-4.84c-20.54-3.09-10.64-0.8-27.35-8.04
		c-9.84-4.26-45.71-2.13-60.98-4.58c-18.89-3.03-39.43-6.39-59.07-10.43c-34.32-7.08-25.6,0.8-55.45,1.12
		c-51.99,0.48-64.28,12.61-108.18,26.18c-17.83,5.48-50.66,0.11-56.67,20.65c-6.92,23.52-14.37,24-39.38,29.05
		c-33.95,6.92-42.52-3.14-46.03,34.22l27.25-1.38c-2.45,12.4-11.33,13.94-25.33,19.26c-12.67,4.79-22.67,6.65-34.27,12.29
		l-31.18,12.82c-9.1,4.52-7.88,12.13-12.61,20.22c-1.54,2.71-2.82,2.55-6.01,7.82c9.47,37.68,18.84,21.55,31.4,35.71
		c-20.38,22.24-49.49,24.85-74.29,42.09c3.14,2.66,5.06,5.91,7.45,9.31c22.72-0.16,29.32-10.8,48.75-18.68l102.38-40.71
		c37.41-13.52,36.56-4.1,61.2-10.22c19.9-4.95,37.78-6.65,50.39-21.02c17.24-19.69,34.75,1.7,52.9,3.94
		c18.78,2.29,45.07,5.16,53.59,17.45c43.74,63.38,17.24,48.64,22.14,110.47c2.13,27.09-16.02,38.47-17.19,50.71
		c-2.13,22.77,42.52,25.06-13.73,96.64c-11.87,15.11-20.75,24.69-32.3,39.06c-10.11,12.56-5.21,7.82-11.44,24.53
		c-9.37,25.22-13.04,0.37-20.91,44.49c-2.08,11.76,3.72,17.77,5.27,26.61c2.45,13.84-3.14,53.11,2.66,63.48
		c7.5,13.46,32.62-4.52,40.18,48c1.76,12.4,1.81,29.75,3.73,39.86c2.87,15.64,16.71,20.65,13.41,30.81
		c-3.03,9.21-19.85,10.48-6.97,25.81c8.3,10,18.79,9.74,21.29,25.06c3.99,24.69-1.76,16.6,14.79,29.8
		c6.76,5.43,15.81,26.34,25.44,17.88c8.52-16.82-4.42-20.91-10-36.24c-3.88-10.8-5.69-26.55-10.22-39.06
		c-6.86-19.21-22.56-63.64-11.44-79.08l11.23-0.8c6.23,17.24-2.77,31.88,8.83,49.11l21.55,39.11c9.42,16.23,1.12,8.83,4.52,20.54
		c2.93,10.22,7.18,6.12,15.27,14.42c10.43,10.64,14.16,23.68,22.99,37.57c5.59,8.89,7.82,8.04,8.94,21.92
		c1.49,18.15-3.25,10.86-5.91,22.14c-5.59,23.84,22.99,33.79,23.2,34c9.42,7.72,0.69,8.09,15.86,14.53
		c40.55,17.29,5.54,9.1,59.81,30.92c15.59,6.28,28.84,15.22,47.41,12.61c23.15-3.19,26.39-12.08,43.58,6.23
		c28.68,30.44,27.3,35.55,75.46,45.18c49.12,9.79,17.14,45.66,55.29,66.04c24.64,13.2,17.13,22.78,32.94,27.4
		c12.03,3.51,12.08-0.64,22.19,8.09c8.51,7.45,3.67,11.12,22.46,5.38l2.77-16.39c2.08-7.13,4.26-1.44,2.55-16.76
		c-18.68-1.33-23.57,7.18-38.85-5.21c-2.66-2.24-11.28-9.69-13.04-11.65c-21.92-24.21,16.71-81.2,7.77-98.61
		c-26.98-22.93-33.15-12.72-72.26-15.48c-12.67-29.48,12.93-47.2,18.41-76.95c3.94-21.39,9.1-11.01,10.32-26.34
		c-12.29-9.04-44.86-7.4-60.19,3.99c-15.96,11.81-2.34,45.44-31.98,48.05c-67.21,5.91-77.75-5.75-81.31-69.82
		c-1.22-22.62,6.44-42.89,15.17-59.81c14.9-28.95-4.68-32.89,26.98-52.89c2.88-1.86,49.12-24.85,51.67-25.44
		c5.22-1.12,49.22,9.42,67,9.05c13.14-18.94,6.17-13.04,30.71-18.68c19.53-4.42,28.2-7.24,34.75,11.71
		c56.14-5.27,10.7,23.47,52.73,83.07c19.05-1.81,27.51-21.5,24.59-45.39c-7.5-60.77-22.72-60.35,32.03-100.15
		c34.64-25.17,66.62-26.92,79.4-66.09c8.19-25.06,54.33-79.5,63.65-84.88c18.25-10.54,37.41-7.18,53.75-20.33
		c0.32-0.69,0.59-2.61,0.69-2.24c0,0.16,0.8-23.31,27.09-33.26c15.17-5.69,19.37-13.94,40.28-9.74c13.52,2.77,11.18,23.9,28.26,9.74
		c8.09-6.65,7.08-11.97,18.78-14.53c17.67-3.78,39.38-3.03,54.17-10.7c-0.75-13.99-2.23-14.1-16.76-16.44
		c-18.57-2.98-11.23-1.65-24.53-8.3c-2.93-46.3,21.71-23.79,15.38-60.98c17.67-14.26,40.28-3.46,61.3-6.65
		c11.55-1.75,10.7-6.01,20.54-1.81c9.9,18.68-18.57,18.41-19.9,49.86c17.4,1.49,22.3,0.75,38.79,0.53
		c13.78-0.16,59.44,27.56,59.18-3.03c-0.05-6.44-3.46-8.09-2.34-19.53c0.91-9.79,4.52-8.99,4.63-17.93
		c-14.53-10.7-24.16-2.71-18.52-29.53c3.78-18.15,8.73-22.3,9.47-44.38c-18.94-14.53-6.76-0.11-13.94-21.61
		c-26.5-9.63-28.31-11.12-27.99-43.32c0.32-27.14-4.04-41.77-19.26-54.22c-19.9,3.94-29.91,31.61-63.06,28.9
		c-13.2-20.06-5.48-14.16,1.22-35.18c-7.61-11.65-5.8-5.75-14.63-13.84c-14.1-12.93-20.91-29.8-67.9-23.09
		c-8.04,1.12-14.37,5.48-17.56,11.71c-3.3,6.49-0.37,4.36-4.95,11.81c-3.94,6.38-3.35,0.75-6.6,9.52
		c-9.58,26.02,4.58,22.08-30.44,32.83c0.85,14.37,23.2,28.36-7.98,50.13c-12.72,8.94-44.75,15.65-51.35,26.55
		c-3.67,7.08-5.91,27.25-9.31,36.34c-2.87,7.82-20.49,19.69-30.07,15.43c-23.73-13.51,5.75-44.96,11.76-58.43
		c-10.48-7.61-16.92-6.49-30.28-7.88c-25.92-2.72-32.73-19.74-49.01-28.42c-8.57-4.58-20.27-6.17-27.94-9.85l-9.53-37.41
		c92.11-74.55,68.91-28.58,112.12-61.25c32.89-24.85,41.51,0.43,56.83,3.3c11.07-1.76,18.47-9.9,28.31-12.4
		c22.3-5.8,14.37,12.61,35.01,3.25c1.92-10.11,0.64-6.33-5.64-14.1c-6.12-7.56-6.49-12.03-7.13-23.95
		c30.7-6.71,20.06-3.57,42.52-17.77c20.86-13.2,26.34-42.84,49.65-43.8c35.39-1.54,37.41,2.66,48.21,15.22
		c3.25,3.78,0.32,1.12,4.26,4.04c10.06,7.5,27.03,11.76-7.66,31.02c-14.32,7.93-9.42,14.37-22.3,18.89
		c-19.63,6.86-52.68-19.58-55.56,19.42c19.16,2.13,36.03,3.41,54.6,0.53c16.66,11.87,6.17,22.72,25.81,31.45
		c10.38,4.58,34.27,14.53,44.86,10.54c2.34-0.9,33.31-24.69,33.37-24.74c6.44-7.61,6.65-15.06,2.71-25.17
		c-2.02-5.32-10.75-16.28-4.26-21.07c11.87-2.93,16.12,16.07,29.96,21.66c2.82,0.27,43.95-17.99,33.47-40.66
		c-5.48-11.87-11.97-9.36-20.43-18.3c-11.39-12.08-6.55-10.43-8.89-27.35c-3.14-22.19-29.32-19.9-48.74-30.49
		c-26.77-14.63,4.9-28.1-51.51-31.77c-15.59-1.06-22.03-0.8-37.2,2.02c-14.37,2.66-22.67,0.05-35.44,0.53
		c-41.67,1.49-35.12,2.34-60.82,21.61c-34.54,25.86,4.15,34.06-20.86,47.57C1184.27,115.33,1185.65,70.2,1174.74,61.85
		L1174.74,61.85z"/>
	<path class="st0" d="M843,973.62c30.33-1.17,8.35-16.87,70.4-4.31c16.18,3.25,14.37,8.83,27.72,16.39
		c17.83,10.11,13.46,4.2,19.16,24.69c22.35,0.59,9.26-6.76,30.33,2.5c12.98,5.75,20.7,3.3,25.81-7.98
		c-6.55-12.29-22.88-13.36-41.35-25.76c-21.29-14.37-6.65-13.84-41.51-27.09c-23.68-8.99-54.12-15.91-77.32,1.07
		C848.8,958.56,842.36,964.57,843,973.62L843,973.62z"/>
	<path class="st0" d="M1034.26,1029.5c-12.56,0.16-19.26-0.74-27.57,5.69c2.98,7.5,3.78,6.6,21.39,9.26
		c7.18,1.06,17.77,3.72,25.86,3.72c4.9,0,48.43-9.05,51.14-10.48c2.61-18.73-12.35-15.81-31.24-25.54
		c-10.91-5.59-31.66-4.95-48.9-5.69C1029.25,1024.34,1031.86,1010.39,1034.26,1029.5L1034.26,1029.5z"/>
</g>
</svg>
