<?xml version="1.0" encoding="utf-8"?>
<!-- Generator: Adobe Illustrator 24.1.2, SVG Export Plug-In . SVG Version: 6.00 Build 0)  -->
<svg version="1.1" id="Layer_1" xmlns="http://www.w3.org/2000/svg" xmlns:xlink="http://www.w3.org/1999/xlink" x="0px" y="0px"
	 viewBox="0 0 512 512" style="enable-background:new 0 0 512 512;" xml:space="preserve">
<style type="text/css">
	.st0{fill:#FFFFFF;}
</style>
<path class="st0" d="M224.11,303.96L307.39,256l-83.27-47.96V303.96z"/>
<path class="st0" d="M256,0C114.64,0,0,114.64,0,256s114.64,256,256,256s256-114.64,256-256S397.36,0,256,0z M415.96,256.26
	c0,0,0,51.92-6.59,76.95c-3.69,13.7-14.5,24.51-28.2,28.2C356.14,368,256,368,256,368s-99.88,0-125.18-6.85
	c-13.7-3.69-24.51-14.5-28.2-28.2C96.04,308.18,96.04,256,96.04,256s0-51.91,6.59-76.95c3.69-13.7,14.76-24.77,28.2-28.46
	C155.86,144,256,144,256,144s100.14,0,125.18,6.85c13.7,3.69,24.51,14.5,28.2,28.2C416.23,204.09,415.96,256.26,415.96,256.26z"/>
</svg>
